<?xml version="1.0" encoding="UTF-8" standalone="no"?>
<!-- Created with Inkscape (http://www.inkscape.org/) -->

<svg
   width="210mm"
   height="210mm"
   viewBox="0 0 210 210"
   version="1.1"
   id="svg38868"
   xml:space="preserve"
   inkscape:version="1.2.2 (732a01da63, 2022-12-09)"
   sodipodi:docname="airbnb-draw.svg"
   xmlns:inkscape="http://www.inkscape.org/namespaces/inkscape"
   xmlns:sodipodi="http://sodipodi.sourceforge.net/DTD/sodipodi-0.dtd"
   xmlns="http://www.w3.org/2000/svg"
   xmlns:svg="http://www.w3.org/2000/svg"><sodipodi:namedview
     id="namedview38870"
     pagecolor="#ffffff"
     bordercolor="#000000"
     borderopacity="0.25"
     inkscape:showpageshadow="2"
     inkscape:pageopacity="0.0"
     inkscape:pagecheckerboard="0"
     inkscape:deskcolor="#d1d1d1"
     inkscape:document-units="mm"
     showgrid="false"
     inkscape:zoom="0.65655864"
     inkscape:cx="290.9108"
     inkscape:cy="322.89576"
     inkscape:window-width="1920"
     inkscape:window-height="974"
     inkscape:window-x="-11"
     inkscape:window-y="-11"
     inkscape:window-maximized="1"
     inkscape:current-layer="layer28" /><defs
     id="defs38865"><inkscape:perspective
       sodipodi:type="inkscape:persp3d"
       inkscape:vp_x="-426.65443 : 399.33751 : 1"
       inkscape:vp_y="0 : 2683.1688 : 0"
       inkscape:vp_z="650.049 : 399.33751 : 1"
       inkscape:persp3d-origin="111.69727 : 266.52064 : 1"
       id="perspective52759" /><inkscape:perspective
       sodipodi:type="inkscape:persp3d"
       inkscape:vp_x="-59.532272 : 127.7076 : 1"
       inkscape:vp_y="126.61015 : 811.90239 : 0"
       inkscape:vp_z="269.19385 : 76.445204 : 1"
       inkscape:persp3d-origin="98.563582 : 61.887214 : 1"
       id="perspective39975" /><inkscape:perspective
       sodipodi:type="inkscape:persp3d"
       inkscape:vp_x="-94.275066 : 109.82558 : 1"
       inkscape:vp_y="-22.272795 : 941.44682 : 0"
       inkscape:vp_z="283.84723 : 118.77121 : 1"
       inkscape:persp3d-origin="95.888569 : 67.696804 : 1"
       id="perspective39810" /><inkscape:perspective
       sodipodi:type="inkscape:persp3d"
       inkscape:vp_x="-126.67075 : 147.68843 : 1"
       inkscape:vp_y="-47.121765 : 1457.1834 : 0"
       inkscape:vp_z="390.76431 : 164.42103 : 1"
       inkscape:persp3d-origin="134.37929 : 83.924123 : 1"
       id="perspective52759-3" /><inkscape:perspective
       sodipodi:type="inkscape:persp3d"
       inkscape:vp_x="36.000147 : 41.014005 : 1"
       inkscape:vp_y="-5.8930103 : 249.09114 : 0"
       inkscape:vp_z="136.045 : 43.380865 : 1"
       inkscape:persp3d-origin="86.314275 : 29.867426 : 1"
       id="perspective39810-8" /></defs><g
     inkscape:groupmode="layer"
     id="layer23"
     inkscape:label="Layer 1"
     style="display:inline"><g
       sodipodi:type="inkscape:box3d"
       id="g52777"
       style="opacity:1;fill:#68a8e8;fill-opacity:1;stroke:none;stroke-width:0.377953;stroke-linecap:round;stroke-linejoin:round;stroke-dasharray:none;stroke-opacity:1"
       inkscape:perspectiveID="#perspective52759"
       inkscape:corner0="0.26119923 : -0.088512204 : 0 : 1"
       inkscape:corner7="0.01890379 : -0.093623408 : 0.25 : 1"><path
         sodipodi:type="inkscape:box3dside"
         id="path52789"
         style="fill:#e9e9ff;fill-rule:evenodd;stroke:none;stroke-width:0.362429;stroke-linejoin:round"
         inkscape:box3dsidetype="11"
         d="m 107.70765,55.706321 102.03571,46.790789 v 10.80793 L 107.70765,64.781381 Z"
         points="209.74336,102.49711 209.74336,113.30504 107.70765,64.781381 107.70765,55.706321 " /><path
         sodipodi:type="inkscape:box3dside"
         id="path52779"
         style="fill:#353564;fill-rule:evenodd;stroke:none;stroke-width:0.339031;stroke-linejoin:round"
         inkscape:box3dsidetype="6"
         d="m 0.20255437,104.2799 v 10.87395 L 107.70765,64.781381 v -9.07506 z"
         points="0.20255437,115.15385 107.70765,64.781381 107.70765,55.706321 0.20255437,104.2799 " /><path
         sodipodi:type="inkscape:box3dside"
         id="path52787"
         style="fill:#afafde;fill-rule:evenodd;stroke:none;stroke-width:0.37369;stroke-linejoin:round"
         inkscape:box3dsidetype="13"
         d="M 0.20255437,115.15385 101.7092,187.56194 209.74336,113.30504 107.70765,64.781381 Z"
         points="101.7092,187.56194 209.74336,113.30504 107.70765,64.781381 0.20255437,115.15385 " /><path
         sodipodi:type="inkscape:box3dside"
         id="path52781"
         style="fill:#95e5a0;fill-opacity:1;stroke-width:0.37369"
         inkscape:box3dsidetype="5"
         d="M 0.20255437,104.2799 101.7092,174.10216 209.74336,102.49711 107.70765,55.706321 Z"
         points="101.7092,174.10216 209.74336,102.49711 107.70765,55.706321 0.20255437,104.2799 " /><path
         sodipodi:type="inkscape:box3dside"
         id="path52785"
         style="fill:#6fbc7a;fill-opacity:1;stroke-width:0.39948"
         inkscape:box3dsidetype="14"
         d="m 101.7092,174.10216 v 13.45978 l 108.03416,-74.2569 v -10.80793 z"
         points="101.7092,187.56194 209.74336,113.30504 209.74336,102.49711 101.7092,174.10216 " /><path
         sodipodi:type="inkscape:box3dside"
         id="path52783"
         style="fill:#6fbc7a;fill-opacity:1;stroke-width:0.37369"
         inkscape:box3dsidetype="3"
         d="M 0.20255437,104.2799 101.7092,174.10216 v 13.45978 L 0.20255437,115.15385 Z"
         points="101.7092,174.10216 101.7092,187.56194 0.20255437,115.15385 0.20255437,104.2799 " /></g><path
       style="opacity:1;fill:#82c0f4;fill-opacity:1;stroke:none;stroke-width:0.125807;stroke-linecap:round;stroke-linejoin:round;stroke-dasharray:none;stroke-opacity:1"
       d="m 67.44156,137.77907 34.41009,24.22121 89.35562,-56.90166 -35.45133,-18.32722 z"
       id="path53030"
       sodipodi:nodetypes="ccccc" /></g><g
     inkscape:groupmode="layer"
     id="layer30"
     inkscape:label="Layer 10"
     transform="matrix(0.809628,0,0,0.8235294,23.89382,31.321717)"
     style="fill:#6fbc7a;fill-opacity:1"><ellipse
       style="opacity:1;fill:#6fbc7a;fill-opacity:1;stroke:none;stroke-width:0.12581;stroke-linecap:round;stroke-linejoin:round;stroke-dasharray:none;stroke-opacity:1"
       id="path56496"
       cx="82.153809"
       cy="111.0368"
       rx="19.380459"
       ry="7.9873133"
       transform="matrix(0.92630368,-0.37677778,0.38583871,0.92256625,0,0)" /></g><g
     inkscape:groupmode="layer"
     id="layer28"
     inkscape:label="Layer 5"
     style="display:inline" /><g
     inkscape:groupmode="layer"
     id="layer26"
     inkscape:label="Capa 8"
     style="display:inline"><path
       style="opacity:1;fill:#54b1f1;fill-opacity:1;stroke:none;stroke-width:0.125807;stroke-linecap:round;stroke-linejoin:round;stroke-dasharray:none;stroke-opacity:1"
       d="m 92.682769,155.60568 c 0.600869,0.008 62.874641,-40.15231 62.874641,-40.15231 l 9.9372,5.98678 -63.56573,40.59524 z"
       id="path53972"
       sodipodi:nodetypes="ccccc" /><path
       style="opacity:1;fill:#54b1f1;fill-opacity:1;stroke:none;stroke-width:0.125807;stroke-linecap:round;stroke-linejoin:round;stroke-dasharray:none;stroke-opacity:1"
       d="m 155.80096,86.883101 -0.35601,26.340269"
       id="path54375" /></g><g
     inkscape:groupmode="layer"
     id="layer24"
     inkscape:label="Layer 2" /><g
     inkscape:groupmode="layer"
     id="layer21"
     inkscape:label="Capa 6"><path
       style="fill:#755d37;fill-opacity:1;stroke-width:0.488931;stroke-linecap:round;stroke-linejoin:round"
       d="m 115.83822,54.320299 c 0,0 -3.43526,-8.086498 -3.02621,-8.833368 0,0 0.0776,-0.28764 0.16407,-0.403588 0.13567,-0.181986 0.50089,-0.499073 0.52822,-0.404609 0.0125,0.04323 0.16981,0.530965 0.21371,0.553293 0.71879,0.365623 2.09749,0.816588 4.02382,0.335861 1.986,-0.495621 3.11826,-1.311213 3.66531,-1.78259 0.0709,-0.06111 0.0457,-0.494374 0.0474,-0.564859 0.001,-0.04852 0.32766,0.02495 0.43928,0.07522 0.28015,0.126003 0.23045,0.03427 0.50708,0.434408 0.27665,0.400199 0.0618,9.449057 0.0618,9.449057 0,0 -2.18501,1.272543 -3.40129,1.464886 -0.88994,0.140733 -2.69033,-0.252813 -2.69033,-0.252813 z"
       id="path49789-4-6-7"
       sodipodi:nodetypes="csssssssszcacc" /><path
       style="fill:#9d7e4c;fill-opacity:1;stroke-width:0.488931;stroke-linecap:round;stroke-linejoin:round"
       d="m 116.02081,60.356966 c 0,0 -2.74155,-8.199434 -2.30321,-8.928841 0,0 0.089,-0.284211 0.17994,-0.396506 0.14276,-0.176252 0.52026,-0.47803 0.54381,-0.38252 0.0113,0.04372 0.14862,0.537529 0.19162,0.561647 0.7037,0.394918 2.06338,0.902282 4.00721,0.50129 2.00404,-0.413442 3.16768,-1.181732 3.73301,-1.630203 0.0733,-0.05808 0.0652,-0.492079 0.0698,-0.562439 0.002,-0.04851 0.3264,0.03843 0.43592,0.09325 0.27494,0.137394 0.22891,0.04372 0.48946,0.454935 0.26055,0.411261 -0.33186,9.44423 -0.33186,9.44423 0,0 -2.21991,1.188574 -3.43764,1.323271 -1.18278,0.130829 -3.53175,-0.525294 -3.53175,-0.525294 z"
       id="path49789-4-1"
       sodipodi:nodetypes="csssssssszcacc" /><path
       style="fill:#755d37;fill-opacity:1;stroke-width:0.488931;stroke-linecap:round;stroke-linejoin:round"
       d="m 116.58414,66.96827 c 0,0 -2.74662,-8.293621 -2.26663,-8.995269 0,0 0.10537,-0.278328 0.20269,-0.384927 0.15277,-0.167332 0.54714,-0.445773 0.56513,-0.349003 0.008,0.04435 0.11706,0.545568 0.15859,0.572242 0.6795,0.43674 2.00726,1.025376 3.971,0.742524 2.02456,-0.291621 3.23087,-0.988254 3.82128,-1.401771 0.0766,-0.05355 0.0937,-0.487279 0.10234,-0.557236 0.007,-0.04825 0.32358,0.05808 0.42973,0.119325 0.26648,0.153762 0.22597,0.05746 0.46214,0.4837 0.23616,0.426294 -0.41284,9.349678 -0.41284,9.349678 0,0 -2.59705,1.139522 -3.97641,1.171135 -1.04792,0.02406 -3.05712,-0.750449 -3.05712,-0.750449 z"
       id="path49789-4-6"
       sodipodi:nodetypes="csssssssszcac" /><path
       style="fill:#9d7e4c;fill-opacity:1;stroke-width:0.488931;stroke-linecap:round;stroke-linejoin:round"
       d="m 116.60765,73.795946 c 0,0 -2.17944,-8.387279 -1.67552,-9.071274 0,0 0.11493,-0.274384 0.21584,-0.377429 0.15845,-0.161738 0.5622,-0.425878 0.57681,-0.328515 0.007,0.0446 0.0982,0.54941 0.13875,0.57756 0.66402,0.460831 1.97065,1.096693 3.94292,0.884415 2.03337,-0.218867 3.26297,-0.87184 3.86731,-1.263937 0.0784,-0.05078 0.11053,-0.483611 0.12158,-0.553216 0.008,-0.048 0.32136,0.06968 0.42534,0.134698 0.26101,0.163224 0.22384,0.06552 0.44515,0.49998 0.22131,0.434483 -0.68898,9.334079 -0.68898,9.334079 0,0 -2.66637,1.027995 -4.06062,1.022879 -1.13811,-0.0038 -3.3086,-0.85924 -3.3086,-0.85924 z"
       id="path49789-4-4"
       sodipodi:nodetypes="csssssssszcac" /><path
       style="fill:#755d37;fill-opacity:1;stroke-width:0.488931;stroke-linecap:round;stroke-linejoin:round"
       d="m 116.22474,81.153843 c 0,0 -1.46992,-8.479198 -0.93899,-9.141646 0,0 0.12578,-0.26937 0.23077,-0.368118 0.16483,-0.155008 0.57882,-0.4021 0.58952,-0.304222 0.005,0.04486 0.0761,0.553053 0.11544,0.582853 0.64497,0.48811 1.92502,1.177864 3.90416,1.047903 2.04045,-0.134003 3.29521,-0.735202 3.91474,-1.101807 0.0803,-0.04751 0.12983,-0.478598 0.14367,-0.547686 0.01,-0.04762 0.31834,0.08291 0.41961,0.1523 0.25425,0.173961 0.22104,0.07472 0.42472,0.5181 0.20372,0.443342 -0.97007,9.301444 -0.97007,9.301444 0,0 -2.76732,0.895428 -4.19087,0.849046 -1.25588,-0.04082 -3.64275,-0.988167 -3.64275,-0.988167 z"
       id="path49789-4"
       sodipodi:nodetypes="csssssssszcac" /><path
       style="opacity:1;fill:#9d7e4c;fill-opacity:1;stroke-width:0.488931;stroke-linecap:round;stroke-linejoin:round"
       d="m 115.70136,89.524465 c 0,0 -0.99189,-8.543926 -0.4475,-9.194921 0,0 0.13129,-0.266635 0.23828,-0.363127 0.16795,-0.151469 0.58693,-0.389691 0.59562,-0.291609 0.003,0.04486 0.0646,0.554551 0.10353,0.585196 0.63483,0.501731 1.90046,1.218575 3.88183,1.130788 2.04277,-0.09047 3.30957,-0.664892 3.93647,-1.018218 0.0813,-0.04587 0.1396,-0.475737 0.15489,-0.544509 0.01,-0.04738 0.31654,0.08971 0.41638,0.161208 0.25061,0.179327 0.21944,0.0795 0.41401,0.527021 0.19457,0.447588 -0.78174,9.186617 -0.78174,9.186617 0,0 -3.03325,0.908607 -4.58615,0.851781 -1.35034,-0.04939 -3.92559,-1.030227 -3.92559,-1.030227 z"
       id="path49789"
       sodipodi:nodetypes="csssssssszcac" /></g><g
     inkscape:groupmode="layer"
     id="layer20"
     inkscape:label="Capa 5"
     transform="translate(-0.81189708,-1.6237942)"><path
       style="opacity:1;fill:#69b46b;fill-opacity:1;stroke-width:0.488931;stroke-linecap:round;stroke-linejoin:round"
       d="m 114.15734,25.48798 c 0,0 -3.01465,-2.671642 -6.94683,0 -3.93216,2.671643 -2.22822,4.541793 -2.22822,4.541793 l 8.5197,1.87015 z"
       id="path46753" /><path
       style="opacity:1;fill:#87ed6a;fill-opacity:1;stroke-width:0.488931;stroke-linecap:round;stroke-linejoin:round"
       d="m 130.27922,33.636484 c 0,0 4.45646,-4.808956 8.12648,-3.205971 3.67002,1.602986 4.98075,2.938806 4.98075,2.938806 0,0 -7.73326,-10.820132 -17.4326,-7.614174 -9.69935,3.205971 -8.5197,9.885064 -8.5197,9.885064 z"
       id="path46749" /><path
       style="opacity:1;fill:#9cc689;fill-opacity:1;stroke-width:0.488931;stroke-linecap:round;stroke-linejoin:round"
       d="m 133.55604,36.174538 c 0,0 12.32078,7.213422 15.20436,15.361925 2.88358,8.148503 2.88358,9.885065 2.88358,9.885065 0,0 -11.14112,-13.224611 -18.08794,-14.961173 -6.94683,-1.736574 -12.18973,-12.289542 -12.18973,-12.289542 z"
       id="path46745" /><path
       style="opacity:1;fill:#69b46b;fill-opacity:1;stroke-width:0.488931;stroke-linecap:round;stroke-linejoin:round"
       d="m 110.22519,34.304388 c 0,0 -8.51969,-2.538054 -13.893634,6.011189 -5.373924,8.549243 -7.864288,17.098488 -7.864288,17.098488 0,0 9.043933,-8.549245 11.927492,-10.419381 2.88359,-1.87015 11.79649,-6.679107 11.79649,-6.679107 z"
       id="path46739" /><path
       style="opacity:1;fill:#79ce7b;fill-opacity:1;stroke-width:0.488931;stroke-linecap:round;stroke-linejoin:round"
       d="m 113.63306,40.315577 c 0,0 -9.69935,0 -8.38863,17.766404 1.31072,17.766391 4.45645,22.308196 4.45645,22.308196 0,0 9.30613,-29.788782 9.30613,-32.994753 0,-3.205972 -5.37395,-7.079847 -5.37395,-7.079847 z"
       id="path46737" /><path
       style="opacity:1;fill:#87ed6a;fill-opacity:1;stroke-width:0.488931;stroke-linecap:round;stroke-linejoin:round"
       d="m 116.12343,42.452891 c 0,0 1.96609,4.007464 6.42255,7.881339 4.45643,3.873876 11.01006,11.621626 11.01006,11.621626 0,0 0.91749,-17.36565 -3.67003,-22.441772 -4.58752,-5.076107 -10.09257,-5.47686 -10.09257,-5.47686 0,0 -5.89825,1.335821 -4.7186,5.209696 1.17966,3.873876 1.04859,3.205971 1.04859,3.205971 z"
       id="path46735" /><path
       style="opacity:1;fill:#69b46b;fill-opacity:1;stroke-width:0.488931;stroke-linecap:round;stroke-linejoin:round"
       d="m 116.51663,35.640209 c 0,-0.534328 9.53262,-10.168433 15.82409,-5.2259 6.29146,4.942532 8.67187,8.209161 8.67187,8.209161 0,0 -11.78196,-3.784754 -18.33556,-3.384001 -6.55361,0.40074 -6.1604,0.40074 -6.1604,0.40074 z"
       id="path46743"
       sodipodi:nodetypes="cscsc" /><path
       style="opacity:1;fill:#87ed6a;fill-opacity:1;stroke-width:0.488931;stroke-linecap:round;stroke-linejoin:round"
       d="m 115.33698,35.640209 c -0.3932,-0.667903 -5.50502,-12.022378 -12.97613,-8.282079 -7.471088,3.7403 -10.354647,7.614176 -10.354647,7.614176 0,0 1.572851,-1.736575 6.160356,-2.003726 4.587491,-0.267177 15.073271,3.606711 15.073271,3.606711 z"
       id="path46751" /><path
       style="opacity:1;fill:#9cc689;fill-opacity:1;stroke-width:0.444545;stroke-linecap:round;stroke-linejoin:round"
       d="m 116.77878,35.758463 c -0.49096,-0.123105 6.63435,-8.269996 5.97308,-10.479396 -0.43277,-1.445998 -1.41202,-1.776328 -2.45423,-0.900317 0.1197,-1.929762 -6.94212,-0.47469 -7.21636,2.035945 -1.69631,15.529484 0.42021,9.052197 0.28963,9.012468 z"
       id="path46747"
       sodipodi:nodetypes="cscscc" /><path
       style="opacity:1;fill:#9de79f;fill-opacity:1;stroke-width:0.488931;stroke-linecap:round;stroke-linejoin:round"
       d="m 113.23983,34.705141 c 0,0 -3.14573,-3.205971 -5.50503,1.335821 -2.3593,4.54178 1.31073,18.033555 1.31073,18.033555 0,0 11.40328,-15.495501 8.91292,-18.033555 -2.4904,-2.538066 -4.71862,-1.335821 -4.71862,-1.335821 z"
       id="path42194"
       sodipodi:nodetypes="cscsc" /></g><g
     inkscape:label="Capa 1"
     inkscape:groupmode="layer"
     id="layer1"
     style="display:inline" /><g
     inkscape:groupmode="layer"
     id="layer32"
     inkscape:label="Capa 12"
     style="display:inline"><path
       style="opacity:1;fill:#e6e6e6;fill-opacity:1;stroke:#e6e6e6;stroke-width:0;stroke-linecap:round;stroke-linejoin:round;stroke-dasharray:none;stroke-opacity:1"
       d="M 21.475811,61.096528 V 100.27966 L 62.820408,125.11577 109.03767,99.988262 108.92826,61.794384 85.175277,57.117932 63.421288,85.932597 Z"
       id="path70039"
       sodipodi:nodetypes="cccccccc" /></g><g
     inkscape:groupmode="layer"
     id="layer39"
     inkscape:label="Capa 18"
     style="display:inline"
     transform="translate(15.031296,-7.9786974)"><path
       style="opacity:1;fill:#dbdbdb;fill-opacity:1;stroke:none;stroke-width:0.629032;stroke-linecap:butt;stroke-linejoin:bevel;stroke-dasharray:none;stroke-opacity:1"
       d="M 6.4655135,69.54522 48.011976,94.394595 47.806568,133.10834 6.3760313,108.24413 Z"
       id="path79833"
       sodipodi:nodetypes="ccccc" /></g><g
     inkscape:groupmode="layer"
     id="layer42"
     inkscape:label="Capa 21"><path
       style="display:inline;fill:#ffffff;fill-opacity:1;stroke:none;stroke-width:0.333807;stroke-linecap:butt;stroke-linejoin:bevel;stroke-dasharray:none;stroke-opacity:1"
       d="M 30.184839,77.438102 52.655317,90.376699 52.544226,110.53422 30.136447,97.587854 Z"
       id="path79833-4"
       sodipodi:nodetypes="ccccc" /><path
       style="display:inline;fill:#eff1f1;fill-opacity:1;stroke:none;stroke-width:0.299369;stroke-linecap:butt;stroke-linejoin:bevel;stroke-dasharray:none;stroke-opacity:1"
       d="M 31.041454,79.322175 51.502893,90.750576 51.401737,108.55532 30.997389,97.12003 Z"
       id="path79833-4-0"
       sodipodi:nodetypes="ccccc" /><path
       style="opacity:1;fill:#ffffff;fill-opacity:1;stroke:#ffffff;stroke-width:1.26559;stroke-linecap:butt;stroke-linejoin:bevel;stroke-dasharray:none;stroke-opacity:1"
       d="M 41.138286,84.377405 V 103.31732"
       id="path80664" /><path
       style="fill:#3f3d56;fill-opacity:1;stroke:#ffffff;stroke-width:1.26559;stroke-linecap:butt;stroke-linejoin:bevel;stroke-dasharray:none;stroke-opacity:1"
       d="M 51.769081,100.61179 30.731202,88.204961"
       id="path80664-5"
       sodipodi:nodetypes="cc" /></g><g
     inkscape:groupmode="layer"
     id="layer33"
     inkscape:label="Capa 13"
     style="display:none"><path
       style="opacity:1;fill:#2c525e;fill-opacity:1;stroke:#d2d2d2;stroke-width:0;stroke-linecap:round;stroke-linejoin:round;stroke-dasharray:none;stroke-opacity:1"
       d="m 51.1904,154.24098 0.191365,31.09697 33.584729,19.71069 35.498386,-18.65818 0.19137,-31.19265 -17.79704,-4.4971 -18.179765,22.86823 z"
       id="path70053" /></g><g
     inkscape:groupmode="layer"
     id="layer34"
     inkscape:label="Capa 14"
     style="display:inline"><path
       style="opacity:1;fill:#3f3d56;fill-opacity:1;stroke:#d2d2d2;stroke-width:0;stroke-linecap:round;stroke-linejoin:round;stroke-dasharray:none;stroke-opacity:1"
       d="M 43.470176,30.955655 19.913369,60.614276 63.060788,86.414862 86.257035,57.117932 109.59254,61.972035 66.66642,36.019327 Z"
       id="path70384"
       sodipodi:nodetypes="ccccccc" /></g><g
     inkscape:groupmode="layer"
     id="layer17"
     inkscape:label="Capa 2"
     style="opacity:0.501493" /><g
     inkscape:groupmode="layer"
     id="layer37"
     inkscape:label="Capa 16"><path
       style="opacity:1;fill:#2c2a43;fill-opacity:1;stroke:none;stroke-width:0.629032;stroke-linecap:round;stroke-linejoin:round;stroke-dasharray:none;stroke-opacity:1"
       d="M 66.651906,35.963709 43.509478,30.98117 86.266807,57.099775 109.60335,61.990936 Z"
       id="path75835"
       sodipodi:nodetypes="ccccc" /></g><g
     inkscape:groupmode="layer"
     id="layer40"
     inkscape:label="Capa 19"><path
       style="opacity:1;fill:#4e4d64;fill-opacity:1;stroke:none;stroke-width:0.629032;stroke-linecap:butt;stroke-linejoin:bevel;stroke-dasharray:none;stroke-opacity:1"
       d="m 81.786435,114.67105 0.02622,-26.033798 c 0,0 4.294846,-15.122935 10.443274,-15.25699 3.279044,-0.07145 5.916725,7.886342 5.916725,7.886342 L 97.98283,105.96408 Z"
       id="path79841"
       sodipodi:nodetypes="ccaccc" /><ellipse
       style="opacity:1;fill:#2c2a43;fill-opacity:1;stroke:none;stroke-width:0.629032;stroke-linecap:butt;stroke-linejoin:bevel;stroke-dasharray:none;stroke-opacity:1"
       id="path80033"
       cx="95.991234"
       cy="92.141876"
       rx="0.98431075"
       ry="1.0771502" /></g><g
     inkscape:groupmode="layer"
     id="layer36"
     inkscape:label="Capa 15"
     transform="matrix(0.97795483,0,0,0.97795483,1.321499,3.1322212)"
     style="stroke-width:0.511271;stroke-dasharray:none"><path
       style="opacity:1;fill:#183360;fill-opacity:1;stroke:#2c2a43;stroke-width:0.643212;stroke-linecap:butt;stroke-linejoin:bevel;stroke-dasharray:none;stroke-opacity:1"
       d="M 43.715496,28.852568 20.04946,58.097596"
       id="path70624"
       sodipodi:nodetypes="cc" /><path
       style="fill:#000000;fill-opacity:1;stroke:#2c2a43;stroke-width:0.643212;stroke-linecap:round;stroke-linejoin:round;stroke-dasharray:none;stroke-opacity:1"
       d="M 48.520887,32.925073 25.404803,61.910498"
       id="path70624-9" /><path
       style="fill:#000000;fill-opacity:1;stroke:#2c2a43;stroke-width:0.643212;stroke-linecap:round;stroke-linejoin:round;stroke-dasharray:none;stroke-opacity:1"
       d="M 54.102382,36.045791 30.986299,65.031216"
       id="path70624-2" /><path
       style="fill:#000000;fill-opacity:1;stroke:#2c2a43;stroke-width:0.643212;stroke-linecap:round;stroke-linejoin:round;stroke-dasharray:none;stroke-opacity:1"
       d="M 59.409379,39.625437 36.293295,68.610861"
       id="path70624-3" /><path
       style="fill:#000000;fill-opacity:1;stroke:#2c2a43;stroke-width:0.643212;stroke-linecap:round;stroke-linejoin:round;stroke-dasharray:none;stroke-opacity:1"
       d="M 64.990875,42.929741 41.874792,71.915165"
       id="path70624-7" /><path
       style="fill:#000000;fill-opacity:1;stroke:#2c2a43;stroke-width:0.643212;stroke-linecap:round;stroke-linejoin:round;stroke-dasharray:none;stroke-opacity:1"
       d="M 70.846871,45.958678 47.730788,74.944102"
       id="path70624-38" /><path
       style="fill:#000000;fill-opacity:1;stroke:#2c2a43;stroke-width:0.643212;stroke-linecap:round;stroke-linejoin:round;stroke-dasharray:none;stroke-opacity:1"
       d="M 76.122468,49.435391 C 68.919514,58.740123 63.652319,65.124484 53.006386,78.420816"
       id="path70624-4"
       sodipodi:nodetypes="cc" /><path
       style="fill:#000000;fill-opacity:1;stroke:#2c2a43;stroke-width:0.643212;stroke-linecap:round;stroke-linejoin:round;stroke-dasharray:none;stroke-opacity:1"
       d="M 81.460863,52.56726 58.34478,81.552685"
       id="path70624-0" /><path
       style="fill:#000000;fill-opacity:1;stroke:#1d1b32;stroke-width:0.643212;stroke-linecap:round;stroke-linejoin:bevel;stroke-dasharray:none;stroke-opacity:1"
       d="M 67.827373,34.577225 43.796289,29.142916"
       id="path70624-6"
       sodipodi:nodetypes="cc" /><path
       style="fill:#000000;fill-opacity:1;stroke:#1d1b32;stroke-width:0.643212;stroke-linecap:round;stroke-linejoin:round;stroke-dasharray:none;stroke-opacity:1"
       d="M 72.585371,37.560272 48.554286,32.125963"
       id="path70624-6-5"
       sodipodi:nodetypes="cc" /><path
       style="fill:#000000;fill-opacity:1;stroke:#1d1b32;stroke-width:0.643212;stroke-linecap:round;stroke-linejoin:round;stroke-dasharray:none;stroke-opacity:1"
       d="M 78.07536,40.864564 54.044282,35.430253"
       id="path70624-6-3"
       sodipodi:nodetypes="cc" /><path
       style="fill:#000000;fill-opacity:1;stroke:#1d1b32;stroke-width:0.643212;stroke-linecap:round;stroke-linejoin:round;stroke-dasharray:none;stroke-opacity:1"
       d="M 83.290862,43.985268 59.25978,38.550958"
       id="path70624-6-0"
       sodipodi:nodetypes="cc" /><path
       style="fill:#000000;fill-opacity:1;stroke:#1d1b32;stroke-width:0.643212;stroke-linecap:round;stroke-linejoin:round;stroke-dasharray:none;stroke-opacity:1"
       d="M 88.87236,47.564926 64.841274,42.130616"
       id="path70624-6-1"
       sodipodi:nodetypes="cc" /><path
       style="fill:#000000;fill-opacity:1;stroke:#1d1b32;stroke-width:0.643212;stroke-linecap:round;stroke-linejoin:round;stroke-dasharray:none;stroke-opacity:1"
       d="M 94.362356,50.593875 70.331272,45.159566"
       id="path70624-6-7"
       sodipodi:nodetypes="cc" /><path
       style="fill:#000000;fill-opacity:1;stroke:#1d1b32;stroke-width:0.643212;stroke-linecap:round;stroke-linejoin:round;stroke-dasharray:none;stroke-opacity:1"
       d="M 99.760864,53.898167 75.729767,48.463857"
       id="path70624-6-51"
       sodipodi:nodetypes="cc" /><path
       style="fill:#000000;fill-opacity:1;stroke:#1d1b32;stroke-width:0.643212;stroke-linecap:round;stroke-linejoin:round;stroke-dasharray:none;stroke-opacity:1"
       d="M 105.34235,57.386031 81.311263,51.951722"
       id="path70624-6-18"
       sodipodi:nodetypes="cc" /></g><g
     inkscape:groupmode="layer"
     id="layer41"
     inkscape:label="Capa 20"><path
       style="opacity:1;fill:#b9b9b9;fill-opacity:1;stroke:none;stroke-width:1.25807;stroke-linecap:butt;stroke-linejoin:bevel;stroke-dasharray:none;stroke-opacity:1"
       d="m 21.463254,61.555293 0.02237,2.333828 41.542064,25.245932 0.03388,-2.704328 z"
       id="path80278"
       sodipodi:nodetypes="ccccc" /><path
       style="opacity:1;fill:#b9b9b9;fill-opacity:1;stroke:none;stroke-width:1.25807;stroke-linecap:butt;stroke-linejoin:bevel;stroke-dasharray:none;stroke-opacity:1"
       d="m 63.038077,86.426089 -0.02622,2.803945 24.014235,-29.781815 21.918988,4.689532 -0.0113,-2.300048 -22.68257,-4.753792 z"
       id="path80440"
       sodipodi:nodetypes="ccccccc" /></g><g
     inkscape:groupmode="layer"
     id="layer18"
     inkscape:label="Capa 3"
     style="display:inline" /><g
     inkscape:groupmode="layer"
     id="layer31"
     inkscape:label="Capa 11" /><g
     inkscape:groupmode="layer"
     id="layer19"
     inkscape:label="Capa 4"
     style="display:inline" /><g
     inkscape:groupmode="layer"
     id="layer22"
     inkscape:label="Capa 7" /><g
     inkscape:groupmode="layer"
     id="layer25"
     inkscape:label="Layer 3" /><g
     inkscape:groupmode="layer"
     id="layer27"
     inkscape:label="Layer 4"><path
       style="opacity:1;fill:#cce1f8;fill-opacity:0.458746;stroke:none;stroke-width:0.125807;stroke-linecap:round;stroke-linejoin:round;stroke-dasharray:none;stroke-opacity:1"
       d="M 187.36835,107.55718 155.86248,90.790783 c 0,0 -85.308226,48.697357 -85.074388,49.182847 0.233835,0.48546 31.137428,22.0636 31.137428,22.0636 z"
       id="path56395"
       sodipodi:nodetypes="ccscc" /></g><g
     inkscape:groupmode="layer"
     id="layer38"
     inkscape:label="Capa 17"
     style="fill:#3f3d56;fill-opacity:1;stroke:#3f3d56;stroke-opacity:1"
     transform="translate(5.6417911,3.2238806)"><path
       style="opacity:1;fill:#3f3d56;fill-opacity:1;stroke:#3f3d56;stroke-width:0.629032;stroke-linecap:butt;stroke-linejoin:bevel;stroke-dasharray:none;stroke-opacity:1"
       d="M 37.706148,28.014211 80.28948,53.97414"
       id="path77113" /></g></svg>
