<?xml version="1.0" encoding="UTF-8" standalone="no"?>
<!-- Created with Inkscape (http://www.inkscape.org/) -->

<svg
   version="1.1"
   id="svg256"
   width="293.65549"
   height="236.71323"
   viewBox="0 0 293.65549 236.71322"
   sodipodi:docname="3d-tool-box.svg"
   inkscape:version="1.2.2 (732a01da63, 2022-12-09)"
   inkscape:export-filename="cajaherramientas1.svg"
   inkscape:export-xdpi="326.9137"
   inkscape:export-ydpi="326.9137"
   xmlns:inkscape="http://www.inkscape.org/namespaces/inkscape"
   xmlns:sodipodi="http://sodipodi.sourceforge.net/DTD/sodipodi-0.dtd"
   xmlns="http://www.w3.org/2000/svg"
   xmlns:svg="http://www.w3.org/2000/svg">
  <defs
     id="defs260" />
  <sodipodi:namedview
     id="namedview258"
     pagecolor="#ffffff"
     bordercolor="#000000"
     borderopacity="0.25"
     inkscape:showpageshadow="2"
     inkscape:pageopacity="0.0"
     inkscape:pagecheckerboard="0"
     inkscape:deskcolor="#d1d1d1"
     showgrid="false"
     showguides="false"
     inkscape:zoom="3.1089385"
     inkscape:cx="158.25337"
     inkscape:cy="138.63253"
     inkscape:window-width="1920"
     inkscape:window-height="974"
     inkscape:window-x="-11"
     inkscape:window-y="-11"
     inkscape:window-maximized="1"
     inkscape:current-layer="layer6" />
  <g
     inkscape:groupmode="layer"
     id="layer6"
     inkscape:label="Layer 4"
     style="display:inline;opacity:0.518681;fill:#000300;fill-opacity:1"
     transform="translate(-21.88702,-0.46426961)">
    <ellipse
       style="display:inline;opacity:1;fill:#e5e4e5;fill-opacity:1;stroke:none;stroke-width:1.06271;stroke-dasharray:none;stroke-opacity:1;paint-order:stroke fill markers"
       id="path105643"
       cx="244.19292"
       cy="222.90176"
       rx="52.841206"
       ry="14.817703"
       transform="matrix(0.99325196,-0.11597645,0.09194679,0.99576392,0,0)" />
  </g>
  <g
     inkscape:groupmode="layer"
     id="layer4"
     inkscape:label="Layer 2"
     style="display:inline;stroke:#000010;stroke-opacity:0.316176"
     transform="translate(-21.88702,-0.46426961)">
    <path
       style="display:inline;opacity:1;fill:#a1dee2;fill-opacity:1;stroke:none;stroke-width:1.03498;stroke-opacity:0.316176;paint-order:stroke fill markers"
       d="m 22.25258,198.85447 c -0.942759,-0.23511 0.235689,-89.81223 0.235689,-89.81223 0,0 0.23569,-14.57686 5.185173,-29.153716 4.949482,-14.576854 14.141377,-19.749287 14.141377,-19.749287 0,0 4.989921,-4.828121 11.117853,0.344312 6.12793,5.172431 14.727132,15.419911 18.262477,29.291435 3.535345,13.871526 3.85191,11.508596 5.030359,35.019666 1.178448,23.51105 0.235689,93.80911 0.235689,93.80911 z"
       id="path93914"
       sodipodi:nodetypes="ccscssscc" />
    <path
       style="display:inline;opacity:1;fill:#9cd1da;fill-opacity:1;stroke:none;stroke-width:1.03498;stroke-opacity:0.316176;paint-order:stroke fill markers"
       d="m 76.127882,218.83887 15.319826,-1.41066 -1.414138,-85.34513 c 0,0 -0.235689,-5.87777 -1.885516,-19.27907 C 86.498226,99.402701 85.084088,92.584495 77.30633,75.421423 69.528572,58.258353 64.579089,58.493463 64.579089,58.493463 c 0,0 -16.193552,-0.539083 -17.372001,-0.539083 0,0 5.116139,0.06886 12.658208,11.354169 7.542068,11.285307 11.486698,24.479185 11.486698,24.479185 0,0 3.597439,13.138516 4.304508,23.718476 0.707069,10.57998 0.47138,17.39819 0.47138,17.39819 z"
       id="path93920"
       sodipodi:nodetypes="cccssccscscc" />
    <path
       style="display:inline;opacity:1;fill:#a1dee2;fill-opacity:1;stroke:none;stroke-width:1.03498;stroke-opacity:0.316176;paint-order:stroke fill markers"
       d="m 91.212019,217.42821 161.447401,-7.99375 0.52857,-57.63063 -163.068456,7.00144 z"
       id="path93922"
       sodipodi:nodetypes="ccccc" />
    <path
       style="display:inline;opacity:1;fill:#9cd1da;fill-opacity:1;stroke:none;stroke-width:1.03498;stroke-opacity:0.316176;paint-order:stroke fill markers"
       d="m 242.76045,57.317909 v 0 c 0,0 9.89897,11.285308 14.84845,24.921721 4.94948,13.636413 8.72053,38.55814 8.72053,38.55814 l 0.23568,87.93135 -13.90569,0.70534 0.23569,-86.28559 c 0,0 0.23569,-14.10663 -1.64984,-20.92484 -1.88551,-6.818208 -11.78446,-33.150592 -11.78446,-33.150592 z"
       id="path93924" />
    <path
       style="display:inline;opacity:1;fill:#88c4d3;fill-opacity:1;stroke:none;stroke-width:1.03498;stroke-opacity:0.316176;paint-order:stroke fill markers"
       d="m 221.31269,52.850809 c 0,0 -6.43031,1.233314 -9.19882,2.856772 -2.92221,1.713582 -5.43707,4.214078 -7.36357,6.996269 -2.19309,3.167212 -4.49976,10.63989 -4.49976,10.63989 l 18.153,-2.854745 z"
       id="path93928"
       sodipodi:nodetypes="caaccc" />
    <path
       style="opacity:1;fill:none;fill-opacity:1;stroke:#000010;stroke-width:1.03498;stroke-opacity:0.316176;paint-order:stroke fill markers"
       d="m 196.56528,86.706731 c 0,0 -2.59258,4.937321 -4.00672,11.755528 -1.41413,6.818211 -1.41413,6.818211 -1.41413,6.818211 l 0.47138,31.50482"
       id="path93930" />
    <path
       style="opacity:1;fill:#88c4d3;fill-opacity:1;stroke:none;stroke-width:1.03498;stroke-opacity:0.316176;paint-order:stroke fill markers"
       d="m 190.75392,136.21768 -100.611161,4.77081 -0.06875,17.85686 162.763451,-6.82506 0.15527,-40.31605 c 0,0 -1.48316,-13.384598 -5.01851,-22.553912 -3.53534,-9.169312 -8.51341,-20.07689 -8.51341,-20.07689 L 216.83459,68.132996 76.334978,74.37178 c 0,0 3.409124,5.459698 4.823262,10.397019 1.414137,4.937323 2.914058,6.834915 2.914058,6.834915 L 195.7606,86.443096 c 0,0 -2.64978,8.376382 -4.53529,15.429704 -1.88553,7.05331 -0.47139,34.34488 -0.47139,34.34488 z"
       id="path93932"
       sodipodi:nodetypes="cccccscccsccsc" />
    <path
       style="display:inline;opacity:1;fill:#9cd1da;fill-opacity:1;stroke:none;stroke-width:1.03498;stroke-opacity:0.316176;paint-order:stroke fill markers"
       id="path93940"
       sodipodi:type="arc"
       sodipodi:cx="37.23909"
       sodipodi:cy="128.20374"
       sodipodi:rx="2.5925858"
       sodipodi:ry="7.876204"
       sodipodi:start="0"
       sodipodi:end="6.2524001"
       sodipodi:arc-type="slice"
       d="m 39.831676,128.20374 a 2.5925858,7.876204 0 0 1 -2.572633,7.87597 2.5925858,7.876204 0 0 1 -2.612232,-7.75474 2.5925858,7.876204 0 0 1 2.532424,-7.99534 2.5925858,7.876204 0 0 1 2.651212,7.63167 l -2.591357,0.24244 z" />
    <path
       style="display:inline;opacity:1;fill:#9cd1da;fill-opacity:1;stroke:none;stroke-width:1.03498;stroke-opacity:1;paint-order:stroke fill markers"
       id="path93948"
       sodipodi:type="arc"
       sodipodi:cx="60.218834"
       sodipodi:cy="134.08153"
       sodipodi:rx="2.4747412"
       sodipodi:ry="7.1708727"
       sodipodi:start="0"
       sodipodi:end="6.2524001"
       sodipodi:arc-type="slice"
       d="m 62.693575,134.08153 a 2.4747412,7.1708727 0 0 1 -2.455695,7.17066 2.4747412,7.1708727 0 0 1 -2.493494,-7.06029 2.4747412,7.1708727 0 0 1 2.417314,-7.27933 2.4747412,7.1708727 0 0 1 2.530703,6.94824 l -2.473569,0.22072 z" />
  </g>
  <g
     inkscape:groupmode="layer"
     id="layer3"
     inkscape:label="Layer 1"
     style="display:inline"
     transform="translate(-21.88702,-0.46426961)">
    <path
       style="display:inline;opacity:1;fill:#bfbfb5;fill-opacity:1;stroke:none;stroke-width:1.03661;stroke-dasharray:none;stroke-opacity:1;paint-order:stroke fill markers"
       d="m 92.821408,57.678931 c 0,0 -3.023527,-5.298343 -8.915769,-2.241906 -5.892241,3.056438 -6.335025,10.872135 -6.335025,14.869014 0,3.996879 2.144895,13.510503 3.087652,14.686056 0.942759,1.175553 2.195146,6.084351 11.622731,12.197226 9.427583,6.112889 13.072393,6.915589 13.072393,6.915589 l 20.64214,53.2267 29.32915,-1.17568 -31.35181,-59.809666 c 0,0 9.89897,-10.579976 7.30638,-21.159951 -2.59259,-10.579976 -8.72051,-16.22263 -13.43431,-20.924841 -4.71379,-4.702211 -8.9562,-2.821326 -8.9562,-2.821326 l -6.59931,5.877763 7.77776,20.454621 -5.18518,5.877764 -10.841715,-3.526658 -8.553859,-18.006129 z"
       id="path93883"
       sodipodi:nodetypes="cssssccccssccccccc" />
    <path
       style="display:inline;opacity:1;fill:#b3b3ad;fill-opacity:1;stroke:none;stroke-width:1.03498;stroke-opacity:1;paint-order:stroke fill markers"
       d="m 110.06719,77.77253 -9.89897,-2.115996 -7.542063,-18.338625 -7.306379,4.702212 8.484827,17.868403 11.313095,4.23199 z"
       id="path93885" />
    <path
       style="display:inline;opacity:1;fill:#b3b3ad;fill-opacity:1;stroke:none;stroke-width:1.03498;stroke-opacity:1;paint-order:stroke fill markers"
       d="m 146.96099,156.44208 -27.9376,-56.33404 4.7138,-3.761776 31.86343,59.763316 z"
       id="path93889"
       sodipodi:nodetypes="ccccc" />
    <path
       style="display:inline;opacity:1;fill:#bfbfb5;fill-opacity:1;stroke:none;stroke-width:1.03498;stroke-opacity:1;paint-order:stroke fill markers"
       d="m 173.23201,42.270834 12.96293,4.70221 -1.94271,17.702155 c 0,0 0.29288,3.928018 -0.1785,7.454676 -0.47137,3.526659 -3.77103,47.022115 -3.77103,47.022115 l -16.96966,-1.88088 7.30638,-73.354502 z"
       id="path93891"
       sodipodi:nodetypes="cccscccc" />
    <path
       style="display:inline;opacity:1;fill:#b3b3ad;fill-opacity:1;stroke:none;stroke-width:1.03498;stroke-opacity:1;paint-order:stroke fill markers"
       d="m 183.97611,73.276905 c -1.37405,-0.969566 -2.79501,-0.75052 -4.14479,-1.61725 -1.41413,-0.940443 -3.29966,-4.467101 -4.94948,-12.46086 -1.64983,-7.99376 -0.94276,-16.45774 -0.94276,-16.45774 l 12.02017,4.4671 z"
       id="path93893"
       sodipodi:nodetypes="ccsccc" />
    <path
       style="display:inline;opacity:1;fill:#fea15d;fill-opacity:1;stroke:none;stroke-width:1.03498;stroke-opacity:1;paint-order:stroke fill markers"
       d="m 163.73539,116.91009 c 0,0 -7.21192,2.07571 -6.5993,4.70221 1.10462,4.73596 14.42935,2.36782 14.42935,2.36782 0,0 10.57292,5.63274 13.14633,2.03042 1.52307,-2.13201 1.97823,-3.88769 -3.67831,-6.94413 -5.65656,-3.05643 -17.29807,-2.15632 -17.29807,-2.15632 z"
       id="path93895"
       sodipodi:nodetypes="cacasc" />
    <path
       style="display:inline;opacity:1;fill:#f18b44;fill-opacity:1;stroke:none;stroke-width:1.03498;stroke-opacity:1;paint-order:stroke fill markers"
       d="m 182.89528,126.44041 0.86235,28.46426 -27.7714,1.16457 3.81147,-32.45015 c 0,0 4.47811,-0.94044 11.54879,-0.70533 7.0707,0.23511 11.54879,3.52665 11.54879,3.52665 z"
       id="path93897"
       sodipodi:nodetypes="ccccsc" />
    <path
       style="display:inline;opacity:1;fill:#bfbfb5;fill-opacity:1;stroke:none;stroke-width:1.03498;stroke-opacity:1;paint-order:stroke fill markers"
       d="M 226.02649,35.217517 190.42038,154.63561 208.1831,153.99359 237.93719,37.625671 Z"
       id="path93899"
       sodipodi:nodetypes="ccccc" />
    <path
       style="display:inline;opacity:1;fill:#b3b3ad;fill-opacity:1;stroke:none;stroke-width:1.03498;stroke-opacity:1;paint-order:stroke fill markers"
       d="m 207.37258,153.99275 12.6526,-0.55063 27.21338,-112.346839 -9.89897,-4.702212 z"
       id="path93901"
       sodipodi:nodetypes="ccccc" />
    <path
       style="display:inline;opacity:1;fill:#fea15d;fill-opacity:1;stroke:none;stroke-width:1.03498;stroke-opacity:1;paint-order:stroke fill markers"
       d="m 238.21044,37.729976 6.35913,-0.705331 13.87017,4.053927 13.78192,1.427373 6.835,-23.981279 -15.08415,-7.758649 -12.02016,-0.705331 -12.25586,-6.3479857 c 0,0 -15.55552,-7.7586486 -28.75414,0.7053318 -13.19862,8.4639809 -20.0283,25.1087509 -20.0283,25.1087509 l 14.70506,4.555519 5.26606,-4.604824 c 0,0 5.47805,-3.899495 8.54201,-2.723942 3.06396,1.175554 6.64466,8.727615 6.64466,8.727615 7.97581,1.358408 4.0944,0.682815 12.1386,2.248825 z"
       id="path93903"
       sodipodi:nodetypes="ccccccccscccscc" />
    <path
       style="display:inline;opacity:1;fill:#f18b44;fill-opacity:1;stroke:none;stroke-width:1.03661;stroke-dasharray:none;stroke-opacity:1;paint-order:stroke fill markers"
       d="m 218.9558,26.048205 c 0,0 -5.42086,-3.99688 -9.89896,-5.172433 -4.47811,-1.175553 -9.19189,2.115996 -9.19189,2.115996 l -8.95621,6.583096 14.61275,4.4671 c 0,0 4.81698,-3.947137 7.51348,-5.476406 1.86505,-1.057732 5.92083,-2.517353 5.92083,-2.517353 z"
       id="path93905"
       sodipodi:nodetypes="cscccac" />
    <path
       style="display:inline;opacity:1;fill:#f18b44;fill-opacity:1;stroke:none;stroke-width:1.03498;stroke-opacity:1;paint-order:stroke fill markers"
       d="m 251.71665,10.060686 -1.64982,4.819766 c 0,0 -2.87132,-4.614388 -8.9562,-8.8166461 l -6.24771,-4.148866 0.5208,0.077928 c 1.69686,0.2539036 6.31818,1.9970946 9.26225,3.4831609 2.50821,1.266058 7.07068,4.5846572 7.07068,4.5846572 z"
       id="path93907"
       sodipodi:nodetypes="ccscsac" />
    <path
       style="display:inline;opacity:1;fill:#fea15d;fill-opacity:1;stroke:none;stroke-width:1.03498;stroke-opacity:1;paint-order:stroke fill markers"
       d="m 272.45735,42.976165 -16.15067,-4.74255 7.53962,-27.427258 c 0.23569,-0.9404432 15.44605,7.95342 15.44605,7.95342 z"
       id="path93909"
       sodipodi:nodetypes="ccccc" />
    <path
       style="opacity:1;fill:#f18b44;fill-opacity:1;stroke:none;stroke-width:1.03498;stroke-opacity:1;paint-order:stroke fill markers"
       d="m 241.0465,35.077345 c 1.42092,-0.880159 4.4875,-2.239458 4.4875,-2.239458 l -0.86189,3.804554 11.76079,1.576913 c 0,0 -3.62991,-0.03901 -5.30596,0.553859 -1.45247,0.513768 -3.87408,2.516839 -3.87408,2.516839 l -9.80135,-3.500581 c 0,0 2.31861,-1.921498 3.59499,-2.712126 z"
       id="path93911"
       sodipodi:nodetypes="acccacca" />
    <path
       style="opacity:1;fill:#f18b44;fill-opacity:1;stroke:none;stroke-width:1.03661;stroke-dasharray:none;stroke-opacity:1;paint-order:stroke fill markers"
       d="m 256.23765,38.219352 -11.59659,-1.320617 12.96538,5.592947 14.61522,0.249373 z"
       id="path97192"
       sodipodi:nodetypes="ccccc" />
  </g>
  <g
     inkscape:groupmode="layer"
     id="layer5"
     inkscape:label="Layer 3"
     style="display:inline"
     transform="translate(-21.88702,-0.46426961)">
    <path
       style="opacity:1;fill:#fea15d;fill-opacity:1;stroke:none;stroke-width:1.03498;stroke-opacity:1;paint-order:stroke fill markers"
       d="m 74.36021,207.96501 c -0.942759,0.23511 -7.895603,3.29155 -7.895603,3.29155 l -4.006724,11.16775 4.30491,6.47593 8.186641,-3.06683 4.006724,-10.46242 z"
       id="path93951"
       sodipodi:nodetypes="ccccccc" />
    <path
       style="display:inline;opacity:1;fill:#f18b44;fill-opacity:1;stroke:none;stroke-width:1.03498;stroke-opacity:1;paint-order:stroke fill markers"
       d="m 74.360209,208.02379 4.595949,-1.058 4.595948,8.81664 -4.183491,12.57842 -8.072371,3.17399 -4.537026,-2.64498 7.836681,-3.174 4.183492,-10.10976 z"
       id="path93953"
       sodipodi:nodetypes="ccccccccc" />
    <path
       style="opacity:1;fill:#bfbfb5;fill-opacity:1;stroke:none;stroke-width:1.03498;stroke-opacity:1;paint-order:stroke fill markers"
       d="m 83.964563,227.36164 19.718277,6.13427 c 0,0 2.65547,-2.99651 3.3019,-4.83771 0.62543,-1.78139 0.43094,-5.64612 0.43094,-5.64612 l -20.770148,-5.23119 c 0,0 -0.418384,3.40871 -0.883836,5.05488 -0.441578,1.56173 -1.797133,4.52587 -1.797133,4.52587 z"
       id="path93965"
       sodipodi:nodetypes="ccaccac" />
    <path
       style="opacity:1;fill:#fea15d;fill-opacity:1;stroke:none;stroke-width:1.03498;stroke-opacity:1;paint-order:stroke fill markers"
       d="m 121.1446,208.96423 -4.36026,9.75709 5.7744,9.16931 10.72387,-0.35267 3.4175,-11.2853 -5.5387,-7.99376 z"
       id="path93967" />
    <path
       style="display:inline;opacity:1;fill:#f18b44;fill-opacity:1;stroke:none;stroke-width:1.03498;stroke-opacity:1;paint-order:stroke fill markers"
       d="m 122.55874,227.89064 -3.44696,-0.20573 -6.09847,-8.96359 5.09678,-11.57921 9.33921,-0.61715 c 0,0 3.09343,1.73394 3.80048,1.73394 l -10.07572,0.73472 -4.3308,9.7277 z"
       id="path93969"
       sodipodi:nodetypes="ccccccccc" />
    <path
       style="display:inline;opacity:1;fill:#f18b44;fill-opacity:1;stroke:none;stroke-width:0.348767;stroke-opacity:1;paint-order:stroke fill markers"
       d="m 124.55644,214.94563 -1.11859,3.30147 1.80147,3.26195 4.33889,-0.1119 1.13473,-3.58064 -1.3636,-3.3004 z"
       id="path93977"
       sodipodi:nodetypes="ccccccc" />
    <path
       style="display:inline;opacity:1;fill:#fea15d;fill-opacity:1;stroke:none;stroke-width:1.03498;stroke-opacity:1;paint-order:stroke fill markers"
       d="m 128.68666,227.53796 v 3.87933 l 6.36362,2.3511 h 11.78449 l 5.89224,-2.3511 -0.23569,-7.52354 -6.59931,-2.82133 -10.69442,0.0882 -1.91498,6.14228 z"
       id="path93979"
       sodipodi:nodetypes="cccccccccc" />
    <path
       style="display:inline;opacity:1;fill:#f18b44;fill-opacity:1;stroke:none;stroke-width:1.03498;stroke-opacity:1;paint-order:stroke fill markers"
       d="m 152.727,223.86436 c -0.82491,0.35267 -6.36361,0.73472 -6.36361,0.73472 l -12.52101,0.23511 1.35521,-3.67361 10.69442,-0.0882 c 0,0 6.48145,3.02704 6.83499,2.79194 z"
       id="path93981"
       sodipodi:nodetypes="cccccc" />
    <path
       style="display:inline;opacity:1;fill:#f18b44;fill-opacity:1;stroke:none;stroke-width:1.03499;stroke-opacity:1;paint-order:stroke fill markers"
       id="path93987"
       sodipodi:type="arc"
       sodipodi:cx="122.71429"
       sodipodi:cy="193.92323"
       sodipodi:rx="2.0030596"
       sodipodi:ry="3.703553"
       sodipodi:start="0"
       sodipodi:end="6.2797716"
       sodipodi:arc-type="slice"
       d="m 124.71735,193.92323 a 2.0030596,3.703553 0 0 1 -2.00135,3.70355 2.0030596,3.703553 0 0 1 -2.00477,-3.69723 2.0030596,3.703553 0 0 1 1.99793,-3.70986 2.0030596,3.703553 0 0 1 2.00817,3.6909 l -2.00304,0.0126 z"
       transform="matrix(0.96891537,0.24739241,-0.24853736,0.96862231,0,0)"
       inkscape:transform-center-x="0.83102517"
       inkscape:transform-center-y="-1.9933911" />
  </g>
</svg>
