<?xml version="1.0" encoding="UTF-8" standalone="no"?>
<!-- Created with Inkscape (http://www.inkscape.org/) -->

<svg
   version="1.1"
   id="svg256"
   width="730"
   height="730"
   viewBox="0 0 720 719.99998"
   sodipodi:docname="cajaherramientasf.svg"
   inkscape:version="1.2.2 (732a01da63, 2022-12-09)"
   inkscape:export-filename="cajaherramientas1.svg"
   inkscape:export-xdpi="326.9137"
   inkscape:export-ydpi="326.9137"
   xmlns:inkscape="http://www.inkscape.org/namespaces/inkscape"
   xmlns:sodipodi="http://sodipodi.sourceforge.net/DTD/sodipodi-0.dtd"
   xmlns="http://www.w3.org/2000/svg"
   xmlns:svg="http://www.w3.org/2000/svg">
  <defs
     id="defs260" />
  <sodipodi:namedview
     id="namedview258"
     pagecolor="#ffffff"
     bordercolor="#000000"
     borderopacity="0.25"
     inkscape:showpageshadow="2"
     inkscape:pageopacity="0.0"
     inkscape:pagecheckerboard="0"
     inkscape:deskcolor="#ffffff"
     showgrid="false"
     showguides="false"
     inkscape:zoom="1.0305556"
     inkscape:cx="360"
     inkscape:cy="282.37197"
     inkscape:window-width="1920"
     inkscape:window-height="974"
     inkscape:window-x="-11"
     inkscape:window-y="-11"
     inkscape:window-maximized="1"
     inkscape:current-layer="layer6" />
  <g
     inkscape:groupmode="layer"
     id="layer6"
     inkscape:label="Layer 4"
     style="display:inline;opacity:0.518681;fill:#000300;fill-opacity:1"
     transform="translate(-21.88702,-0.46426961)">
    <ellipse
       style="opacity:1;fill:#ffffff;fill-opacity:1;stroke:none;stroke-width:1.83973;paint-order:stroke fill markers"
       id="path661"
       cx="381.98047"
       cy="361.05368"
       rx="358.49054"
       ry="358.96497" />
    <ellipse
       style="display:inline;opacity:1;fill:#e5e4e5;fill-opacity:1;stroke:none;stroke-width:1.79132;stroke-dasharray:none;stroke-opacity:1;paint-order:stroke fill markers"
       id="path105643"
       cx="497.41287"
       cy="532.68439"
       rx="87.372749"
       ry="25.462376"
       transform="matrix(0.99270536,-0.12056564,0.08842657,0.9960827,0,0)" />
  </g>
  <g
     inkscape:groupmode="layer"
     id="layer4"
     inkscape:label="Layer 2"
     style="display:inline;stroke:#000010;stroke-opacity:0.316176"
     transform="translate(-21.88702,-0.46426961)">
    <path
       style="display:inline;opacity:1;fill:#a1dee2;fill-opacity:1;stroke:none;stroke-width:1.74438;stroke-opacity:0.316176;paint-order:stroke fill markers"
       d="m 142.96553,479.5954 c -1.55798,-0.40413 0.38951,-154.38051 0.38951,-154.38051 0,0 0.3895,-25.05652 8.56893,-50.11306 8.17946,-25.05651 23.36986,-33.94754 23.36986,-33.94754 0,0 8.24628,-8.29918 18.37321,0.59184 10.12693,8.89103 24.33786,26.50568 30.18034,50.34978 5.84244,23.84413 6.36561,19.78243 8.31308,60.1962 1.94749,40.41374 0.3895,161.25085 0.3895,161.25085 z"
       id="path93914"
       sodipodi:nodetypes="ccscssscc" />
    <path
       style="display:inline;opacity:1;fill:#9cd1da;fill-opacity:1;stroke:none;stroke-width:1.74438;stroke-opacity:0.316176;paint-order:stroke fill markers"
       d="m 231.99912,513.9471 25.31733,-2.42482 -2.33698,-146.70191 c 0,0 -0.38948,-10.10345 -3.11598,-33.13928 -2.72647,-23.03584 -5.06348,-34.75583 -17.91688,-64.25788 -12.8534,-29.50203 -21.03286,-29.09789 -21.03286,-29.09789 0,0 -26.76125,-0.92664 -28.70874,-0.92664 0,0 8.45486,0.11842 20.91879,19.51697 12.46392,19.39861 18.98277,42.07788 18.98277,42.07788 0,0 5.94508,22.58413 7.11357,40.77029 1.16849,18.1862 0.77898,29.90619 0.77898,29.90619 z"
       id="path93920"
       sodipodi:nodetypes="cccssccscscc" />
    <path
       style="display:inline;opacity:1;fill:#a1dee2;fill-opacity:1;stroke:none;stroke-width:1.74438;stroke-opacity:0.316176;paint-order:stroke fill markers"
       d="m 256.92697,511.52228 266.80578,-13.74066 0.87351,-99.06276 -269.48472,12.03497 z"
       id="path93922"
       sodipodi:nodetypes="ccccc" />
    <path
       style="display:inline;opacity:1;fill:#9cd1da;fill-opacity:1;stroke:none;stroke-width:1.74438;stroke-opacity:0.316176;paint-order:stroke fill markers"
       d="m 507.37385,236.30464 v 0 c 0,0 16.3589,19.3986 24.53835,42.83857 8.17944,23.43998 14.41142,66.27856 14.41142,66.27856 l 0.38948,151.14742 -22.98035,1.21243 0.38951,-148.31847 c 0,0 0.38948,-24.24826 -2.72651,-35.96825 -3.11597,-11.71999 -19.47483,-56.98338 -19.47483,-56.98338 z"
       id="path93924" />
    <path
       style="display:inline;opacity:1;fill:#88c4d3;fill-opacity:1;stroke:none;stroke-width:1.74438;stroke-opacity:0.316176;paint-order:stroke fill markers"
       d="m 471.92958,228.62602 c 0,0 -10.62665,2.11996 -15.20185,4.91059 -4.82921,2.9455 -8.98522,7.24367 -12.16893,12.02606 -3.62428,5.44419 -7.43625,18.28917 -7.43625,18.28917 l 29.99941,-4.9071 z"
       id="path93928"
       sodipodi:nodetypes="caaccc" />
    <path
       style="opacity:1;fill:none;fill-opacity:1;stroke:#000010;stroke-width:1.74438;stroke-opacity:0.316176;paint-order:stroke fill markers"
       d="m 431.03235,286.82183 c 0,0 -4.28448,8.48687 -6.62146,20.20688 -2.33697,11.71999 -2.33697,11.71999 -2.33697,11.71999 l 0.77899,54.15442"
       id="path93930" />
    <path
       style="opacity:1;fill:#88c4d3;fill-opacity:1;stroke:none;stroke-width:1.74438;stroke-opacity:0.316176;paint-order:stroke fill markers"
       d="m 421.42856,371.92744 -166.26863,8.20067 -0.11362,30.6946 268.98068,-11.73176 0.25659,-69.30028 c 0,0 -2.45105,-23.00712 -8.29353,-38.76849 -5.84246,-15.76134 -14.06913,-34.51066 -14.06913,-34.51066 l -37.39179,-1.61656 -232.18777,10.72401 c 0,0 5.63388,9.38481 7.97088,17.87171 2.33697,8.48687 4.81571,11.74869 4.81571,11.74869 l 184.57458,-8.87071 c 0,0 -4.37897,14.39837 -7.49494,26.5225 -3.116,12.12412 -0.77903,59.03628 -0.77903,59.03628 z"
       id="path93932"
       sodipodi:nodetypes="cccccscccsccsc" />
    <path
       style="display:inline;opacity:1;fill:#9cd1da;fill-opacity:1;stroke:none;stroke-width:1.74438;stroke-opacity:0.316176;paint-order:stroke fill markers"
       id="path93940"
       sodipodi:type="arc"
       sodipodi:cx="167.73203"
       sodipodi:cy="358.15207"
       sodipodi:rx="4.284472"
       sodipodi:ry="13.538607"
       sodipodi:start="0"
       sodipodi:end="6.2524001"
       sodipodi:arc-type="slice"
       d="m 172.0165,358.15207 a 4.284472,13.538607 0 0 1 -4.2515,13.5382 4.284472,13.538607 0 0 1 -4.31694,-13.32981 4.284472,13.538607 0 0 1 4.18505,-13.74339 4.284472,13.538607 0 0 1 4.38136,13.11828 l -4.28244,0.41672 z" />
    <path
       style="display:inline;opacity:1;fill:#9cd1da;fill-opacity:1;stroke:none;stroke-width:1.74438;stroke-opacity:1;paint-order:stroke fill markers"
       id="path93948"
       sodipodi:type="arc"
       sodipodi:cx="205.70804"
       sodipodi:cy="368.25552"
       sodipodi:rx="4.0897236"
       sodipodi:ry="12.326195"
       sodipodi:start="0"
       sodipodi:end="6.2524001"
       sodipodi:arc-type="slice"
       d="m 209.79776,368.25552 a 4.0897236,12.326195 0 0 1 -4.05825,12.32583 4.0897236,12.326195 0 0 1 -4.12071,-12.1361 4.0897236,12.326195 0 0 1 3.99482,-12.51264 4.0897236,12.326195 0 0 1 4.1822,11.94351 l -4.08778,0.3794 z" />
  </g>
  <g
     inkscape:groupmode="layer"
     id="layer3"
     inkscape:label="Layer 1"
     style="display:inline"
     transform="translate(-21.88702,-0.46426961)">
    <path
       style="display:inline;opacity:1;fill:#bfbfb5;fill-opacity:1;stroke:none;stroke-width:1.74712;stroke-dasharray:none;stroke-opacity:1;paint-order:stroke fill markers"
       d="m 259.58661,236.92521 c 0,0 -4.99662,-9.10747 -14.73407,-3.85368 -9.73743,5.25379 -10.46918,18.6884 -10.46918,25.55874 0,6.87034 3.54465,23.22354 5.10261,25.24421 1.558,2.0207 3.62767,10.45856 19.20758,20.96612 15.57989,10.50762 21.60326,11.8874 21.60326,11.8874 l 34.11292,91.49272 48.46895,-2.02091 -51.81156,-102.80837 c 0,0 16.35889,-18.18616 12.07442,-36.37235 -4.28449,-18.18619 -14.41141,-27.8855 -22.20137,-35.96825 -7.78993,-8.08275 -14.80088,-4.84964 -14.80088,-4.84964 l -10.90593,10.10344 12.85342,35.15996 -8.56897,10.10342 -17.91688,-6.06204 -14.136,-30.9512 z"
       id="path93883"
       sodipodi:nodetypes="cssssccccssccccccc" />
    <path
       style="display:inline;opacity:1;fill:#b3b3ad;fill-opacity:1;stroke:none;stroke-width:1.74438;stroke-opacity:1;paint-order:stroke fill markers"
       d="m 288.08678,271.4646 -16.35891,-3.63725 -12.46392,-31.52271 -12.07442,8.08275 14.02191,30.71444 18.69587,7.27447 z"
       id="path93885" />
    <path
       style="display:inline;opacity:1;fill:#b3b3ad;fill-opacity:1;stroke:none;stroke-width:1.74438;stroke-opacity:1;paint-order:stroke fill markers"
       d="m 349.05696,406.69168 -46.1693,-96.83401 7.78997,-6.46623 52.65707,102.7287 z"
       id="path93889"
       sodipodi:nodetypes="ccccc" />
    <path
       style="display:inline;opacity:1;fill:#bfbfb5;fill-opacity:1;stroke:none;stroke-width:1.74438;stroke-opacity:1;paint-order:stroke fill markers"
       d="m 392.4721,210.43983 21.42237,8.08274 -3.21051,30.4287 c 0,0 0.48401,6.75197 -0.29498,12.81402 -0.77899,6.06206 -6.23196,80.82752 -6.23196,80.82752 l -28.04382,-3.2331 12.07442,-126.0909 z"
       id="path93891"
       sodipodi:nodetypes="cccscccc" />
    <path
       style="display:inline;opacity:1;fill:#b3b3ad;fill-opacity:1;stroke:none;stroke-width:1.74438;stroke-opacity:1;paint-order:stroke fill markers"
       d="m 410.22765,263.73696 c -2.27075,-1.66661 -4.61899,-1.29011 -6.84962,-2.77995 -2.33696,-1.61654 -5.45297,-7.6786 -8.17945,-21.41928 -2.72648,-13.74067 -1.55799,-28.28963 -1.55799,-28.28963 l 19.86437,7.67862 z"
       id="path93893"
       sodipodi:nodetypes="ccsccc" />
    <path
       style="display:inline;opacity:1;fill:#fea15d;fill-opacity:1;stroke:none;stroke-width:1.74438;stroke-opacity:1;paint-order:stroke fill markers"
       d="m 376.77811,338.73914 c 0,0 -11.91831,3.56799 -10.90591,8.08275 1.82547,8.14075 23.84574,4.0701 23.84574,4.0701 0,0 17.47267,9.68226 21.72546,3.49015 2.517,-3.66478 3.26919,-6.68266 -6.07873,-11.93644 -9.34796,-5.25378 -28.58656,-3.70656 -28.58656,-3.70656 z"
       id="path93895"
       sodipodi:nodetypes="cacasc" />
    <path
       style="display:inline;opacity:1;fill:#f18b44;fill-opacity:1;stroke:none;stroke-width:1.74438;stroke-opacity:1;paint-order:stroke fill markers"
       d="m 408.44148,355.12104 1.42512,48.92794 -45.89465,2.00181 6.29879,-55.77939 c 0,0 7.40045,-1.61653 19.08537,-1.2124 11.68496,0.40415 19.08537,6.06204 19.08537,6.06204 z"
       id="path93897"
       sodipodi:nodetypes="ccccsc" />
    <path
       style="display:inline;opacity:1;fill:#bfbfb5;fill-opacity:1;stroke:none;stroke-width:1.74438;stroke-opacity:1;paint-order:stroke fill markers"
       d="M 479.71954,198.31573 420.87736,403.58649 450.23179,402.48291 499.403,202.45515 Z"
       id="path93899"
       sodipodi:nodetypes="ccccc" />
    <path
       style="display:inline;opacity:1;fill:#b3b3ad;fill-opacity:1;stroke:none;stroke-width:1.74438;stroke-opacity:1;paint-order:stroke fill markers"
       d="m 448.89234,402.48146 20.90951,-0.94648 44.97246,-193.11582 -16.3589,-8.08275 z"
       id="path93901"
       sodipodi:nodetypes="ccccc" />
    <path
       style="display:inline;opacity:1;fill:#fea15d;fill-opacity:1;stroke:none;stroke-width:1.74438;stroke-opacity:1;paint-order:stroke fill markers"
       d="m 499.85457,202.63444 10.50901,-1.21242 22.92166,6.96841 22.77581,2.45355 11.29543,-41.22202 -24.92787,-13.33655 -19.86436,-1.2124 -20.25386,-10.91171 c 0,0 -25.70684,-13.33655 -47.51871,1.21241 -21.81184,14.54893 -33.09849,43.16006 -33.09849,43.16006 l 24.30139,7.8306 8.70262,-7.91535 c 0,0 9.05294,-6.70296 14.1164,-4.68225 5.06347,2.02068 10.98088,15.0021 10.98088,15.0021 13.18072,2.33501 6.76634,1.17372 20.06009,3.86557 z"
       id="path93903"
       sodipodi:nodetypes="ccccccccscccscc" />
    <path
       style="display:inline;opacity:1;fill:#f18b44;fill-opacity:1;stroke:none;stroke-width:1.74712;stroke-dasharray:none;stroke-opacity:1;paint-order:stroke fill markers"
       d="m 468.03461,182.55434 c 0,0 -8.95844,-6.87034 -16.35889,-8.89102 -7.40046,-2.02067 -15.19038,3.63724 -15.19038,3.63724 l -14.80093,11.31584 24.14883,7.67862 c 0,0 7.96048,-6.78481 12.41668,-9.41352 3.08216,-1.81816 9.78469,-4.32716 9.78469,-4.32716 z"
       id="path93905"
       sodipodi:nodetypes="cscccac" />
    <path
       style="display:inline;opacity:1;fill:#f18b44;fill-opacity:1;stroke:none;stroke-width:1.74438;stroke-opacity:1;paint-order:stroke fill markers"
       d="m 522.17475,155.07301 -2.72648,8.28481 c 0,0 -4.7451,-7.9318 -14.8009,-15.15515 l -10.32487,-7.1316 0.86067,0.13391 c 2.80421,0.43644 10.44134,3.43284 15.30666,5.98729 4.14504,2.17627 11.68492,7.88069 11.68492,7.88069 z"
       id="path93907"
       sodipodi:nodetypes="ccscsac" />
    <path
       style="display:inline;opacity:1;fill:#fea15d;fill-opacity:1;stroke:none;stroke-width:1.74438;stroke-opacity:1;paint-order:stroke fill markers"
       d="m 556.45055,211.65223 -26.69039,-8.15207 12.45988,-47.1454 c 0.3895,-1.61657 25.52593,13.67133 25.52593,13.67133 z"
       id="path93909"
       sodipodi:nodetypes="ccccc" />
    <path
       style="opacity:1;fill:#f18b44;fill-opacity:1;stroke:none;stroke-width:1.74438;stroke-opacity:1;paint-order:stroke fill markers"
       d="m 504.54141,198.07476 c 2.34818,-1.51291 7.41598,-3.84944 7.41598,-3.84944 l -1.42436,6.53973 19.43573,2.71058 c 0,0 -5.99875,-0.067 -8.76855,0.95205 -2.40034,0.88313 -6.40227,4.32626 -6.40227,4.32626 l -16.19757,-6.01722 c 0,0 3.83171,-3.30293 5.94104,-4.66196 z"
       id="path93911"
       sodipodi:nodetypes="acccacca" />
    <path
       style="opacity:1;fill:#f18b44;fill-opacity:1;stroke:none;stroke-width:1.74712;stroke-dasharray:none;stroke-opacity:1;paint-order:stroke fill markers"
       d="m 529.64609,203.47563 -19.16437,-2.27003 21.42641,9.61386 24.15292,0.42864 z"
       id="path97192"
       sodipodi:nodetypes="ccccc" />
  </g>
  <g
     inkscape:groupmode="layer"
     id="layer5"
     inkscape:label="Layer 3"
     style="display:inline"
     transform="translate(-21.88702,-0.46426961)">
    <path
       style="opacity:1;fill:#fea15d;fill-opacity:1;stroke:none;stroke-width:1.74438;stroke-opacity:1;paint-order:stroke fill markers"
       d="m 229.0779,495.25574 c -1.558,0.40415 -13.04818,5.65792 -13.04818,5.65792 l -6.62145,19.19654 7.11424,11.13163 13.52914,-5.27165 6.62144,-17.98411 z"
       id="path93951"
       sodipodi:nodetypes="ccccccc" />
    <path
       style="display:inline;opacity:1;fill:#f18b44;fill-opacity:1;stroke:none;stroke-width:1.74438;stroke-opacity:1;paint-order:stroke fill markers"
       d="m 229.0779,495.35679 7.59519,-1.81863 7.59519,15.15513 -6.91356,21.62138 -13.34029,5.45585 -7.49783,-4.54652 12.95079,-5.45586 6.91359,-17.37795 z"
       id="path93953"
       sodipodi:nodetypes="ccccccccc" />
    <path
       style="opacity:1;fill:#bfbfb5;fill-opacity:1;stroke:none;stroke-width:1.74438;stroke-opacity:1;paint-order:stroke fill markers"
       d="m 244.94992,528.5971 32.58617,10.54434 c 0,0 4.38839,-5.15076 5.45667,-8.31565 1.03357,-3.06208 0.71216,-9.70526 0.71216,-9.70526 l -34.32446,-8.99202 c 0,0 -0.69144,5.85932 -1.46063,8.68895 -0.72974,2.6845 -2.96991,7.77964 -2.96991,7.77964 z"
       id="path93965"
       sodipodi:nodetypes="ccaccac" />
    <path
       style="opacity:1;fill:#fea15d;fill-opacity:1;stroke:none;stroke-width:1.74438;stroke-opacity:1;paint-order:stroke fill markers"
       d="m 306.39315,496.97332 -7.20571,16.77171 9.54269,15.76136 17.72212,-0.60621 5.64773,-19.39859 -9.15319,-13.74068 z"
       id="path93967" />
    <path
       style="display:inline;opacity:1;fill:#f18b44;fill-opacity:1;stroke:none;stroke-width:1.74438;stroke-opacity:1;paint-order:stroke fill markers"
       d="m 308.73013,529.50641 -5.69639,-0.35364 -10.07825,-15.40774 8.42287,-19.90378 15.43386,-1.06085 c 0,0 5.11215,2.98051 6.28061,2.98051 l -16.651,1.26293 -7.15702,16.72119 z"
       id="path93969"
       sodipodi:nodetypes="ccccccccc" />
    <path
       style="display:inline;opacity:1;fill:#f18b44;fill-opacity:1;stroke:none;stroke-width:0.587824;stroke-opacity:1;paint-order:stroke fill markers"
       d="m 312.03151,507.2549 -1.84856,5.67498 2.97708,5.60706 7.17039,-0.19236 1.87523,-6.15485 -2.25346,-5.67315 z"
       id="path93977"
       sodipodi:nodetypes="ccccccc" />
    <path
       style="display:inline;opacity:1;fill:#fea15d;fill-opacity:1;stroke:none;stroke-width:1.74438;stroke-opacity:1;paint-order:stroke fill markers"
       d="m 318.85705,528.90018 v 6.66827 l 10.51644,4.04138 h 19.47488 l 9.73744,-4.04138 -0.38949,-12.9324 -10.90594,-4.84965 -17.67345,0.15164 -3.16468,10.55813 z"
       id="path93979"
       sodipodi:nodetypes="cccccccccc" />
    <path
       style="display:inline;opacity:1;fill:#f18b44;fill-opacity:1;stroke:none;stroke-width:1.74438;stroke-opacity:1;paint-order:stroke fill markers"
       d="m 358.58579,522.58554 c -1.36323,0.60621 -10.5164,1.26292 -10.5164,1.26292 l -20.69206,0.40414 2.2396,-6.31467 17.67345,-0.15163 c 0,0 10.71116,5.20325 11.29541,4.79914 z"
       id="path93981"
       sodipodi:nodetypes="cccccc" />
    <path
       style="display:inline;opacity:1;fill:#f18b44;fill-opacity:1;stroke:none;stroke-width:1.74455;stroke-opacity:1;paint-order:stroke fill markers"
       id="path93987"
       sodipodi:type="arc"
       sodipodi:cx="339.42447"
       sodipodi:cy="438.48196"
       sodipodi:rx="3.3185148"
       sodipodi:ry="6.3512292"
       sodipodi:start="0"
       sodipodi:end="6.2797716"
       sodipodi:arc-type="slice"
       d="m 342.74298,438.48196 a 3.3185148,6.3512292 0 0 1 -3.31568,6.35123 3.3185148,6.3512292 0 0 1 -3.32134,-6.34039 3.3185148,6.3512292 0 0 1 3.31001,-6.36204 3.3185148,6.3512292 0 0 1 3.32699,6.32952 l -3.31849,0.0217 z"
       transform="matrix(0.96649621,0.25668087,-0.23950611,0.97089486,0,0)"
       inkscape:transform-center-x="1.3733353"
       inkscape:transform-center-y="-3.4265158" />
  </g>
</svg>
