<?xml version="1.0" encoding="UTF-8" standalone="no"?>
<!-- Created with Inkscape (http://www.inkscape.org/) -->

<svg
   version="1.1"
   id="svg256"
   width="730"
   height="730"
   viewBox="0 0 720 719.99998"
   sodipodi:docname="cajaherramientasf1.svg"
   inkscape:version="1.2.2 (732a01da63, 2022-12-09)"
   inkscape:export-filename="cajaherramientas1.svg"
   inkscape:export-xdpi="326.9137"
   inkscape:export-ydpi="326.9137"
   xmlns:inkscape="http://www.inkscape.org/namespaces/inkscape"
   xmlns:sodipodi="http://sodipodi.sourceforge.net/DTD/sodipodi-0.dtd"
   xmlns="http://www.w3.org/2000/svg"
   xmlns:svg="http://www.w3.org/2000/svg">
  <defs
     id="defs260" />
  <sodipodi:namedview
     id="namedview258"
     pagecolor="#ffffff"
     bordercolor="#000000"
     borderopacity="0.25"
     inkscape:showpageshadow="2"
     inkscape:pageopacity="0.0"
     inkscape:pagecheckerboard="0"
     inkscape:deskcolor="#ffffff"
     showgrid="false"
     showguides="false"
     inkscape:zoom="1.0305556"
     inkscape:cx="360"
     inkscape:cy="360"
     inkscape:window-width="1920"
     inkscape:window-height="974"
     inkscape:window-x="-11"
     inkscape:window-y="-11"
     inkscape:window-maximized="1"
     inkscape:current-layer="layer6" />
  <g
     inkscape:groupmode="layer"
     id="layer6"
     inkscape:label="Layer 4"
     style="display:inline;opacity:0.518681;fill:#000300;fill-opacity:1"
     transform="translate(-21.88702,-0.46426961)">
    <ellipse
       style="opacity:0;fill:#ffffff;fill-opacity:100;stroke:none;stroke-width:1.83973;paint-order:stroke fill markers"
       id="path661"
       cx="381.98047"
       cy="361.05368"
       rx="358.49054"
       ry="358.96497" />
  </g>
  <g
     inkscape:groupmode="layer"
     id="layer4"
     inkscape:label="Layer 2"
     style="display:inline;stroke:#000010;stroke-opacity:0.316176"
     transform="translate(-21.88702,-0.46426961)">
    <path
       style="display:inline;opacity:1;fill:#a1dee2;fill-opacity:1;stroke:none;stroke-width:1.92214;stroke-opacity:0.316176;paint-order:stroke fill markers"
       d="m 138.17993,507.89437 c -1.72857,-0.44227 0.43216,-168.94873 0.43216,-168.94873 0,0 0.43214,-27.42099 9.50717,-54.84201 9.07505,-27.42098 25.9287,-37.15102 25.9287,-37.15102 0,0 9.1492,-9.08233 20.38496,0.64769 11.23576,9.73004 27.0027,29.00691 33.48489,55.10107 6.48215,26.0942 7.0626,21.64921 9.22331,65.87665 2.16072,44.22741 0.43214,176.46739 0.43214,176.46739 z"
       id="path93914"
       sodipodi:nodetypes="ccscssscc" />
    <path
       style="display:inline;opacity:1;fill:#9cd1da;fill-opacity:1;stroke:none;stroke-width:1.92214;stroke-opacity:0.316176;paint-order:stroke fill markers"
       d="m 236.96211,545.48769 28.08941,-2.65364 -2.59286,-160.54553 c 0,0 -0.43213,-11.05687 -3.45716,-36.26649 -3.025,-25.20963 -5.6179,-38.03558 -19.87866,-70.32161 -14.26077,-32.28601 -23.33582,-31.84373 -23.33582,-31.84373 0,0 -29.69143,-1.01409 -31.85216,-1.01409 0,0 9.38061,0.1296 23.20926,21.3587 13.82864,21.22918 21.06126,46.04859 21.06126,46.04859 0,0 6.59603,24.71529 7.89246,44.6176 1.29643,19.90236 0.86427,32.72831 0.86427,32.72831 z"
       id="path93920"
       sodipodi:nodetypes="cccssccscscc" />
    <path
       style="display:inline;opacity:1;fill:#a1dee2;fill-opacity:1;stroke:none;stroke-width:1.92214;stroke-opacity:0.316176;paint-order:stroke fill markers"
       d="m 264.6194,542.83405 296.01926,-15.03731 0.96915,-108.41088 -298.99153,13.17066 z"
       id="path93922"
       sodipodi:nodetypes="ccccc" />
    <path
       style="display:inline;opacity:1;fill:#9cd1da;fill-opacity:1;stroke:none;stroke-width:1.92214;stroke-opacity:0.316176;paint-order:stroke fill markers"
       d="m 542.48857,241.64532 v 0 c 0,0 18.15009,21.22916 27.22514,46.88106 9.07503,25.65191 15.98937,72.53298 15.98937,72.53298 l 0.43213,165.41054 -25.49655,1.32684 0.43216,-162.31463 c 0,0 0.43212,-26.53647 -3.02505,-39.36242 -3.45714,-12.82595 -21.60719,-62.36065 -21.60719,-62.36065 z"
       id="path93924" />
    <path
       style="display:inline;opacity:1;fill:#88c4d3;fill-opacity:1;stroke:none;stroke-width:1.92214;stroke-opacity:0.316176;paint-order:stroke fill markers"
       d="m 503.16338,233.24211 c 0,0 -11.7902,2.32001 -16.86635,5.37398 -5.35798,3.22345 -9.96904,7.92722 -13.50135,13.1609 -4.02111,5.95794 -8.25047,20.01504 -8.25047,20.01504 l 33.28415,-5.37016 z"
       id="path93928"
       sodipodi:nodetypes="caaccc" />
    <path
       style="opacity:1;fill:none;fill-opacity:1;stroke:#000010;stroke-width:1.92214;stroke-opacity:0.316176;paint-order:stroke fill markers"
       d="m 457.78817,296.9296 c 0,0 -4.7536,9.28774 -7.34646,22.11371 -2.59285,12.82596 -2.59285,12.82596 -2.59285,12.82596 l 0.86428,59.26473"
       id="path93930" />
    <path
       style="opacity:1;fill:#88c4d3;fill-opacity:1;stroke:none;stroke-width:1.92214;stroke-opacity:0.316176;paint-order:stroke fill markers"
       d="m 447.13283,390.06625 -184.47395,8.97453 -0.12606,33.59112 298.4323,-12.83884 0.28468,-75.83984 c 0,0 -2.71942,-25.1782 -9.20161,-42.4269 -6.48218,-17.24867 -15.60961,-37.76728 -15.60961,-37.76728 l -41.48595,-1.76911 -257.61081,11.73599 c 0,0 6.25076,10.27041 8.84364,19.55818 2.59286,9.28774 5.343,12.85737 5.343,12.85737 l 204.78429,-9.7078 c 0,0 -4.85844,15.75708 -8.31559,29.02531 -3.45718,13.26822 -0.86433,64.60727 -0.86433,64.60727 z"
       id="path93932"
       sodipodi:nodetypes="cccccscccsccsc" />
    <path
       style="display:inline;opacity:1;fill:#9cd1da;fill-opacity:1;stroke:none;stroke-width:1.92214;stroke-opacity:0.316176;paint-order:stroke fill markers"
       id="path93940"
       sodipodi:type="arc"
       sodipodi:cx="165.65819"
       sodipodi:cy="374.99097"
       sodipodi:rx="4.7535934"
       sodipodi:ry="14.816186"
       sodipodi:start="0"
       sodipodi:end="6.2524001"
       sodipodi:arc-type="slice"
       d="m 170.41178,374.99097 a 4.7535934,14.816186 0 0 1 -4.71701,14.81574 4.7535934,14.816186 0 0 1 -4.78961,-14.58769 4.7535934,14.816186 0 0 1 4.64328,-15.04029 4.7535934,14.816186 0 0 1 4.86109,14.35619 l -4.75134,0.45605 z" />
    <path
       style="display:inline;opacity:1;fill:#9cd1da;fill-opacity:1;stroke:none;stroke-width:1.92214;stroke-opacity:1;paint-order:stroke fill markers"
       id="path93948"
       sodipodi:type="arc"
       sodipodi:cx="207.79233"
       sodipodi:cy="386.04782"
       sodipodi:rx="4.5375214"
       sodipodi:ry="13.489364"
       sodipodi:start="0"
       sodipodi:end="6.2524001"
       sodipodi:arc-type="slice"
       d="m 212.32985,386.04782 a 4.5375214,13.489364 0 0 1 -4.5026,13.48897 4.5375214,13.489364 0 0 1 -4.57191,-13.28134 4.5375214,13.489364 0 0 1 4.43223,-13.6934 4.5375214,13.489364 0 0 1 4.64013,13.07056 l -4.53537,0.41521 z" />
  </g>
  <g
     inkscape:groupmode="layer"
     id="layer3"
     inkscape:label="Layer 1"
     style="display:inline"
     transform="translate(-21.88702,-0.46426961)">
    <path
       style="display:inline;opacity:1;fill:#bfbfb5;fill-opacity:1;stroke:none;stroke-width:1.92516;stroke-dasharray:none;stroke-opacity:1;paint-order:stroke fill markers"
       d="m 267.57025,242.32445 c 0,0 -5.54372,-9.9669 -16.34735,-4.21733 -10.80362,5.74957 -11.61549,20.45194 -11.61549,27.97061 0,7.51866 3.93277,25.41504 5.66131,27.62639 1.72859,2.21139 4.02488,11.44549 21.31069,22.9446 17.28578,11.49918 23.96867,13.00916 23.96867,13.00916 l 37.84806,100.12649 53.77598,-2.21161 -57.48458,-112.50995 c 0,0 18.15008,-19.90231 13.39649,-39.80465 -4.75362,-19.90234 -15.98937,-30.51693 -24.63228,-39.36241 -8.64287,-8.84549 -16.42148,-5.30728 -16.42148,-5.30728 l -12.10005,11.05685 14.26078,38.47786 -9.50721,11.05683 -19.87867,-6.63409 -15.68379,-33.87193 z"
       id="path93883"
       sodipodi:nodetypes="cssssccccssccccccc" />
    <path
       style="display:inline;opacity:1;fill:#b3b3ad;fill-opacity:1;stroke:none;stroke-width:1.92214;stroke-opacity:1;paint-order:stroke fill markers"
       d="m 299.191,280.12318 -18.1501,-3.98049 -13.82864,-34.49737 -13.39649,8.84549 15.55722,33.61282 20.74294,7.96093 z"
       id="path93885" />
    <path
       style="display:inline;opacity:1;fill:#b3b3ad;fill-opacity:1;stroke:none;stroke-width:1.92214;stroke-opacity:1;paint-order:stroke fill markers"
       d="m 366.83702,428.11104 -51.22454,-105.97181 8.64292,-7.07642 58.42268,112.42276 z"
       id="path93889"
       sodipodi:nodetypes="ccccc" />
    <path
       style="display:inline;opacity:1;fill:#bfbfb5;fill-opacity:1;stroke:none;stroke-width:1.92214;stroke-opacity:1;paint-order:stroke fill markers"
       d="m 415.00583,213.33976 23.76798,8.84548 -3.56204,33.30012 c 0,0 0.53701,7.38912 -0.32728,14.02322 -0.86428,6.63411 -6.91432,88.45486 -6.91432,88.45486 l -31.11443,-3.53819 13.39649,-137.98955 z"
       id="path93891"
       sodipodi:nodetypes="cccscccc" />
    <path
       style="display:inline;opacity:1;fill:#b3b3ad;fill-opacity:1;stroke:none;stroke-width:1.92214;stroke-opacity:1;paint-order:stroke fill markers"
       d="m 434.7055,271.66631 c -2.51939,-1.82388 -5.12474,-1.41185 -7.59961,-3.04228 -2.59284,-1.76909 -6.05004,-8.4032 -9.07505,-23.44052 -3.02501,-15.03732 -1.72858,-30.9592 -1.72858,-30.9592 l 22.03939,8.40322 z"
       id="path93893"
       sodipodi:nodetypes="ccsccc" />
    <path
       style="display:inline;opacity:1;fill:#fea15d;fill-opacity:1;stroke:none;stroke-width:1.92214;stroke-opacity:1;paint-order:stroke fill markers"
       d="m 397.59345,353.74612 c 0,0 -13.22329,3.90468 -12.10003,8.84548 2.02534,8.90896 26.45669,4.45418 26.45669,4.45418 0,0 19.38581,10.59593 24.10425,3.8195 2.7926,-4.01061 3.62715,-7.31327 -6.74431,-13.06283 -10.3715,-5.74956 -31.7166,-4.05633 -31.7166,-4.05633 z"
       id="path93895"
       sodipodi:nodetypes="cacasc" />
    <path
       style="display:inline;opacity:1;fill:#f18b44;fill-opacity:1;stroke:none;stroke-width:1.92214;stroke-opacity:1;paint-order:stroke fill markers"
       d="m 432.72375,371.67391 1.58116,53.54505 -50.91981,2.19071 6.98847,-61.04304 c 0,0 8.21075,-1.76908 21.17509,-1.32681 12.96439,0.44229 21.17509,6.63409 21.17509,6.63409 z"
       id="path93897"
       sodipodi:nodetypes="ccccsc" />
    <path
       style="display:inline;opacity:1;fill:#bfbfb5;fill-opacity:1;stroke:none;stroke-width:1.92214;stroke-opacity:1;paint-order:stroke fill markers"
       d="m 511.80629,200.07157 -65.28501,224.64126 32.56855,-1.20772 54.55513,-218.9035 z"
       id="path93899"
       sodipodi:nodetypes="ccccc" />
    <path
       style="display:inline;opacity:1;fill:#b3b3ad;fill-opacity:1;stroke:none;stroke-width:1.92214;stroke-opacity:1;paint-order:stroke fill markers"
       d="m 477.60372,423.50352 23.19896,-1.03579 49.89665,-211.33932 -18.15009,-8.84548 z"
       id="path93901"
       sodipodi:nodetypes="ccccc" />
    <path
       style="display:inline;opacity:1;fill:#fea15d;fill-opacity:1;stroke:none;stroke-width:1.92214;stroke-opacity:1;paint-order:stroke fill markers"
       d="m 534.14598,204.79781 11.65967,-1.32683 25.43144,7.62599 25.26961,2.68508 12.5322,-45.11196 -27.65731,-14.59506 -22.03937,-1.32681 -22.47153,-11.9414 c 0,0 -28.52157,-14.59506 -52.72169,1.32682 -24.2001,15.92185 -36.72256,47.23289 -36.72256,47.23289 l 26.96223,8.56954 9.6555,-8.66229 c 0,0 10.04418,-7.33549 15.66205,-5.1241 5.61789,2.21137 12.18322,16.41779 12.18322,16.41779 14.62392,2.55535 7.50721,1.28448 22.25654,4.23034 z"
       id="path93903"
       sodipodi:nodetypes="ccccccccscccscc" />
    <path
       style="display:inline;opacity:1;fill:#f18b44;fill-opacity:1;stroke:none;stroke-width:1.92516;stroke-dasharray:none;stroke-opacity:1;paint-order:stroke fill markers"
       d="m 498.84194,182.82284 c 0,0 -9.93933,-7.51866 -18.15008,-9.73002 -8.21076,-2.21136 -16.85363,3.98047 -16.85363,3.98047 l -16.42153,12.38366 26.79296,8.40322 c 0,0 8.83211,-7.42506 13.77623,-10.30183 3.41964,-1.98973 10.85605,-4.7355 10.85605,-4.7355 z"
       id="path93905"
       sodipodi:nodetypes="cscccac" />
    <path
       style="display:inline;opacity:1;fill:#f18b44;fill-opacity:1;stroke:none;stroke-width:1.92214;stroke-opacity:1;paint-order:stroke fill markers"
       d="m 558.91007,152.74822 -3.02501,9.06661 c 0,0 -5.26466,-8.68029 -16.4215,-16.58527 l -11.45538,-7.80458 0.95491,0.14655 c 3.11125,0.47762 11.5846,3.75678 16.98264,6.55228 4.59889,2.38163 12.96434,8.62436 12.96434,8.62436 z"
       id="path93907"
       sodipodi:nodetypes="ccscsac" />
    <path
       style="display:inline;opacity:1;fill:#fea15d;fill-opacity:1;stroke:none;stroke-width:1.92214;stroke-opacity:1;paint-order:stroke fill markers"
       d="m 596.93884,214.66657 -29.61281,-8.92134 13.82416,-51.59431 c 0.43215,-1.76911 28.32085,14.96144 28.32085,14.96144 z"
       id="path93909"
       sodipodi:nodetypes="ccccc" />
    <path
       style="opacity:1;fill:#f18b44;fill-opacity:1;stroke:none;stroke-width:1.92214;stroke-opacity:1;paint-order:stroke fill markers"
       d="m 539.34599,199.80786 c 2.60529,-1.65568 8.22799,-4.2127 8.22799,-4.2127 l -1.58032,7.15686 21.56381,2.96636 c 0,0 -6.65557,-0.0733 -9.72865,1.04189 -2.66316,0.96647 -7.10327,4.73451 -7.10327,4.73451 l -17.9711,-6.58503 c 0,0 4.25126,-3.61462 6.59154,-5.10189 z"
       id="path93911"
       sodipodi:nodetypes="acccacca" />
    <path
       style="opacity:1;fill:#f18b44;fill-opacity:1;stroke:none;stroke-width:1.92516;stroke-dasharray:none;stroke-opacity:1;paint-order:stroke fill markers"
       d="m 567.19947,205.71838 -21.26274,-2.48424 23.77246,10.52108 26.79751,0.46909 z"
       id="path97192"
       sodipodi:nodetypes="ccccc" />
  </g>
  <g
     inkscape:groupmode="layer"
     id="layer5"
     inkscape:label="Layer 3"
     style="display:inline"
     transform="translate(-21.88702,-0.46426961)">
    <path
       style="opacity:1;fill:#fea15d;fill-opacity:1;stroke:none;stroke-width:1.92214;stroke-opacity:1;paint-order:stroke fill markers"
       d="m 233.72104,525.0325 c -1.72859,0.44229 -14.47687,6.19184 -14.47687,6.19184 l -7.34646,21.00803 7.8932,12.18207 15.0105,-5.76911 7.34644,-19.68119 z"
       id="path93951"
       sodipodi:nodetypes="ccccccc" />
    <path
       style="display:inline;opacity:1;fill:#f18b44;fill-opacity:1;stroke:none;stroke-width:1.92214;stroke-opacity:1;paint-order:stroke fill markers"
       d="m 233.72104,525.14309 8.42681,-1.99025 8.42681,16.58526 -7.67055,23.66169 -14.80096,5.9707 -8.31879,-4.97556 14.36881,-5.9707 7.67059,-19.01783 z"
       id="path93953"
       sodipodi:nodetypes="ccccccccc" />
    <path
       style="opacity:1;fill:#bfbfb5;fill-opacity:1;stroke:none;stroke-width:1.92214;stroke-opacity:1;paint-order:stroke fill markers"
       d="m 251.33094,561.52014 36.15414,11.53937 c 0,0 4.86889,-5.63682 6.05414,-9.10037 1.14674,-3.35103 0.79014,-10.6211 0.79014,-10.6211 l -38.08277,-9.84056 c 0,0 -0.76714,6.41224 -1.62056,9.50889 -0.80964,2.93783 -3.29509,8.51377 -3.29509,8.51377 z"
       id="path93965"
       sodipodi:nodetypes="ccaccac" />
    <path
       style="opacity:1;fill:#fea15d;fill-opacity:1;stroke:none;stroke-width:1.92214;stroke-opacity:1;paint-order:stroke fill markers"
       d="m 319.5018,526.91217 -7.99469,18.35438 10.58755,17.24869 19.66258,-0.66342 6.26612,-21.22915 -10.15541,-15.03732 z"
       id="path93967" />
    <path
       style="display:inline;opacity:1;fill:#f18b44;fill-opacity:1;stroke:none;stroke-width:1.92214;stroke-opacity:1;paint-order:stroke fill markers"
       d="m 322.09466,562.51526 -6.3201,-0.38701 -11.18176,-16.8617 9.34512,-21.78201 17.12377,-1.16096 c 0,0 5.6719,3.26177 6.96829,3.26177 l -18.47417,1.3821 -7.94067,18.2991 z"
       id="path93969"
       sodipodi:nodetypes="ccccccccc" />
    <path
       style="display:inline;opacity:1;fill:#f18b44;fill-opacity:1;stroke:none;stroke-width:0.647725;stroke-opacity:1;paint-order:stroke fill markers"
       d="m 325.75752,538.16397 -2.05096,6.21051 3.30305,6.13617 7.9555,-0.21051 2.08055,-6.73566 -2.50019,-6.2085 z"
       id="path93977"
       sodipodi:nodetypes="ccccccc" />
    <path
       style="display:inline;opacity:1;fill:#fea15d;fill-opacity:1;stroke:none;stroke-width:1.92214;stroke-opacity:1;paint-order:stroke fill markers"
       d="m 333.33041,561.85182 v 7.29753 l 11.66793,4.42275 h 21.60725 l 10.80362,-4.42275 -0.43213,-14.15278 -12.10007,-5.30729 -19.60858,0.16595 -3.51119,11.55446 z"
       id="path93979"
       sodipodi:nodetypes="cccccccccc" />
    <path
       style="display:inline;opacity:1;fill:#f18b44;fill-opacity:1;stroke:none;stroke-width:1.92214;stroke-opacity:1;paint-order:stroke fill markers"
       d="m 377.40919,554.9413 c -1.51249,0.66341 -11.66788,1.38209 -11.66788,1.38209 l -22.9577,0.44228 2.48482,-6.91056 19.60858,-0.16594 c 0,0 11.88396,5.69426 12.53218,5.25202 z"
       id="path93981"
       sodipodi:nodetypes="cccccc" />
    <path
       style="display:inline;opacity:1;fill:#f18b44;fill-opacity:1;stroke:none;stroke-width:1.92223;stroke-opacity:1;paint-order:stroke fill markers"
       id="path93987"
       sodipodi:type="arc"
       sodipodi:cx="352.30841"
       sodipodi:cy="469.01654"
       sodipodi:rx="3.6785839"
       sodipodi:ry="6.9561143"
       sodipodi:start="0"
       sodipodi:end="6.2797716"
       sodipodi:arc-type="slice"
       d="m 355.98699,469.01654 a 3.6785839,6.9561143 0 0 1 -3.67544,6.95611 3.6785839,6.9561143 0 0 1 -3.68172,-6.94424 3.6785839,6.9561143 0 0 1 3.66916,-6.96796 3.6785839,6.9561143 0 0 1 3.68798,6.93234 l -3.67856,0.0238 z"
       transform="matrix(0.96735969,0.25340725,-0.24262325,0.97012059,0,0)"
       inkscape:transform-center-x="1.5237047"
       inkscape:transform-center-y="-3.7498679" />
  </g>
</svg>
