<?xml version="1.0" encoding="UTF-8" standalone="no"?>
<svg
   version="1.0"
   width="720pt"
   height="720pt"
   viewBox="0 0 720 720"
   preserveAspectRatio="xMidYMid"
   id="svg520"
   sodipodi:docname="casaif.svg"
   inkscape:version="1.2.2 (732a01da63, 2022-12-09)"
   xmlns:inkscape="http://www.inkscape.org/namespaces/inkscape"
   xmlns:sodipodi="http://sodipodi.sourceforge.net/DTD/sodipodi-0.dtd"
   xmlns="http://www.w3.org/2000/svg"
   xmlns:svg="http://www.w3.org/2000/svg">
  <defs
     id="defs524" />
  <sodipodi:namedview
     id="namedview522"
     pagecolor="#ffffff"
     bordercolor="#000000"
     borderopacity="0.25"
     inkscape:showpageshadow="2"
     inkscape:pageopacity="0"
     inkscape:pagecheckerboard="0"
     inkscape:deskcolor="#d1d1d1"
     inkscape:document-units="pt"
     showgrid="false"
     inkscape:zoom="0.80833333"
     inkscape:cx="325.36082"
     inkscape:cy="531.95876"
     inkscape:window-width="1920"
     inkscape:window-height="974"
     inkscape:window-x="-11"
     inkscape:window-y="-11"
     inkscape:window-maximized="1"
     inkscape:current-layer="svg520" />
  <metadata
     id="metadata512">
Created by potrace 1.15, written by Peter Selinger 2001-2017
</metadata>
  <ellipse
     style="display:inline;opacity:1;fill:#ffffff;fill-opacity:1;stroke-width:2.54809;paint-order:stroke fill markers"
     id="path6095"
     cx="360.45883"
     cy="360.44058"
     rx="359.41501"
     ry="359.43323" />
  <ellipse
     style="fill:#61a7e2;fill-opacity:1;stroke-width:1.27535"
     id="path9911-4-36-3"
     cx="167.79207"
     cy="261.28323"
     rx="21.044207"
     ry="21.643148" />
  <ellipse
     style="fill:#ffffff;fill-opacity:1;stroke-width:2.18448"
     id="path9915-6-1-1-4-4-85"
     cx="167.80392"
     cy="261.25317"
     rx="17.635546"
     ry="18.421991" />
  <path
     style="fill:none;fill-opacity:1;stroke:#61a7e2;stroke-width:2.80207;stroke-opacity:1;paint-order:stroke fill markers"
     d="m 159.05057,251.22996 c 2.24541,-3.22004 6.58606,-4.143 10.16657,-3.78105 3.77186,0.3813 7.66784,2.76788 9.78001,6.05443 2.04768,3.18622 2.87237,6.17734 1.61033,11.38932"
     id="path36856-9-32-4-34"
     sodipodi:nodetypes="caac" />
  <ellipse
     style="fill:#61a7e2;fill-opacity:1;stroke-width:0.491342"
     id="path9911-4-36-3-5"
     cx="139.4987"
     cy="293.51312"
     rx="8.2506771"
     ry="8.1935396" />
  <g
     transform="matrix(0.07540342,0,0,-0.07620325,-125.03646,645.1981)"
     fill="#000000"
     stroke="none"
     id="g518"
     style="fill:#61a7e2;fill-opacity:1">
    <path
       d="m 6305.9064,6493.7431 c -19.2078,-13.8459 -1973.9539,-1508.6947 -3034.5431,-2229.1718 -113.0151,-107.7274 -113.0624,-162.898 -111.5899,-243.7425 3.0849,-169.3612 139.7698,-297.8275 277.4732,-366.8288 69.4179,-34.7844 133.8377,-51.2433 255.1764,17.238 L 6400,5580 9047.1147,3716.0291 c 24.9217,-24.6601 164.9492,-106.1964 248.7419,-81.7277 194.743,56.8678 372.0566,269.3802 381.2519,470.089 4.0661,88.7506 -148.8851,222.1078 -148.8851,222.1078 l -1148.0115,861.0417 -14.9018,1163.7722 c -0.1287,0.051 2.0171,22.2817 -2.1603,47.7604 -4.1775,25.4787 -27.3295,88.5598 -93.3299,122.56 -57.8078,24.0921 -308.727,10.4573 -308.727,10.4573 0,0 -160.0929,2.9102 -233.0929,-45.0898 -45,-31 -135.7896,-76.6433 -135.7896,-76.6433 l 9.7847,-730.5821 c 0,0 -1013.2858,760.4854 -1108.9951,824.2254 -95.7093,63.74 -167.8859,3.5891 -187.0936,-10.2569 z"
       id="path514"
       style="fill:#61a7e2;fill-opacity:1"
       sodipodi:nodetypes="zcsscccaaccczccccczz" />
    <path
       d="M 6270,5120 C 5577.8577,4611.537 4270,3699 4270,3699 l -7.4574,-2719.32927 c 0,0 0.1048,-219.21948 40.8777,-269.02565 40.7729,-49.80617 106.4986,-39.46929 106.4986,-39.46929 L 5854,666 l 16,1444 h 1060 l 16,-1444 1419.5833,-3.08562 c 0,0 83.4851,-2.88982 124.2585,44.93681 40.7734,47.82663 44.5087,240.51874 44.5087,240.51874 L 8530,3700 c 0,0 -1395.0342,995.1903 -2008.7614,1436.0959 C 6384.7368,5233.5972 6406,5218 6270,5120 Z"
       id="path516"
       style="fill:#61a7e2;fill-opacity:1"
       sodipodi:nodetypes="ccczcccccczcccc" />
  </g>
  <ellipse
     style="fill:#61a7e2;fill-opacity:1;stroke-width:1.27879"
     id="path9911-5"
     cx="593.75574"
     cy="410.98849"
     rx="21.278164"
     ry="21.520927"
     transform="rotate(6.8491944)" />
  <ellipse
     style="fill:#ffffff;fill-opacity:1;stroke-width:2.2421"
     id="path9915-6-1-1-1"
     cx="593.7337"
     cy="411.21643"
     rx="18.498373"
     ry="18.501627"
     transform="matrix(0.99290637,0.11889888,-0.11961514,0.99282034,0,0)" />
  <ellipse
     style="fill:#61a7e2;fill-opacity:1;stroke-width:0.849076"
     id="path9911-4"
     cx="128.88948"
     cy="238.67874"
     rx="14.319402"
     ry="14.098247" />
  <circle
     style="fill:#ffffff;fill-opacity:1;stroke-width:1.45434"
     id="path9915-6-1-1-4"
     cx="128.83955"
     cy="238.54317"
     r="12" />
  <ellipse
     style="fill:#61a7e2;fill-opacity:1;stroke-width:0.849076"
     id="path9911-4-3"
     cx="569.63208"
     cy="450.88547"
     rx="14.319402"
     ry="14.098247"
     transform="rotate(6.8491944)" />
  <ellipse
     style="fill:#ffffff;fill-opacity:1;stroke-width:1.45434"
     id="path9915-6-1-1-4-9"
     cx="567.52979"
     cy="449.22253"
     rx="12.008"
     ry="11.991995"
     transform="matrix(0.99252985,0.12200205,-0.11657098,0.99318236,0,0)" />
  <ellipse
     style="fill:#61a7e2;fill-opacity:1;stroke-width:0.855713"
     id="path9911-4-7"
     cx="421.23715"
     cy="175.69464"
     rx="14.319402"
     ry="14.3195" />
  <ellipse
     style="fill:#ffffff;fill-opacity:1;stroke-width:1.40163"
     id="path9915-6-1-1-4-94"
     cx="421.30319"
     cy="175.45381"
     rx="11.536082"
     ry="11.594072" />
  <ellipse
     style="fill:#61a7e2;fill-opacity:1;stroke-width:0.849076"
     id="path9911-4-36"
     cx="178.14433"
     cy="505.6701"
     rx="14.319402"
     ry="14.098247" />
  <circle
     style="fill:#ffffff;fill-opacity:1;stroke-width:1.45434;opacity:1"
     id="path9915-6-1-1-4-4"
     cx="178.1524"
     cy="505.65051"
     r="12" />
  <path
     style="opacity:1;fill:none;fill-opacity:1;stroke:#61a7e2;stroke-width:1.966;stroke-opacity:1;paint-order:stroke fill markers;stroke-dasharray:none"
     d="m 172.19623,499.12144 c 1.52787,-2.09752 4.48144,-2.69873 6.91778,-2.46296 2.56654,0.24838 5.21753,1.80298 6.65475,3.94383 1.39333,2.07549 1.95448,4.02389 1.09574,7.41895"
     id="path36856-9-32-4"
     sodipodi:nodetypes="caac" />
  <ellipse
     style="fill:#61a7e2;fill-opacity:1;stroke-width:0.502245"
     id="path9911-4-36-4"
     cx="181.01965"
     cy="456.44958"
     rx="8.4246454"
     ry="8.3844938" />
  <ellipse
     style="fill:#ffffff;fill-opacity:1;stroke-width:0.839484"
     id="path9915-6-1-1-4-4-8"
     cx="181.08231"
     cy="456.49628"
     rx="6.9142632"
     ry="6.9391909" />
  <path
     style="fill:none;fill-opacity:1;stroke:#61a7e2;stroke-width:1.377;stroke-opacity:1;paint-order:stroke fill markers;stroke-dasharray:none"
     d="m 177.65043,452.72073 c 0.88033,-1.21293 2.58215,-1.56059 3.98595,-1.42425 1.4788,0.14363 3.00627,1.0426 3.83438,2.28059 0.80282,1.20017 1.12615,2.32688 0.63135,4.29012"
     id="path36856-9-32-4-8"
     sodipodi:nodetypes="caac" />
  <ellipse
     style="fill:#61a7e2;fill-opacity:1;stroke-width:0.488656"
     id="path9911-4-36-2"
     cx="448.60828"
     cy="189.85487"
     rx="8.2884741"
     ry="8.0673189" />
  <circle
     style="fill:#ffffff;fill-opacity:1;stroke-width:0.787768"
     id="path9915-6-1-1-4-4-3"
     cx="448.8233"
     cy="189.70862"
     r="6.5" />
  <ellipse
     style="fill:#61a7e2;fill-opacity:1;stroke-width:0.488656"
     id="path9911-4-36-2-0"
     cx="563.13708"
     cy="381.29779"
     rx="8.2884741"
     ry="8.0673189"
     transform="rotate(6.8491944)" />
  <ellipse
     style="fill:#ffffff;fill-opacity:1;stroke-width:0.787767"
     id="path9915-6-1-1-4-4-3-7"
     cx="561.3476"
     cy="378.75085"
     rx="6.5064268"
     ry="6.4935665"
     transform="matrix(0.99236328,0.1233496,-0.1152954,0.99333125,0,0)" />
  <ellipse
     style="fill:#61a7e2;fill-opacity:1;stroke-width:0.495309"
     id="path9911-4-36-2-7"
     cx="153.47708"
     cy="212.92053"
     rx="8.2884741"
     ry="8.2884998" />
  <circle
     style="fill:#ffffff;fill-opacity:1;stroke-width:0.787768"
     id="path9915-6-1-1-4-4-3-3"
     cx="153.59843"
     cy="212.86829"
     r="6.5" />
  <ellipse
     style="fill:#61a7e2;fill-opacity:1;stroke-width:0.488656"
     id="path9911-4-36-2-3"
     cx="197.62888"
     cy="477.83505"
     ry="8.0673189"
     rx="8.2884741" />
  <circle
     style="fill:#ffffff;fill-opacity:1;stroke-width:0.787768"
     id="path9915-6-1-1-4-4-3-8"
     cx="197.61195"
     cy="477.7468"
     r="6.5" />
  <ellipse
     style="fill:#ffffff;fill-opacity:1;stroke-width:0.77282"
     id="path9915-6-1-1-4-4-85-5"
     cx="139.6039"
     cy="293.60043"
     rx="6.4349227"
     ry="6.3189435" />
  <path
     style="fill:none;fill-opacity:1;stroke:#61a7e2;stroke-width:1.28;stroke-dasharray:none;stroke-opacity:1;paint-order:stroke fill markers"
     d="m 135.72352,290.46105 c 0.88034,-1.21902 2.58215,-1.56844 3.98594,-1.43141 1.47882,0.14435 3.00628,1.04785 3.8344,2.29205 0.80282,1.20623 1.12615,2.33858 0.63135,4.3117"
     id="path36856-9-32-4-34-7"
     sodipodi:nodetypes="caac" />
  <ellipse
     style="fill:#61a7e2;fill-opacity:1;stroke-width:0.495127"
     id="path9911-4-36-2-37"
     cx="577.84039"
     cy="357.42294"
     rx="8.2916555"
     ry="8.2792101"
     transform="matrix(0.99248252,0.12238643,-0.11620434,0.99322533,0,0)" />
  <ellipse
     style="fill:#ffffff;fill-opacity:1;stroke-width:0.787767"
     id="path9915-6-1-1-4-4-3-1"
     cx="577.46942"
     cy="356.86035"
     rx="6.5064268"
     ry="6.4935665"
     transform="matrix(0.99236328,0.12334961,-0.1152954,0.99333125,0,0)" />
  <path
     style="opacity:1;fill:none;fill-opacity:1;stroke:#61a7e2;stroke-width:1.428;stroke-opacity:1;paint-order:stroke fill markers;stroke-dasharray:none"
     d="m 194.19732,474.49553 c 0.83962,-1.15961 2.46271,-1.49198 3.80157,-1.36164 1.4104,0.13732 2.86722,0.99677 3.65702,2.18033 0.76569,1.14742 1.07406,2.22458 0.60215,4.10152"
     id="path36856-9-32-4-9"
     sodipodi:nodetypes="caac" />
  <path
     style="fill:none;fill-opacity:1;stroke:#61a7e2;stroke-width:2.106;stroke-dasharray:none;stroke-opacity:1;paint-order:stroke fill markers"
     d="m 121.95808,232.22779 c 1.61227,-2.2978 4.729,-2.95642 7.29991,-2.69814 2.70831,0.2721 5.50575,1.97515 7.02235,4.32042 1.4703,2.27367 2.06245,4.40812 1.15627,8.12738"
     id="path36856-9-32-4-34-8"
     sodipodi:nodetypes="caac" />
  <path
     style="fill:none;fill-opacity:1;stroke:#61a7e2;stroke-width:1.398;stroke-dasharray:none;stroke-opacity:1;paint-order:stroke fill markers"
     d="m 150.57092,209.48898 c 0.80623,-1.13839 2.36479,-1.46468 3.65041,-1.33672 1.35433,0.1348 2.75322,0.97853 3.51161,2.14043 0.73525,1.12644 1.03137,2.1839 0.57822,4.0265"
     id="path36856-9-32-4-34-8-0"
     sodipodi:nodetypes="caac" />
  <ellipse
     style="fill:#61a7e2;fill-opacity:1;stroke-width:1.27535"
     id="path9911-4-36-3-2"
     cx="457.53864"
     cy="142.18732"
     rx="21.044207"
     ry="21.643148" />
  <ellipse
     style="fill:#ffffff;fill-opacity:1;stroke-width:2.18448"
     id="path9915-6-1-1-4-4-85-2"
     cx="457.55051"
     cy="142.15726"
     rx="17.635546"
     ry="18.421991" />
  <path
     style="fill:none;fill-opacity:1;stroke:#61a7e2;stroke-width:2.80207;stroke-opacity:1;paint-order:stroke fill markers"
     d="m 448.79717,132.13403 c 2.24541,-3.22004 6.58606,-4.143 10.16657,-3.78105 3.77186,0.3813 7.66784,2.76788 9.78001,6.05443 2.04768,3.18622 2.87237,6.17734 1.61033,11.38932"
     id="path36856-9-32-4-34-9"
     sodipodi:nodetypes="caac" />
  <path
     style="fill:none;fill-opacity:1;stroke:#61a7e2;stroke-width:1.467;stroke-dasharray:none;stroke-opacity:1;paint-order:stroke fill markers"
     d="m 445.29256,186.57517 c 0.8285,-1.26476 2.43008,-1.62727 3.7512,-1.48511 1.39172,0.14976 2.82923,1.08715 3.60857,2.37803 0.75554,1.25147 1.05983,2.4263 0.59416,4.47344"
     id="path36856-9-32-4-34-9-2"
     sodipodi:nodetypes="caac" />
  <path
     style="fill:none;fill-opacity:1;stroke:#61a7e2;stroke-width:2.126;stroke-dasharray:none;stroke-opacity:1;paint-order:stroke fill markers"
     d="m 416.02452,168.9211 c 1.40688,-2.18133 4.12655,-2.80656 6.36995,-2.56137 2.36329,0.25831 4.80435,1.87503 6.12775,4.1014 1.28299,2.15841 1.7997,4.18465 1.00896,7.71535"
     id="path36856-9-32-4-34-9-6"
     sodipodi:nodetypes="caac" />
  <path
     style="fill:none;fill-opacity:1;stroke:#61a7e2;stroke-width:2.98391;stroke-opacity:1;paint-order:stroke fill markers"
     d="m 530.51933,468.65739 c 2.41392,-3.39659 7.08036,-4.37016 10.92961,-3.98836 4.05495,0.40221 8.24334,2.91963 10.51405,6.3864 2.20136,3.36093 3.08794,6.51605 1.73119,12.0138"
     id="path36856-9-32-4-2"
     sodipodi:nodetypes="caac" />
  <path
     style="fill:none;fill-opacity:1;stroke:#61a7e2;stroke-width:1.347;stroke-opacity:1;paint-order:stroke fill markers;stroke-dasharray:none"
     d="m 510.35879,441.91324 c 0.81343,-1.24013 2.38592,-1.59559 3.68303,-1.45619 1.36643,0.14685 2.77782,1.06598 3.543,2.33172 0.74181,1.22711 1.04057,2.37906 0.58336,4.38635"
     id="path36856-9-32-4-2-7"
     sodipodi:nodetypes="caac" />
  <path
     style="fill:none;fill-opacity:1;stroke:#61a7e2;stroke-width:2.081;stroke-opacity:1;paint-order:stroke fill markers;stroke-dasharray:none"
     d="m 504.94362,509.31411 c 1.53049,-2.36162 4.48916,-3.03852 6.92968,-2.77306 2.57094,0.27965 5.22651,2.02998 6.6662,4.44039 1.39574,2.33681 1.95785,4.53053 1.09762,8.35304"
     id="path36856-9-32-4-2-0"
     sodipodi:nodetypes="caac" />
  <path
     style="fill:none;fill-opacity:1;stroke:#61a7e2;stroke-width:1.389;stroke-opacity:1;paint-order:stroke fill markers;stroke-dasharray:none"
     d="m 528.29706,422.44485 c 0.86592,-1.26151 2.53986,-1.6231 3.92066,-1.4813 1.45459,0.14939 2.95704,1.08436 3.77159,2.37194 0.78968,1.24826 1.10771,2.42009 0.62102,4.46197"
     id="path36856-9-32-4-2-2"
     sodipodi:nodetypes="caac" />
</svg>
