<?xml version="1.0" encoding="UTF-8" standalone="no"?>
<!-- Created with Inkscape (http://www.inkscape.org/) -->

<svg
   width="950mm"
   height="400mm"
   viewBox="0 0 950 400"
   version="1.1"
   id="svg5"
   xml:space="preserve"
   inkscape:version="1.2.2 (732a01da63, 2022-12-09)"
   sodipodi:docname="fondoilust.svg"
   inkscape:export-filename="fondoilust.svg"
   inkscape:export-xdpi="26.736841"
   inkscape:export-ydpi="26.736841"
   xmlns:inkscape="http://www.inkscape.org/namespaces/inkscape"
   xmlns:sodipodi="http://sodipodi.sourceforge.net/DTD/sodipodi-0.dtd"
   xmlns="http://www.w3.org/2000/svg"
   xmlns:svg="http://www.w3.org/2000/svg"><sodipodi:namedview
     id="namedview7"
     pagecolor="#ffffff"
     bordercolor="#000000"
     borderopacity="0.25"
     inkscape:showpageshadow="2"
     inkscape:pageopacity="0.0"
     inkscape:pagecheckerboard="0"
     inkscape:deskcolor="#d1d1d1"
     inkscape:document-units="mm"
     showgrid="false"
     showguides="false"
     inkscape:zoom="0.2192031"
     inkscape:cx="1122.2469"
     inkscape:cy="406.01615"
     inkscape:window-width="1920"
     inkscape:window-height="974"
     inkscape:window-x="-11"
     inkscape:window-y="-11"
     inkscape:window-maximized="1"
     inkscape:current-layer="layer2" /><defs
     id="defs2" /><g
     inkscape:groupmode="layer"
     id="layer2"
     inkscape:label="Capa 2"><path
       id="rect43798"
       style="display:inline;opacity:1;fill:#dcdcdc;stroke-width:1.15617;paint-order:stroke fill markers"
       d="M 0.43557972,226.2798 H 951.69379 V 400.22054 H 0.43557972 Z" /><path
       id="path51525"
       style="display:inline;opacity:1;fill:#494949;fill-opacity:1;stroke:none;stroke-width:1.56201;stroke-dasharray:none;stroke-opacity:1;paint-order:stroke fill markers"
       d="M -0.16492331,320.90412 365.08511,245.54225 361.95979,0.01730034 C 328.38523,-0.12126509 293.32049,0.00361087 259.23421,0.05279463 L 0.02668834,-0.06291702 Z"
       sodipodi:nodetypes="cccccc" /><path
       id="path42031"
       style="display:inline;opacity:1;fill:#e5eff5;fill-opacity:1;stroke:none;stroke-width:1.75261;stroke-dasharray:none;stroke-opacity:1;paint-order:stroke fill markers"
       d="M 944.83573,0.64990678 617.59502,0.09909241 c 0,0 -128.61411,10.06270959 -189.91528,15.42641959 l 4.50388,234.503058 508.35409,36.39672 z"
       sodipodi:nodetypes="cccccc" /><path
       id="rect41939"
       style="opacity:1;fill:#fbfbf6;fill-opacity:1;stroke:none;stroke-width:1.53072;stroke-dasharray:none;stroke-opacity:1;paint-order:stroke fill markers"
       d="m 937.8424,-0.01565296 0.0377,286.27178296 c 1.28053,0.2825 12.12956,0.71667 12.12956,0.71667 L 950.53775,0.09553074 c -4.23189,-0.03192076 -8.46349,-0.07447459 -12.69535,-0.1111837 z"
       sodipodi:nodetypes="ccccc" /><path
       id="path40200"
       style="display:inline;opacity:1;fill:#b8b5b0;fill-opacity:1;stroke:none;stroke-width:1.54816;stroke-dasharray:none;stroke-opacity:1;paint-order:stroke fill markers"
       d="M 632.42962,0.32551152 551.87577,-0.17381618 413.40826,15.766162 V 255.50089 l 26.1028,-4.53409 -0.40825,-229.12659 z"
       sodipodi:nodetypes="ccccccc" /><path
       style="opacity:1;fill:#494949;fill-opacity:1;stroke:none;stroke-width:1.54816;stroke-dasharray:none;stroke-opacity:1;paint-order:stroke fill markers"
       d="m 507.92947,13.700916 -44.53854,5.209766 -9.22871,236.443518 55.32127,4.52037 z"
       id="path40635"
       sodipodi:nodetypes="ccccc" /><path
       id="path44747"
       style="display:inline;opacity:1;fill:#fbfbf6;fill-opacity:1;stroke:none;stroke-width:1.54816;stroke-dasharray:none;stroke-opacity:1;paint-order:stroke fill markers"
       d="m 361.98814,-0.15172867 2.29443,248.29233867 43.33483,4.80901 1.60507,-246.0614683 72.16458,-7.39737542 C 438.58693,2.7617323 361.98814,-0.15172867 361.98814,-0.15172867 Z"
       sodipodi:nodetypes="cccccc" /><path
       style="opacity:1;fill:#f9f9f4;fill-opacity:1;stroke:none;stroke-width:1.54816;stroke-dasharray:none;stroke-opacity:1;paint-order:stroke fill markers"
       d="m 420.2176,279.87098 309.50009,28.02805 -241.58403,91.29771 -158.21151,-0.0482 c 0,0 -183.04795,-41.17218 -274.575269,-61.46921 L 292.54124,284.40496 Z"
       id="path22708"
       sodipodi:nodetypes="ccccccc" /><path
       style="fill:#eeefee;fill-opacity:1;stroke:none;stroke-width:1.13776;stroke-dasharray:none;stroke-opacity:1;paint-order:stroke fill markers"
       d="m 346.50161,167.57821 c 0.64876,0 8.8974,2.4314 13.34611,0.9005 4.4487,-1.53089 4.4487,-1.53089 4.4487,-1.53089 l 0.55609,46.19698 c 0,0 -6.11698,1.08065 -12.60466,0.3602 -6.48769,-0.72042 -6.30232,-0.90051 -6.30232,-0.90051 z"
       id="path22212-4" /><path
       style="display:inline;opacity:1;fill:#b4b2ae;fill-opacity:1;stroke-width:0.352304;paint-order:stroke fill markers"
       d="m 79.129551,230.03531 -0.52457,74.13587 97.571319,17.28962 68.19502,-20.43321 130.35739,-23.05285 -2.09835,-64.70512 -68.71956,-4.1914 -1.04915,-13.36022 -193.04433,12.31234 -10.753819,0.52391 -0.78688,18.86143 -20.9831,2.88161 z"
       id="path1071" /><path
       style="opacity:1;fill:#9f9e9a;fill-opacity:1;stroke:#9f9e9a;stroke-width:1.54848;stroke-dasharray:none;stroke-opacity:1;paint-order:stroke fill markers"
       d="m 216.49492,265.57337 156.87895,-23.83054 -57.20043,-9.2966 -158.69735,17.64915 z"
       id="path8517"
       sodipodi:nodetypes="ccccc" /><path
       style="display:inline;opacity:1;fill:none;fill-opacity:1;stroke:#acaaa6;stroke-width:1.54816;stroke-dasharray:none;stroke-opacity:1;paint-order:stroke fill markers"
       d="m 99.341311,227.31073 c 3.342289,1.05414 34.126479,3.86522 34.126479,3.86522"
       id="path9103" /><path
       style="display:inline;opacity:1;fill:#9f9e9a;fill-opacity:1;stroke:#9f9e9a;stroke-width:1.55241;stroke-dasharray:none;stroke-opacity:1;paint-order:stroke fill markers"
       d="m 133.44573,237.32321 -54.145439,-6.49806 19.5409,-2.6761 0.8358,-18.77727 9.785299,-0.66371 0.38693,19.84178 26.57517,2.53925 z"
       id="path9105"
       sodipodi:nodetypes="cccccccc" /><path
       style="display:inline;opacity:1;fill:#f9f9f4;fill-opacity:1;stroke:none;stroke-width:0.352154;stroke-dasharray:none;stroke-opacity:1;paint-order:stroke fill markers"
       d="m 296.40296,204.62899 c 0,0 0.74637,-4.96934 -0.12432,-8.32362 -0.87073,-3.35432 -0.87073,-3.35432 -0.87073,-3.35432 0,0 19.03122,5.96321 33.4601,5.21783 14.42889,-0.74541 14.42889,-0.74541 14.42889,-0.74541 0,0 -5.34862,19.13189 1.61703,31.43097 6.96569,12.29909 6.96569,12.29909 6.96569,12.29909 0,0 -2.61217,-2.36048 -27.11639,-2.11201 -24.50422,0.24851 -24.50422,0.12417 -24.50422,0.12417 z"
       id="path7327" /><path
       style="display:inline;opacity:1;fill:#494949;fill-opacity:1;stroke:none;stroke-width:0.352154;stroke-dasharray:none;stroke-opacity:1;paint-order:stroke fill markers"
       d="m 218.85828,223.70683 0.49755,-4.96931 c 0,0 -0.87071,-3.85125 3.85599,-1.61503 4.7267,2.23619 6.21936,3.97544 6.21936,3.97544 l 2.61211,-5.09357 c 0,0 1.11948,-3.35428 2.9853,-0.8696 1.86579,2.48465 4.97546,2.85735 9.32902,13.66562 4.35355,10.80829 3.10966,16.39877 3.10966,16.39877 0,0 -0.49754,5.46625 -6.96565,7.20554 -6.46812,1.73925 -9.20464,-0.49695 -10.19973,-0.62119 -0.99512,-0.12416 -7.46324,-6.70859 -8.33393,-5.7147 -0.87072,0.99386 -3.10968,-22.36197 -3.10968,-22.36197 z"
       id="path6422" /><path
       style="display:inline;opacity:1;fill:#dddbd6;fill-opacity:1;stroke:none;stroke-width:0.352154;stroke-dasharray:none;stroke-opacity:1;paint-order:stroke fill markers"
       d="m 197.58811,220.72526 c 0,0 0.12433,-4.96934 3.73162,-5.09356 3.60722,-0.12432 7.83637,2.60888 7.83637,2.60888 l 1.49266,-2.9816 c 0,0 1.11948,-2.9816 2.73649,-0.12419 1.61705,2.85737 4.85108,5.21779 7.21443,12.29906 2.36338,7.08131 3.48286,11.67794 2.86091,16.27453 -0.62194,4.59665 -6.21935,8.94482 -6.96567,9.19327 -0.74631,0.24846 -2.98528,0.49693 -7.09003,-2.23622 -4.10478,-2.73309 -8.95588,-9.81439 -8.95588,-9.81439 z"
       id="path6258" /><path
       style="display:inline;opacity:1;fill:#f9f9f4;fill-opacity:1;stroke:none;stroke-width:0.352154;stroke-dasharray:none;stroke-opacity:1;paint-order:stroke fill markers"
       d="m 164.07609,220.63442 c 0,0 0,-6.06137 2.11091,-8.78461 2.11093,-2.72322 4.92547,-2.02047 4.92547,-2.02047 l 5.18934,0.96632 5.01343,-3.86523 c 0,0 2.81456,-2.89892 5.89297,0.0878 3.07841,2.98676 9.1473,9.92661 13.10527,17.83274 3.95797,7.90616 5.54116,15.90015 4.66161,20.73167 -0.87956,4.83153 -6.77252,10.01446 -6.77252,10.01446 l -24.01169,-6.76415 z"
       id="path6202" /><path
       style="display:inline;opacity:1;fill:#494949;fill-opacity:1;stroke:#acaaa6;stroke-width:0.352154;stroke-dasharray:none;stroke-opacity:1;paint-order:stroke fill markers"
       d="m 133.37985,231.17595 c 0,0 -1.23138,-11.06861 1.7591,-14.49459 2.99047,-3.42601 5.80501,-2.98679 5.80501,-2.98679 l 2.55068,-3.95306 c 0,0 1.14342,-3.2503 4.9255,-1.93261 3.78205,1.31769 15.39208,12.29844 15.39208,12.29844 0,0 5.89297,6.06139 10.02685,15.63661 4.13389,9.5752 1.23136,13.79182 1.23136,13.79182 l -39.93148,-6.06137 z"
       id="path5870" /><path
       style="display:inline;opacity:1;fill:#dddbd6;fill-opacity:1;stroke:none;stroke-width:0.352154;stroke-dasharray:none;stroke-opacity:1;paint-order:stroke fill markers"
       d="m 277.56894,218.24058 c 0,0 1.61701,-8.19938 0.24876,-13.29294 -1.36828,-5.09356 -1.61703,-5.9632 -1.61703,-5.9632 0,0 9.57778,5.83895 27.98705,3.35432 18.40926,-2.48468 18.40926,-2.48468 18.40926,-2.48468 0,0 -4.60232,20.12576 -1.74142,30.43712 2.8609,10.31134 2.48774,9.69016 2.48774,9.69016 0,0 -11.568,-1.8635 -25.6237,-0.7454 -14.05572,1.1181 -20.15066,-20.99538 -20.15066,-20.99538 z"
       id="path6911" /><path
       style="display:inline;opacity:1;fill:#494949;fill-opacity:1;stroke:none;stroke-width:0.352154;stroke-dasharray:none;stroke-opacity:1;paint-order:stroke fill markers"
       d="m 254.93047,216.12862 -0.74631,-4.8451 c 0,0 14.18013,6.70859 29.10654,2.73314 14.92642,-3.97546 14.92642,-3.97546 14.92642,-3.97546 0,0 -2.98529,14.41106 -0.49752,23.35582 2.48775,8.94476 2.48775,8.94476 2.48775,8.94476 0,0 -4.97552,0 -17.53856,0.99389 -12.56309,0.99387 -27.73832,-27.20705 -27.73832,-27.20705 z"
       id="path6564" /><path
       style="display:inline;opacity:1;fill:#f9f9f4;fill-opacity:1;stroke:none;stroke-width:0.352154;stroke-dasharray:none;stroke-opacity:1;paint-order:stroke fill markers"
       d="m 239.25774,214.26514 c 0.12446,0.74538 4.7267,9.19322 6.59252,17.51683 1.86581,8.32365 -1.61704,18.88343 -1.61704,18.88343 0,0 17.16538,-5.34201 29.60409,-4.96931 12.43869,0.37271 13.06063,0 13.06063,0 0,0 -4.72673,-12.17483 -3.73161,-23.10733 0.99509,-10.93253 1.11946,-10.80831 1.11946,-10.80831 0,0 -12.56304,6.95707 -45.02805,2.48469 z"
       id="path6562" /><path
       style="opacity:1;fill:#494949;fill-opacity:1;stroke:none;stroke-width:1.54816;stroke-dasharray:none;stroke-opacity:1;paint-order:stroke fill markers"
       d="m 159.82482,357.46435 -0.35182,8.60891 5.33356,4.67816 3.37398,0.15338 -0.088,5.5343 5.30462,4.5123 20.99388,0.84631 0.17591,-11.33214 z"
       id="path9702"
       sodipodi:nodetypes="ccccccccc" /><path
       style="opacity:1;fill:#30322e;fill-opacity:1;stroke:none;stroke-width:1.54816;stroke-dasharray:none;stroke-opacity:1;paint-order:stroke fill markers"
       d="m 173.71333,372.09499 -0.37216,8.74698 c -1.51903,-1.4147 -3.80095,-3.01566 -5.31998,-4.43036 l 0.15518,-10.30248 z"
       id="path11691"
       sodipodi:nodetypes="ccccc" /><path
       style="display:inline;opacity:1;fill:#706f6f;fill-opacity:1;stroke:none;stroke-width:1.54816;stroke-dasharray:none;stroke-opacity:1;paint-order:stroke fill markers"
       d="m 249.47615,269.1232 -2.98527,-6.95707 c 0,0 0.9951,-0.99385 -2.23898,-2.73314 -3.23405,-1.73924 -71.39808,-13.91411 -71.39808,-13.91411 0,0 -7.21443,0 -10.69728,2.73314 -3.48284,2.73315 -5.47303,6.46012 -5.47303,6.46012 0,0 -0.74632,98.64108 0,99.63494 0.74633,0.99386 17.16539,17.88957 17.16539,17.88957 l 103.24115,-4.22391 -1.49263,-82.49079 c 0,0 0.99509,-6.70859 -2.48775,-9.69017 -3.48283,-2.98159 -23.63352,-6.70858 -23.63352,-6.70858 z"
       id="path9114" /><path
       style="display:inline;opacity:1;fill:#626260;fill-opacity:1;stroke:none;stroke-width:1.54816;stroke-dasharray:none;stroke-opacity:1;paint-order:stroke fill markers"
       d="m 249.45612,269.30012 c 0,0 -72.62192,-11.60637 -78.84128,-13.09719 -6.21933,-1.49079 -10.37891,-6.49399 -10.37891,-6.49399 0,0 3.50462,-2.91613 5.61114,-3.6389 2.36853,-0.81266 7.48107,-0.63999 7.48107,-0.63999 l 70.75177,12.15984 c 0,0 3.0214,2.95128 3.74053,4.47993 1.16676,2.48017 1.63568,7.2303 1.63568,7.2303 z"
       id="path9170"
       sodipodi:nodetypes="cscsccsc" /><path
       style="opacity:1;fill:#494949;fill-opacity:1;stroke:none;stroke-width:1.54816;stroke-dasharray:none;stroke-opacity:1;paint-order:stroke fill markers"
       d="m 274.63934,368.0294 0.0545,10.78153 -23.39596,-0.43923 -6.06889,-5.53428 -0.26387,-3.68954 z"
       id="path10831"
       sodipodi:nodetypes="cccccc" /><path
       style="opacity:1;fill:#9d4949;fill-opacity:1;stroke:none;stroke-width:1.54816;stroke-dasharray:none;stroke-opacity:1;paint-order:stroke fill markers"
       d="m 164.66234,370.28988 0.35182,-10.98077"
       id="path10833" /><path
       style="opacity:1;fill:none;fill-opacity:1;stroke:#30322e;stroke-width:1.54816;stroke-dasharray:none;stroke-opacity:1;paint-order:stroke fill markers"
       d="m 168.88417,361.15388 v 0"
       id="path11689"
       sodipodi:nodetypes="cc" /><ellipse
       style="display:inline;opacity:1;fill:#31332f;fill-opacity:1;stroke:none;stroke-width:1.54816;stroke-dasharray:none;stroke-opacity:1;paint-order:stroke fill markers"
       id="path11749"
       cx="405.99002"
       cy="291.3403"
       rx="83.557068"
       ry="13.001219"
       transform="matrix(0.99990079,-0.01408584,0.01412073,0.9999003,0,0)" /><rect
       style="opacity:1;fill:#31332f;fill-opacity:1;stroke:none;stroke-width:1.54816;stroke-dasharray:none;stroke-opacity:1;paint-order:stroke fill markers"
       id="rect12457"
       width="3.2340598"
       height="49.196301"
       x="398.44077"
       y="297.61578" /><rect
       style="opacity:1;fill:#31332f;fill-opacity:1;stroke:none;stroke-width:1.54816;stroke-dasharray:none;stroke-opacity:1;paint-order:stroke fill markers"
       id="rect12459"
       width="2.985286"
       height="32.052135"
       x="337.74002"
       y="291.40408" /><rect
       style="display:inline;opacity:1;fill:#31332f;fill-opacity:1;stroke:none;stroke-width:1.54816;stroke-dasharray:none;stroke-opacity:1;paint-order:stroke fill markers"
       id="rect12463"
       width="2.985286"
       height="38.26379"
       x="484.2677"
       y="287.67719" /><path
       id="path40144"
       style="opacity:1;fill:#a8a7a1;fill-opacity:1;stroke:none;stroke-width:1.54558;stroke-dasharray:none;stroke-opacity:1;paint-order:stroke fill markers"
       d="m 481.32219,0.01902485 -72.45371,9.20186725 -1.13481,244.5854979 8.51162,1.6945 V 18.258382 L 562.31556,-0.14112832 c 0,0 -57.50782,0.08639974 -80.99337,0.16015317 z"
       sodipodi:nodetypes="ccccccc" /><path
       style="display:inline;opacity:0.865672;fill:none;fill-opacity:1;stroke:#97cf75;stroke-width:1.54816;stroke-dasharray:none;stroke-opacity:1;paint-order:stroke fill markers"
       d="m 434.51301,207.17411 c -0.49755,0 -16.54346,25.34355 -23.6335,51.30826 -7.09006,25.96472 -6.84129,25.71626 -6.84129,25.71626 v 0"
       id="path12575" /><path
       style="display:inline;opacity:0.865672;fill:none;fill-opacity:1;stroke:#97cf75;stroke-width:1.54816;stroke-dasharray:none;stroke-opacity:1;paint-order:stroke fill markers"
       d="m 419.21341,216.98853 c 0,0 -0.24877,6.95705 1.61703,9.19321 1.86582,2.23623 1.86582,2.36044 1.86582,2.36044"
       id="path12631" /><path
       style="display:inline;opacity:0.865672;fill:none;fill-opacity:1;stroke:#97cf75;stroke-width:1.54816;stroke-dasharray:none;stroke-opacity:1;paint-order:stroke fill markers"
       d="m 395.45551,214.50386 c 0,0 9.45344,23.10734 15.05084,45.46932 5.59739,22.36195 5.59739,22.36195 5.59739,22.36195"
       id="path12633" /><path
       style="display:inline;opacity:0.865672;fill:#97cf75;fill-opacity:1;stroke:none;stroke-width:1.06261;stroke-dasharray:none;stroke-opacity:1;paint-order:stroke fill markers"
       d="m 416.28173,216.27993 4.66927,-1.77251 c 0,0 -0.73897,4.41766 -4.66927,1.77251 z"
       id="path12689-1" /><path
       style="display:inline;opacity:0.865672;fill:#97cf75;fill-opacity:1;stroke:none;stroke-width:1.71322;stroke-dasharray:none;stroke-opacity:1;paint-order:stroke fill markers"
       d="m 390.5662,213.55813 7.32747,-3.35352 c 0,0 -0.91205,7.27013 -7.32747,3.35352 z"
       id="path12689-2" /><path
       style="display:inline;opacity:0.802985;fill:#d1ecf5;fill-opacity:1;stroke:none;stroke-width:1.54816;stroke-dasharray:none;stroke-opacity:1;paint-order:stroke fill markers"
       d="m 403.29191,248.54371 c 0,0 5.97059,1.73927 10.69727,0.99388 4.72669,-0.74538 4.72669,-0.99388 4.72669,-0.99388 l -0.12432,36.4003 c 0,0 -7.96075,2.23621 -12.18995,0.86965 -4.22916,-1.36657 -4.22916,-1.36657 -4.22916,-1.36657 z"
       id="path12519" /><path
       style="opacity:1;fill:#94c874;fill-opacity:0.937255;stroke:none;stroke-width:1.54816;stroke-dasharray:none;stroke-opacity:1;paint-order:stroke fill markers"
       d="m 399.18153,222.99107 c -0.52671,-1.24772 0.17318,-2.56045 0.55679,-3.77224 0.23954,-0.75668 0.42629,-1.53826 0.86428,-2.21106 0.42907,-0.6592 0.97149,-1.37572 1.67037,-1.77034 0.51543,-0.29106 1.52139,-0.0983 1.94459,0.30627 0.30978,0.29623 0.37397,0.90295 0.37397,1.30719 0,2.16755 -2.10044,3.5249 -3.43214,4.90767 -0.11917,0.12364 -1.47517,1.49394 -1.52909,1.48647 -0.1703,-0.0235 -0.29918,-0.16931 -0.44877,-0.25396 z"
       id="path14459" /><path
       style="display:inline;opacity:1;fill:#94c874;fill-opacity:0.937255;stroke:none;stroke-width:1.54816;stroke-dasharray:none;stroke-opacity:1;paint-order:stroke fill markers"
       d="m 401.53333,231.61866 c -0.12188,0.0497 -0.23428,0.15865 -0.36563,0.1494 -0.12164,-0.008 -0.5906,-0.6872 -0.78116,-0.86649 -0.52235,-0.4915 -1.26726,-1.08717 -1.89477,-1.42673 -0.72262,-0.39103 -2.59262,-1.23471 -3.38225,-1.29227 -0.85766,-0.0626 -1.7162,0.46734 -1.90308,1.3296 -0.0971,0.44782 0.41268,0.80092 0.72298,1.01589 1.83581,1.27202 4.15804,1.68545 6.33243,2.0318 0.6113,0.0972 1.22094,0.14115 1.83661,0.19423 0.31206,0.027 0.41653,0.0365 0.74791,0.097 0.0617,0.0107 0.24512,0.0524 0.18282,0.0448 -0.31389,-0.0374 -0.0697,-0.0353 -0.55679,0.0299"
       id="path14463" /><path
       style="opacity:1;fill:#94c874;fill-opacity:0.937255;stroke:none;stroke-width:1.54816;stroke-dasharray:none;stroke-opacity:1;paint-order:stroke fill markers"
       d="m 404.19262,237.16872 c 0.12792,-2.08747 -0.0327,-1.32957 0.62329,-3.50333 0.0952,-0.3154 0.17066,-0.64212 0.32409,-0.93374 0.64887,-1.23324 1.8724,-2.55419 3.25765,-1.54623 0.46541,0.33868 0.51379,0.74921 0.49859,1.29975 -0.0581,2.10718 -1.57936,3.45692 -2.96675,4.84041 -0.42339,0.42215 -0.75428,0.94984 -1.22992,1.31468 -0.11476,0.088 -0.24029,0.16141 -0.35735,0.2465 -0.0133,0.01 -0.0497,0.0341 -0.0334,0.0372 0.12765,0.0264 0.26161,0.003 0.39058,0.0225"
       id="path14465" /><path
       style="opacity:1;fill:#94c874;fill-opacity:0.937255;stroke:none;stroke-width:1.54816;stroke-dasharray:none;stroke-opacity:1;paint-order:stroke fill markers"
       d="m 406.58599,248.05968 c -0.60109,-0.74451 -1.14757,-1.53652 -1.80332,-2.23347 -1.44585,-1.53675 -1.40657,-1.3301 -2.97509,-2.11397 -0.29571,-0.14778 -0.56907,-0.34565 -0.88089,-0.45563 -0.78874,-0.27823 -2.023,0.61304 -1.86152,1.56864 0.20412,1.20778 2.55513,2.01284 3.58174,2.30069 0.45803,0.12843 0.93665,0.14484 1.39612,0.26143 0.5342,0.13559 1.4285,0.57995 1.87815,0.64241 0.21972,0.0305 0.4432,0.02 0.66481,0.0299 z"
       id="path14467" /><path
       style="opacity:1;fill:#94c874;fill-opacity:0.937255;stroke:none;stroke-width:1.54816;stroke-dasharray:none;stroke-opacity:1;paint-order:stroke fill markers"
       d="m 413.90734,247.64884 c -1.20058,-0.32507 -0.6554,-0.0717 -2.03602,-1.3371 -0.41303,-0.37859 -0.83243,-0.75462 -1.19666,-1.18023 -0.56708,-0.66262 -2.36096,-3.55957 -0.86429,-4.27273 0.23277,-0.11095 0.78234,0.008 0.95569,0.0372 1.99514,0.34157 2.61872,2.23595 3.05819,3.96645 0.10828,0.42607 0.22527,0.87619 0.26593,1.31468 0.003,0.0442 -0.0163,0.58505 0.0913,0.55276 0.0425,-0.0134 0.0778,-0.13785 0.0914,-0.17928"
       id="path14469" /><path
       style="opacity:1;fill:#94c874;fill-opacity:0.937255;stroke:none;stroke-width:1.54816;stroke-dasharray:none;stroke-opacity:1;paint-order:stroke fill markers"
       d="m 418.60266,237.23595 c 0.0112,-0.12445 -0.0235,-0.26216 0.0331,-0.37349 0.0847,-0.16574 1.70595,-1.04045 1.94459,-1.1653 1.88332,-0.98539 5.16025,-2.0026 7.02221,-0.40335 0.7492,0.6435 0.42147,1.74505 -0.29086,2.32312 -0.58039,0.47092 -1.21632,0.75627 -1.95294,0.84405 -1.57132,0.18731 -3.17436,-0.14186 -4.65377,-0.67975 -0.40824,-0.14842 -1.14559,-0.68471 -1.5623,-0.6648 -0.18423,0.01 -0.36014,0.0797 -0.54021,0.11953 z"
       id="path14473" /><path
       style="opacity:1;fill:#94c874;fill-opacity:0.937255;stroke:none;stroke-width:1.54816;stroke-dasharray:none;stroke-opacity:1;paint-order:stroke fill markers"
       d="m 419.41708,223.79035 c -1.02041,-1.07009 -1.85042,-2.36945 -3.25762,-2.95059 -0.95753,-0.39544 -3.06264,-0.55348 -3.35736,0.82168 -0.0896,0.41752 0.47039,1.09759 0.6399,1.29975 0.95997,1.14514 4.5717,1.19262 5.97508,0.82916 z"
       id="path14475" /><path
       style="opacity:1;fill:#94c874;fill-opacity:0.937255;stroke:none;stroke-width:1.54816;stroke-dasharray:none;stroke-opacity:1;paint-order:stroke fill markers"
       d="m 426.8548,221.35518 c 0.25045,-0.91379 0.0503,-0.66121 1.44597,-1.25493 1.07364,-0.45671 2.2811,-0.70784 3.44879,-0.70216 1.87243,0.01 3.40694,1.21756 2.36009,3.0701 -1.13679,2.01171 -3.83986,1.38164 -5.58448,0.62745 -0.53881,-0.23292 -1.24618,-0.45303 -1.67037,-0.89637 -0.0511,-0.0534 -0.3414,-0.43871 -0.35735,-0.45567 -0.26232,-0.27908 -0.59395,-0.28783 -0.55679,-0.32119 0.0797,-0.0716 0.21045,-0.0402 0.31578,-0.0598"
       id="path14477" /><path
       style="opacity:1;fill:#95c975;fill-opacity:0.937255;stroke:none;stroke-width:1.54816;stroke-dasharray:none;stroke-opacity:1;paint-order:stroke fill markers"
       d="m 430.91023,212.18975 c 0.24179,-1.86312 0.30825,-1.50671 -0.133,-3.8768 -0.14429,-0.77504 -0.5535,-1.61574 -0.98893,-2.26337 -0.71287,-1.06026 -2.22019,-1.53963 -2.75901,-0.0598 -0.25376,0.69701 -0.34454,1.46759 -0.17449,2.19612 0.3212,1.37651 1.32047,3.57017 2.69249,4.20546 0.14911,0.069 0.62153,0.28805 0.80614,0.20168 0.2076,-0.097 0.37117,-0.26888 0.5568,-0.40337 z"
       id="path14479" /><path
       style="opacity:1;fill:#012768;fill-opacity:1;stroke:none;stroke-width:1.54816;stroke-dasharray:none;stroke-opacity:1;paint-order:stroke fill markers"
       d="m 390.32278,213.69521 c -0.85337,-0.55296 -1.82836,-0.46228 -2.78395,-0.62747 -1.5906,-0.27495 -4.98963,-0.80909 -5.42663,-2.79372 -0.2158,-0.98008 1.45859,-0.37939 2.13576,-0.49299 0.14726,-0.0246 0.51467,-0.0612 0.41549,-0.30626 -0.16627,-0.41102 -1.36146,-1.15921 -1.7119,-1.55371 -0.76824,-0.86494 -1.40643,-2.98287 0.34072,-3.03273 2.20366,-0.0629 4.40245,0.92996 6.24103,2.06164 0.67404,0.41491 1.23647,0.96268 1.87811,1.41928 0.0787,0.056 0.26637,0.30626 0.35736,0.30626 0.18547,0 -0.26202,-0.26237 -0.39059,-0.3959 -0.38466,-0.39939 -0.70304,-0.83837 -1.03878,-1.27736 -0.93412,-1.22128 -2.06309,-2.29193 -2.9668,-3.53319 -0.37218,-0.51125 -0.64305,-1.06427 -0.87254,-1.65082 -0.0767,-0.19599 -0.15072,-0.39298 -0.2244,-0.5901 -0.0597,-0.15997 -0.17872,-0.47877 -0.22439,-0.65734 -0.16197,-0.63386 0.62002,-0.78384 1.05543,-0.53039 0.29419,0.17127 1.68644,1.49919 1.86981,1.48651 0.12965,-0.01 0.10817,-0.23863 0.13299,-0.36605 0.16483,-0.84659 0.28467,-2.67108 1.45429,-2.75632 0.33703,-0.0246 0.8142,0.0164 1.10524,0.20915 1.3255,0.87642 1.74532,3.43867 2.01942,4.85536 0.1859,0.96084 0.50859,1.89494 0.59005,2.87585 0.0357,0.43085 -0.1416,1.60544 0.0498,1.94964 0.0134,0.0238 0.0246,-0.0488 0.0333,-0.0747 0.048,-0.1466 0.0902,-0.29516 0.14129,-0.4407 0.16464,-0.46876 0.36983,-0.91185 0.51523,-1.38938 0.2792,-0.91694 0.64246,-1.68012 1.15515,-2.49494 0.27219,-0.4327 0.51414,-0.88528 0.81437,-1.29973 0.23035,-0.31793 1.49997,-1.45576 1.91136,-0.99348 0.37583,0.42226 -0.40923,1.80528 -0.59002,2.18865 -0.017,0.0354 -0.27368,0.42168 -0.058,0.5154 0.16575,0.072 0.32871,-0.15061 0.4903,-0.23156 0.70543,-0.35325 1.8974,-0.91687 2.46818,-0.0372 0.82606,1.27289 -1.5191,4.49813 -2.40999,5.40816 -0.32332,0.33022 -0.66303,0.59657 -1.06372,0.82167 -0.16399,0.0919 -0.31046,0.25486 -0.45708,0.37349 -0.0584,0.0472 -0.12472,0.27156 -0.0831,0.20914 0.0173,-0.0257 0.0277,-0.0547 0.0415,-0.0823"
       id="path16304" /><path
       style="opacity:1;fill:#a63d44;fill-opacity:1;stroke:none;stroke-width:1.54816;stroke-dasharray:none;stroke-opacity:1;paint-order:stroke fill markers"
       d="m 416.62485,216.07805 c -0.15516,0.025 -0.30832,0.0717 -0.46539,0.0749 -0.90563,0.0173 -3.43798,-1.07742 -3.80613,-1.91975 -0.37392,-0.85552 2.25122,0.27442 1.14682,-0.32121 -0.57765,-0.31155 -1.0582,-0.84497 -1.24653,-1.48646 -0.0439,-0.14944 -0.13333,-0.46766 0.10796,-0.52289 0.609,-0.13933 2.16243,0.35183 2.66763,0.70217 0.15522,0.10754 0.78646,0.81424 1.03046,0.73203 0.20134,-0.068 -0.89578,-1.64884 -0.91416,-1.68071 -0.54575,-0.94954 -0.6164,-1.79831 -0.49027,-2.89081 0.0677,-0.58663 0.12964,-1.29341 0.87258,-0.98599 0.34175,0.14138 0.55785,0.25674 0.77283,0.56768 0.11329,0.16383 0.58541,1.37751 0.7147,1.4043 0.0603,0.0134 0.01,-0.2851 -0.0165,-0.48549 -0.0633,-0.49822 -0.1225,-2.02036 0.21604,-2.3754 0.16721,-0.17534 0.88588,0.93812 0.964,1.12791 0.5119,1.24336 0.44011,2.5956 0.70637,3.88431 0.0176,0.0844 0.22685,0.57364 0.29919,0.59755 0.17067,0.0565 0.25091,-0.26029 0.34903,-0.41083 0.44392,-0.68108 0.86264,-1.63077 1.55402,-2.099 0.20015,-0.13555 0.74245,-0.45219 0.88089,-0.0598 0.14991,0.42504 -0.66315,1.39938 -0.51525,1.62096 0.0775,0.1159 1.31782,-1.61124 1.73688,-0.53038 0.24119,0.62218 -1.01326,2.3823 -1.48756,2.80866 -0.0793,0.0713 -0.99723,0.82666 -0.99723,0.5976"
       id="path16315" /><ellipse
       style="display:inline;opacity:1;fill:#31332f;fill-opacity:1;stroke:none;stroke-width:1.57935;stroke-dasharray:none;stroke-opacity:1;paint-order:stroke fill markers"
       id="path16375"
       cx="70.762794"
       cy="259.96603"
       rx="44.983551"
       ry="8.6963158" /><ellipse
       style="fill:#31332f;fill-opacity:1;stroke:none;stroke-width:1.54657;stroke-dasharray:none;stroke-opacity:1;paint-order:stroke fill markers"
       id="path16375-4"
       cx="70.81295"
       cy="324.20151"
       rx="43.136501"
       ry="8.6963158" /><rect
       style="opacity:1;fill:#31332f;fill-opacity:1;stroke:none;stroke-width:1.54816;stroke-dasharray:none;stroke-opacity:1;paint-order:stroke fill markers"
       id="rect17892"
       width="4.0459228"
       height="80.642677"
       x="60.874062"
       y="267.45309" /><rect
       style="opacity:1;fill:#31332f;fill-opacity:1;stroke:none;stroke-width:1.54816;stroke-dasharray:none;stroke-opacity:1;paint-order:stroke fill markers"
       id="rect17894"
       width="4.3977418"
       height="75.723305"
       x="27.099394"
       y="261.12814" /><rect
       style="opacity:1;fill:#31332f;fill-opacity:1;stroke:none;stroke-width:1.54816;stroke-dasharray:none;stroke-opacity:1;paint-order:stroke fill markers"
       id="rect17896"
       width="4.0459228"
       height="73.790688"
       x="110.3047"
       y="260.77682" /><rect
       style="opacity:1;fill:#31332f;fill-opacity:1;stroke:none;stroke-width:1.54816;stroke-dasharray:none;stroke-opacity:1;paint-order:stroke fill markers"
       id="rect17898"
       width="3.694103"
       height="51.302094"
       x="75.122765"
       y="266.3989" /><ellipse
       style="opacity:1;fill:#cfe6f6;fill-opacity:1;stroke:none;stroke-width:1.44992;stroke-dasharray:none;stroke-opacity:1;paint-order:stroke fill markers"
       id="path21346"
       cx="69.840538"
       cy="255.30739"
       rx="12.874045"
       ry="1.8634963" /><ellipse
       style="fill:#cfe6f6;fill-opacity:1;stroke:none;stroke-width:1.4429;stroke-dasharray:none;stroke-opacity:1;paint-order:stroke fill markers"
       id="path21346-3"
       cx="69.778389"
       cy="258.35107"
       rx="12.749659"
       ry="1.8634963" /><rect
       style="opacity:1;fill:#cfe6f6;fill-opacity:1;stroke:none;stroke-width:1.55381;stroke-dasharray:none;stroke-opacity:1;paint-order:stroke fill markers"
       id="rect21892"
       width="25.748091"
       height="3.0437107"
       x="56.966499"
       y="255.30739" /><rect
       style="opacity:1;fill:#c3e3f6;fill-opacity:1;stroke:none;stroke-width:1.54816;stroke-dasharray:none;stroke-opacity:1;paint-order:stroke fill markers"
       id="rect21896"
       width="3.5181935"
       height="12.825523"
       x="68.086357"
       y="242.15346" /><path
       style="opacity:1;fill:#eeefee;fill-opacity:1;stroke:none;stroke-width:1.54816;stroke-dasharray:none;stroke-opacity:1;paint-order:stroke fill markers"
       d="m 57.712792,181.20212 c 0.87072,0 11.94115,3.35429 17.91174,1.24232 5.97055,-2.11197 5.97055,-2.11197 5.97055,-2.11197 l 0.74633,63.73158 c 0,0 -8.20954,1.49083 -16.91662,0.49693 -8.70709,-0.99385 -8.4583,-1.24232 -8.4583,-1.24232 z"
       id="path22212" /><path
       style="opacity:1;fill:#ffffff;fill-opacity:0.762255;stroke:none;stroke-width:1.56317;stroke-dasharray:none;stroke-opacity:1;paint-order:stroke fill markers"
       d="m 71.371481,144.3066 h 2.00914 L 201.96423,143.08269 201.56242,52.512498 72.175161,33.337757 Z"
       id="path22833" /><path
       style="fill:#d2d0d2;fill-opacity:0.426282;stroke:none;stroke-width:1.16544;stroke-dasharray:none;stroke-opacity:1;paint-order:stroke fill markers"
       d="m 230.06515,144.34595 h 1.43832 l 92.05251,-0.95032 0.51482,-73.929848 -93.43032,-11.281451 z"
       id="path22833-6"
       sodipodi:nodetypes="cccccc" /><path
       style="display:inline;opacity:1;fill:#a63d44;fill-opacity:1;stroke:none;stroke-width:1.54816;stroke-dasharray:none;stroke-opacity:1;paint-order:stroke fill markers"
       d="m 433.18722,202.79679 c -0.11085,-0.12445 -0.23455,-0.23864 -0.33243,-0.3735 -0.0633,-0.0874 -0.0786,-0.27762 -0.12461,-0.38095 -0.20408,-0.45867 -0.41336,-0.91457 -0.61493,-1.37446 -0.54125,-1.23493 -1.06767,-2.45529 -1.30473,-3.79462 -0.18897,-1.06764 -0.56506,-2.39013 0.34074,-3.25686 0.64865,-0.62064 1.47906,0.28506 1.89472,0.70963 0.11636,0.11874 0.21892,0.23595 0.2909,0.38843 0.0112,0.0217 0.0831,0.29986 0.13297,0.26147 0.18772,-0.14467 0.33259,-1.29946 0.41548,-1.54627 0.0888,-0.26431 0.23775,-0.54093 0.39889,-0.76935 0.68278,-0.96779 1.87289,-0.71389 2.06927,0.4631 0.2067,1.23858 0.31386,2.47524 0.42383,3.72743 0.009,0.10297 -0.009,0.99114 0.3241,0.76939 0.6115,-0.40628 0.86365,-1.39461 1.15511,-2.01685 0.28965,-0.61823 0.69758,-1.17267 1.00559,-1.78528 0.51067,-1.01573 0.92064,-2.29504 1.98613,-2.88335 0.65284,-0.36045 1.48336,-0.0352 1.47092,0.76938 -0.004,0.37074 -0.20081,0.71453 -0.30746,1.06074 -0.0233,0.0758 -0.17232,0.48336 -0.008,0.55276 0.0924,0.0391 1.28429,-0.2866 1.54573,-0.29881 0.2812,-0.0134 0.53061,0.0711 0.79777,0.14192 1.13055,0.29986 1.11812,1.306 0.8809,2.24095 -0.0415,0.16365 -0.0331,0.25609 -0.10806,0.41084 -0.17194,0.35494 -0.46071,0.64605 -0.70639,0.94866 -0.91467,1.12668 -2.22444,1.8128 -3.51522,2.44263 -0.44407,0.21665 -1.13099,0.31159 -1.47922,0.68723 -0.11573,0.1247 0.32582,-0.0984 0.49029,-0.14193 0.37591,-0.0996 0.58852,-0.14744 0.99723,-0.23159 0.98884,-0.20352 2.45648,-0.43804 3.45708,-0.32866 0.3968,0.0433 0.82299,0.097 1.20498,0.20915 0.24044,0.0707 0.37494,0.1975 0.54849,0.35855 0.58656,0.54421 0.64935,1.17948 0.23269,1.89734 -0.18445,0.3178 -0.8618,0.53862 -0.96401,0.81419 -0.007,0.0225 0.71048,0.31743 0.83937,0.41831 0.59478,0.46567 0.56872,1.69098 0.17449,2.27083 -0.28654,0.42145 -0.83456,0.73544 -1.27146,0.97106 -1.58861,0.85678 -3.23039,1.30643 -5.03606,1.03084 -0.75115,-0.11459 -1.43777,-0.47376 -2.18557,-0.59759 -0.64758,-0.1073 -1.33226,0.0815 -1.96955,0.17928 -0.34953,0.0537 -0.94818,0.019 -1.21328,0.29131"
       id="path15579"
       inkscape:label="path15579" /><path
       style="opacity:1;fill:#22201e;fill-opacity:1;stroke:none;stroke-width:1.54848;stroke-dasharray:none;stroke-opacity:1;paint-order:stroke fill markers"
       d="m 164.73286,370.71121 0.21545,-7.61848 3.21558,3.33085 -0.0796,4.49649 z"
       id="path49612"
       sodipodi:nodetypes="ccccc" /><path
       style="opacity:1;fill:#30322e;fill-opacity:1;stroke:none;stroke-width:1.54848;stroke-dasharray:none;stroke-opacity:1;paint-order:stroke fill markers"
       d="m 251.25289,378.22176 0.14068,-9.19224 -6.4154,0.3111 0.0844,3.56377 z"
       id="path50056" /><path
       style="display:inline;opacity:0.865672;fill:#97cf75;fill-opacity:1;stroke:none;stroke-width:1.76551;stroke-dasharray:none;stroke-opacity:1;paint-order:stroke fill markers"
       d="m 432.2561,203.40465 7.46322,4.13071 c 0,0 -6.45854,3.57061 -7.46322,-4.13071 z"
       id="path12689" /></g></svg>
