<?xml version="1.0" encoding="UTF-8" standalone="no"?>
<!-- Created with Inkscape (http://www.inkscape.org/) -->

<svg
   width="210mm"
   height="210mm"
   viewBox="0 0 210 210"
   version="1.1"
   id="svg55350"
   xml:space="preserve"
   sodipodi:docname="house-services.svg"
   inkscape:version="1.2.2 (732a01da63, 2022-12-09)"
   xmlns:inkscape="http://www.inkscape.org/namespaces/inkscape"
   xmlns:sodipodi="http://sodipodi.sourceforge.net/DTD/sodipodi-0.dtd"
   xmlns="http://www.w3.org/2000/svg"
   xmlns:svg="http://www.w3.org/2000/svg"><sodipodi:namedview
     id="namedview55352"
     pagecolor="#ffffff"
     bordercolor="#000000"
     borderopacity="0.25"
     inkscape:showpageshadow="2"
     inkscape:pageopacity="0.0"
     inkscape:pagecheckerboard="0"
     inkscape:deskcolor="#d1d1d1"
     inkscape:document-units="mm"
     showgrid="false"
     inkscape:zoom="0.48882427"
     inkscape:cx="67.508923"
     inkscape:cy="372.32194"
     inkscape:window-width="1920"
     inkscape:window-height="974"
     inkscape:window-x="-11"
     inkscape:window-y="-11"
     inkscape:window-maximized="1"
     inkscape:current-layer="layer8" /><defs
     id="defs55347" /><g
     inkscape:groupmode="layer"
     id="layer8"
     inkscape:label="Layer 1"
     transform="rotate(-1.0785735,116.40857,3135.869)"><path
       style="opacity:1;fill:none;fill-opacity:1;stroke:#ffbb00;stroke-width:12;stroke-linecap:round;stroke-linejoin:bevel;stroke-miterlimit:4;stroke-dasharray:none;stroke-opacity:1;paint-order:stroke fill markers"
       d="m 89.824786,100.0524 -1.073217,69.09997 c 0,0 -1.508412,11.53179 7.781542,11.91688 9.289969,0.38508 107.650959,2.23694 107.650959,2.23694 0,0 7.70438,0.77558 7.90611,-9.94004 0.20185,-10.71564 1.15502,-73.543059 1.15502,-73.543059"
       id="path87408" /><path
       style="opacity:1;fill:none;fill-opacity:1;stroke:#ffbb00;stroke-width:12;stroke-linecap:round;stroke-linejoin:round;stroke-miterlimit:4;stroke-dasharray:none;stroke-opacity:1;paint-order:stroke fill markers"
       d="M 64.424812,114.93437 153.91466,37.830225 236.28899,118.17006"
       id="path87410" /><path
       style="opacity:1;fill:none;fill-opacity:1;stroke:#ffbb00;stroke-width:12;stroke-linecap:round;stroke-linejoin:round;stroke-miterlimit:4;stroke-dasharray:none;stroke-opacity:1;paint-order:stroke fill markers"
       d="m 127.0851,181.78938 1.14198,-50.68033 c 0,0 -0.38557,-9.04901 7.20981,-8.906 7.59539,0.14293 30.76296,5.4e-4 30.76296,5.4e-4 0,0 6.30758,-0.35756 6.31371,9.16065 0.007,9.51816 -0.59528,51.32285 -0.59528,51.32285"
       id="path89000"
       sodipodi:nodetypes="ccsccc" /></g><g
     inkscape:groupmode="layer"
     id="layer10"
     inkscape:label="Layer 2"><path
       style="opacity:0.391045;fill:none;fill-opacity:1;stroke:none;stroke-width:22.534;stroke-linecap:round;stroke-linejoin:bevel;stroke-miterlimit:4;stroke-dasharray:none;stroke-opacity:1;paint-order:stroke fill markers"
       d="m 32.200555,95.340226 c 0,0 -12.053567,90.852834 14.149889,90.036784 26.203432,-0.81605 95.642606,-0.81605 95.642606,-0.81605 0,0 14.14985,0.27206 14.67393,-14.9608 0.52406,-15.23282 0,-70.995744 0,-70.995744"
       id="path85851" /></g><g
     inkscape:groupmode="layer"
     id="layer12"
     inkscape:label="Layer 3"><path
       d="M 74.247435,49.002001 60.194545,44.573087 C 51.532039,41.780731 44.735209,35.189697 41.855604,26.789431 L 37.28849,13.162146 c -1.74236,-4.7894452 -8.727029,-4.7894452 -10.469389,0 L 22.251934,26.789431 C 19.430441,35.128805 12.749179,41.708552 4.1940505,44.57306 l -14.0528063,4.428941 c -4.9389012,1.689577 -4.9389012,8.462725 0,10.152302 l 14.0528063,4.428914 c 8.6783925,2.806372 15.4780945,9.425522 18.3389715,17.851772 l 4.567112,13.627348 c 1.742361,4.789329 8.727001,4.789329 10.469361,0 L 42.13669,81.434989 c 2.879604,-8.40018 9.676436,-14.991214 18.338969,-17.78357 l 14.05278,-4.428914 c 4.938953,-1.689578 4.938953,-8.462811 0,-10.152388 z"
       fill="#231f20"
       id="path85783-3"
       style="overflow:hidden;fill:#333333;fill-opacity:1;stroke-width:0.216224"
       sodipodi:nodetypes="cccccccccccccccccc" /><path
       d="M 58.499782,49.125695 49.726937,46.107814 C 44.319165,44.205049 40.07608,39.713877 38.278428,33.989864 l -2.851152,-9.285738 c -1.087705,-3.263563 -5.448057,-3.263563 -6.53576,0 l -2.851154,9.285738 C 24.278969,39.67237 20.108018,44.155867 14.767286,46.107785 l -8.7728171,3.01791 c -3.0832179,1.151278 -3.0832179,5.766571 0,6.917851 l 8.7728171,3.017909 c 5.417686,1.912288 9.662577,6.422623 11.448537,12.164346 l 2.851151,9.285767 c 1.087706,3.263506 5.44803,3.263506 6.535736,0 l 2.851179,-9.285767 C 40.25154,65.501845 44.494626,61.010672 49.902426,59.107908 l 8.77279,-3.017882 c 3.083272,-1.151279 3.083272,-5.766628 0,-6.917907 z"
       fill="#231f20"
       id="path85783"
       style="overflow:hidden;fill:#ffbb00;fill-opacity:1;stroke-width:0.141026"
       sodipodi:nodetypes="cccccccccccccccccc" /><path
       d="m 222.64376,147.12804 -14.95547,-5.32662 c -9.21768,-3.35398 -16.36466,-10.96851 -19.28376,-20.54526 l -4.62387,-15.53341 c -1.77196,-5.46247 -9.24796,-5.61704 -11.20585,-0.23199 l -5.15296,15.3313 c -3.18185,9.38155 -10.46081,16.68504 -19.67339,19.73965 l -15.12727,4.7046 c -5.31912,1.80408 -5.45064,9.4744 -0.19692,11.49711 l 14.95536,5.32664 c 9.23438,3.37021 16.38394,11.01659 19.28247,20.62239 l 4.62385,15.53357 c 1.77194,5.4623 9.2479,5.61689 11.20582,0.23197 l 5.15297,-15.33139 c 3.24526,-9.44919 10.64815,-16.7629 19.97425,-19.73337 l 15.12726,-4.70457 c 5.31921,-1.80409 5.45065,-9.47457 0.19691,-11.49725 z"
       fill="#231f20"
       id="path85783-3-3"
       style="overflow:hidden;fill:#333333;fill-opacity:1;stroke-width:0.238098"
       sodipodi:nodetypes="cccccccccccccccccc" /><path
       d="m 204.66843,149.01571 -8.71656,-3.18877 c -5.37234,-2.0081 -9.53322,-6.58139 -11.22677,-12.33952 l -2.68226,-9.33978 c -1.02834,-3.28424 -5.38792,-3.36944 -6.53463,-0.12767 l -3.01902,9.22838 c -1.86411,5.64709 -6.1156,10.04829 -11.49078,11.89551 l -8.82599,2.84594 c -3.10355,1.09082 -3.18724,5.70531 -0.12546,6.91663 l 8.71656,3.1888 c 5.38203,2.01781 9.54438,6.61027 11.2259,12.38589 l 2.68227,9.33983 c 1.02836,3.28418 5.38787,3.36937 6.53459,0.12767 l 3.01903,-9.2284 c 1.90114,-5.68782 6.22491,-10.09527 11.66626,-11.89202 l 8.82594,-2.84593 c 3.10361,-1.09082 3.1873,-5.70534 0.12547,-6.91666 z"
       fill="#231f20"
       id="path85783-8"
       style="overflow:hidden;fill:#ffbb00;fill-opacity:1;stroke-width:0.141026"
       sodipodi:nodetypes="cccccccccccccccccc" /><path
       d="m 111.14331,83.205305 -5.53332,-2.085959 c -3.41036,-1.313607 -6.051702,-4.305249 -7.126788,-8.071944 l -1.702701,-6.109678 c -0.652805,-2.148417 -3.420284,-2.204166 -4.148191,-0.08329 l -1.91649,6.036785 c -1.183354,3.694088 -3.88222,6.573152 -7.2944,7.781515 l -5.602782,1.861685 c -1.970127,0.713562 -2.023281,3.732153 -0.07969,4.524548 l 5.533283,2.085987 c 3.416554,1.319948 6.058829,4.324155 7.126272,8.102307 l 1.702711,6.109679 c 0.652824,2.14838 3.420256,2.20411 4.148192,0.0836 l 1.916505,-6.036816 c 1.206842,-3.720726 3.951549,-6.603883 7.405769,-7.779213 l 5.60276,-1.861713 c 1.97015,-0.71356 2.02328,-3.732184 0.0797,-4.524548 z"
       fill="#231f20"
       id="path85783-8-7"
       style="overflow:hidden;fill:#ffbb00;fill-opacity:1;stroke-width:0.0908776"
       sodipodi:nodetypes="cccccccccccccccccc" /></g></svg>
