<?xml version="1.0" encoding="UTF-8" standalone="no"?>
<!-- Created with Inkscape (http://www.inkscape.org/) -->

<svg
   width="210mm"
   height="210mm"
   viewBox="0 0 210 210"
   version="1.1"
   id="svg5"
   sodipodi:docname="index-draw.svg"
   inkscape:version="1.2.2 (732a01da63, 2022-12-09)"
   xmlns:inkscape="http://www.inkscape.org/namespaces/inkscape"
   xmlns:sodipodi="http://sodipodi.sourceforge.net/DTD/sodipodi-0.dtd"
   xmlns="http://www.w3.org/2000/svg"
   xmlns:svg="http://www.w3.org/2000/svg">
  <sodipodi:namedview
     id="namedview7"
     pagecolor="#ffffff"
     bordercolor="#000000"
     borderopacity="0.25"
     inkscape:showpageshadow="2"
     inkscape:pageopacity="0.0"
     inkscape:pagecheckerboard="0"
     inkscape:deskcolor="#d1d1d1"
     inkscape:document-units="mm"
     showgrid="false"
     inkscape:zoom="0.97764853"
     inkscape:cx="372.32194"
     inkscape:cy="443.92231"
     inkscape:window-width="1920"
     inkscape:window-height="974"
     inkscape:window-x="-11"
     inkscape:window-y="-11"
     inkscape:window-maximized="1"
     inkscape:current-layer="layer2"
     showguides="true">
    <sodipodi:guide
       position="-68.199354,190.51447"
       orientation="0.70710678,-0.70710678"
       id="guide36640"
       inkscape:locked="false" />
  </sodipodi:namedview>
  <defs
     id="defs2" />
  <path
     style="opacity:1;fill:none;fill-opacity:1;stroke:#183360;stroke-width:0.499999;stroke-linecap:round;stroke-linejoin:round;stroke-dasharray:none;stroke-dashoffset:0;stroke-opacity:1;paint-order:normal"
     d="M 1.3362473,33.355438 C 0.18191935,34.473687 0.27063228,38.057677 0.27063228,38.057677 L 0.38273187,157.40233 c 0,0 -0.15655447,2.64644 0.69411413,3.4579 1.0853819,1.03535 4.4488466,0.67658 4.4488466,0.67658 l 200.5744674,0.0635 c 0,0 2.23931,-0.0429 2.92244,-0.78499 0.74422,-0.80851 0.58906,-3.2436 0.58906,-3.2436 l 0.12539,-122.527875 c 0,0 -0.49947,-1.90393 -1.24068,-2.431914 -1.14189,-0.813387 -4.16541,-0.582099 -4.16541,-0.582099 L 7.5438144,32.15448 c 0,0 -4.6938305,-0.265466 -6.2075671,1.200958 z"
     id="path32373"
     sodipodi:nodetypes="accaccaccacca" />
  <g
     inkscape:groupmode="layer"
     id="layer16"
     inkscape:label="Capa 15"
     style="display:inline" />
  <g
     inkscape:groupmode="layer"
     id="layer15"
     inkscape:label="Capa 14" />
  <g
     inkscape:groupmode="layer"
     id="layer13"
     inkscape:label="Capa 12">
    <path
       style="fill:#fcc97c;fill-opacity:1;stroke:none;stroke-width:0.459405;stroke-dasharray:none;stroke-opacity:1;paint-order:stroke fill markers"
       d="m 57.973278,31.86393 c 0,0 -19.852478,55.202328 25.022132,34.946535 17.78698,-8.028802 -7.170823,39.690385 10.773917,45.430915 12.577283,4.02348 29.195053,-20.504011 46.090143,-21.187134 3.6786,-0.148738 13.4421,0.757766 10.37498,3.787864 -10.25413,10.13035 1.48871,52.70517 25.81388,46.33388 27.28089,-7.14546 33.67126,-34.52237 33.5931,-34.5849 l -0.11314,-70.481333 c 0,0 -8.75581,61.554753 -29.34792,32.044191 C 171.1083,55.152765 209.67478,42.543833 183.25594,37.093553 132.7734,26.678862 154.17182,91.626868 131.86829,82.741012 125.4832,80.197156 166.79305,26.67337 112.48239,33.409622 71.50453,38.492182 54.324145,35.68279 57.973278,31.86393 Z"
       id="path27131"
       sodipodi:nodetypes="cssassccssssc" />
  </g>
  <g
     inkscape:groupmode="layer"
     id="layer14"
     inkscape:label="Capa 13"
     style="display:inline">
    <path
       style="fill:#64637b;fill-opacity:1;stroke:none;stroke-width:0.499999;stroke-dasharray:none;stroke-opacity:1;paint-order:stroke fill markers"
       d="m 22.238228,32.461911 c 0,0 43.591669,4.184674 37.850689,22.555806 -5.740979,18.371135 3.166672,58.440743 23.834197,33.180431 20.667526,-25.260308 33.261436,-25.983494 49.458966,-0.1698 16.41183,26.155212 -16.97585,3.481132 -35.594064,22.963912 -14.831948,15.5207 37.507724,43.24872 60.854374,24.11212 23.34665,-19.1366 41.48183,-35.280284 45.87577,-16.01704 l 5.11248,22.41337 c -2.97475,-21.85162 9.72713,-77.484266 -18.26466,-85.047749 -18.91807,-5.111734 -48.62868,51.094719 -39.61276,43.440077 10.03927,-8.52348 -27.93943,16.266112 -16.84021,5.549612 11.09923,-10.716487 2.10503,-34.254507 2.10503,-34.254507 0,0 15.14487,-23.768562 -4.97551,-28.704895 C 117.51279,38.918522 104.97162,58.66072 88.156382,60.367515 65.708745,62.646013 89.107356,32.794098 82.959627,32.111017 Z"
       id="path29433"
       sodipodi:nodetypes="csssssscasscsscc" />
  </g>
  <g
     inkscape:groupmode="layer"
     id="layer11"
     inkscape:label="Capa 10"
     transform="matrix(1,0,-0.21404024,1,6.4289434,6.7658091)" />
  <g
     inkscape:groupmode="layer"
     id="layer12"
     inkscape:label="Capa 11" />
  <g
     inkscape:groupmode="layer"
     id="layer9"
     inkscape:label="Capa 8" />
  <g
     inkscape:groupmode="layer"
     id="layer8"
     inkscape:label="Capa 7"
     style="display:inline">
    <path
       style="fill:#3f3d56;fill-opacity:1;stroke:none;stroke-width:2.09679;paint-order:stroke fill markers"
       d="m 136.05087,52.575743 c -4.34337,1.259085 -9.11101,3.38119 -11.49722,7.262182 -3.57445,5.813582 -3.22783,14.113217 -2.03096,20.435711 1.19687,6.322521 -1.83173,9.631817 -1.63217,12.254988 0.19946,2.623171 -0.0665,7.398674 -0.0665,7.398674 l 36.43827,-2.219605 c 0,0 -2.06129,-5.851683 -1.52935,-9.483761 0.53195,-3.632079 0.9974,-12.510498 0.46545,-17.151484 -0.53195,-4.640986 -2.31539,-10.525131 -4.98699,-13.721193 -5.59596,-5.275701 -9.8996,-5.363354 -15.16042,-4.775512 0,0 -5e-5,-7e-6 -8e-5,0 z"
       id="path4875"
       sodipodi:nodetypes="aassccsscaaa" />
  </g>
  <g
     inkscape:groupmode="layer"
     id="layer3"
     inkscape:label="Capa 3">
    <path
       style="fill:#3f3d56;fill-opacity:1;stroke:none;stroke-width:2.13975;paint-order:stroke fill markers"
       d="m 115.04902,155.24156 -8.76843,22.37891 c 0,0 3.74463,3.23411 7.85763,5.23165 4.11299,1.99754 14.7216,0.19024 14.7216,0.19024 l 3.12533,-5.04141 1.42159,5.99263 c 0,0 8.0301,3.70971 18.60635,1.14146 10.57627,-2.56827 10.77212,-2.94877 10.77212,-2.94877 0,0 2.17253,-11.64137 -0.3736,-20.01201 -2.54613,-8.37065 -5.65682,-11.98443 -5.65682,-11.98443 z"
       id="path3863"
       sodipodi:nodetypes="ccscccscscc" />
  </g>
  <g
     inkscape:groupmode="layer"
     id="layer4"
     inkscape:label="Capa 4">
    <path
       style="fill:#ffd5bb;fill-opacity:1;stroke:none;stroke-width:2.09679;paint-order:stroke fill markers"
       d="m 76.453503,139.54247 -3.927819,2.8134 c -3.296871,-0.19778 -11.511859,1.03444 -7.514543,7.37504 4.301948,6.8238 9.034935,-2.08578 9.835119,-2.85085 l 4.784167,-3.45815 z"
       id="path4028"
       sodipodi:nodetypes="ccsccc" />
  </g>
  <g
     inkscape:label="Capa 1"
     inkscape:groupmode="layer"
     id="layer1">
    <path
       style="fill:#d1d1d1;fill-opacity:1;stroke:none;stroke-width:2.09679;paint-order:stroke fill markers"
       d="m 122.48903,94.11789 c 0,0 -4.62211,-0.02924 -7.92123,2.857719 -3.29912,2.886933 -17.306579,25.935121 -17.306579,25.935121 l -21.300998,16.60084 3.795762,5.84252 c 0,0 22.219855,-14.49844 25.393855,-17.24333 3.17399,-2.74491 14.09339,-16.85498 14.09339,-16.85498 z"
       id="path3593"
       sodipodi:nodetypes="cscccscc" />
    <path
       style="fill:#e2e2e2;fill-opacity:1;stroke:none;stroke-width:2.09679;paint-order:stroke fill markers"
       d="m 122.45116,93.866095 c 0,0 -4.62211,-0.02924 -7.92123,2.857719 -3.29912,2.886933 -17.306578,25.935116 -17.306578,25.935116 l -21.300995,16.60084 3.795762,5.84252 c 0,0 22.219851,-14.49844 25.393851,-17.24333 3.17399,-2.74491 14.09339,-16.85498 14.09339,-16.85498 z"
       id="path3593-9"
       sodipodi:nodetypes="cscccscc" />
    <path
       style="fill:#d1d1d1;fill-opacity:1;stroke:none;stroke-width:2.12996;paint-order:stroke fill markers"
       d="m 126.61457,92.677383 c -0.0959,-0.09701 -5.92629,1.230395 -6.87528,4.396808 -0.85853,2.864565 -2.06245,6.367779 -3.14354,8.339989 -1.0811,1.9722 -4.31078,7.89566 -4.80219,10.05569 -0.4914,2.16003 -0.019,5.74928 1.5534,8.09715 1.57249,2.34785 2.33534,2.53519 3.79481,5.85796 1.8187,4.14066 -2.03661,26.59081 -2.29184,26.46172 l 42.37318,-5.00749 c 0,0 -3.18815,-8.61494 -3.77785,-12.18369 -0.58967,-3.56875 0.19657,-19.25248 0.19657,-19.25248 0,0 2.45703,-9.10972 2.75188,-13.05413 0.29482,-3.94442 2.16217,-8.170563 -0.29485,-10.142771 -2.45703,-1.972207 -8.45215,-3.099182 -8.45215,-3.099182 z"
       id="path1206"
       sodipodi:nodetypes="csssssccscsscc" />
    <path
       style="fill:#e2e2e2;fill-opacity:1;stroke:none;stroke-width:2.12996;paint-order:stroke fill markers"
       d="m 127.587,92.347156 c -0.0959,-0.09701 -6.46755,0.892105 -7.41654,4.058518 -0.85853,2.864565 -1.52119,6.706066 -2.60228,8.678276 -1.0811,1.9722 -4.31078,7.89566 -4.80219,10.05569 -0.4914,2.16003 -0.019,5.74928 1.5534,8.09715 1.57249,2.34785 2.33534,2.53519 3.79481,5.85796 1.8187,4.14066 -3.05148,27.06442 -3.30671,26.93533 l 42.50849,-5.21047 c 0,0 -2.30859,-8.88557 -2.89829,-12.45432 -0.58967,-3.56875 0.19657,-19.25248 0.19657,-19.25248 0,0 2.45703,-9.10972 2.75188,-13.05413 0.29482,-3.94442 2.64058,-7.787828 0.18356,-9.760036 -2.45703,-1.972207 -8.93056,-3.481914 -8.93056,-3.481914 z"
       id="path1206-6"
       sodipodi:nodetypes="csssssccscsscc" />
    <path
       style="fill:#ffd5bb;fill-opacity:1;stroke:none;stroke-width:1.84498;paint-order:stroke fill markers"
       id="path234"
       sodipodi:type="arc"
       sodipodi:cx="137.55505"
       sodipodi:cy="73.46431"
       sodipodi:rx="12.666951"
       sodipodi:ry="12.342344"
       sodipodi:start="0"
       sodipodi:end="6.2716583"
       sodipodi:arc-type="arc"
       d="M 150.222,73.46431 A 12.666951,12.342344 0 0 1 137.59156,85.806603 12.666951,12.342344 0 0 1 124.88831,73.535444 12.666951,12.342344 0 0 1 137.44555,61.122427 12.666951,12.342344 0 0 1 150.22116,73.322043"
       sodipodi:open="true" />
    <path
       style="fill:#ffd5bb;fill-opacity:1;stroke:none;stroke-width:2.56208;paint-order:stroke fill markers"
       d="m 130.39088,83.93417 c 0,0 0.65299,2.716523 0.62051,4.098095 -0.0302,1.285589 -0.75593,3.781329 -0.75593,3.781329 l -4.21557,1.001414 c 0,0 1.8607,3.203459 4.74285,4.654186 2.71765,1.367921 7.28908,0.591171 9.62626,0.380609 3.14618,-0.283446 7.14404,-4.666687 7.14404,-4.666687 l -5.05903,-1.582954 c 0,0 -0.69727,-2.544664 -0.67692,-3.846984 0.0224,-1.429514 0.87464,-4.196846 0.87464,-4.196846 z"
       id="path1000"
       sodipodi:nodetypes="caccssccacc" />
  </g>
  <g
     inkscape:groupmode="layer"
     id="layer5"
     inkscape:label="Capa 5"
     style="display:inline">
    <path
       id="XMLID_16_-0"
       d="m 116.76583,147.91742 c -0.25722,-0.80591 -0.94131,-1.39321 -1.76473,-1.51488 l -13.96497,-2.06584 -6.245503,-12.88538 c -0.368273,-0.75976 -1.128307,-1.24081 -1.960321,-1.24081 -0.832167,0 -1.592186,0.48105 -1.960348,1.24081 l -6.245031,12.88523 -13.965426,2.06586 c -0.823426,0.12174 -1.507669,0.7091 -1.764752,1.51485 -0.257083,0.80589 -0.04267,1.69041 0.553222,2.28174 l 10.105369,10.02822 -2.386467,14.16284 c -0.14064,0.83512 0.196444,1.67901 0.869624,2.17701 0.380824,0.28194 0.831875,0.42512 1.285125,0.42512 0.347882,0 0.697211,-0.0844 1.017102,-0.25565 l 12.491416,-6.68616 12.49129,6.68616 c 0.32178,0.17213 0.67418,0.25444 1.02322,0.25565 1.20599,-0.001 2.18302,-0.99762 2.18302,-2.22581 0,-0.17108 -0.0183,-0.33757 -0.0548,-0.4974 l -2.36578,-14.04161 10.10539,-10.02837 c 0.59606,-0.59133 0.81045,-1.47585 0.55337,-2.28158 z"
       style="fill:#ffbb00;fill-opacity:1;stroke-width:0.147056" />
    <path
       id="XMLID_16_-0-2"
       d="m 43.760077,142.64291 c -0.103562,-0.32852 -0.378993,-0.56793 -0.710515,-0.61753 l -5.622598,-0.84213 -2.514576,-5.25265 c -0.148275,-0.30971 -0.45428,-0.5058 -0.789267,-0.5058 -0.335048,0 -0.641049,0.19609 -0.789278,0.5058 l -2.514383,5.25258 -5.62278,0.84214 c -0.331529,0.0496 -0.607021,0.28907 -0.710528,0.61752 -0.103506,0.32852 -0.01718,0.68909 0.222739,0.93013 l 4.06864,4.08795 -0.960843,5.7734 c -0.05662,0.34043 0.0791,0.68444 0.350128,0.88744 0.153329,0.11486 0.334933,0.17329 0.517419,0.17329 0.140067,0 0.280714,-0.0345 0.409509,-0.10417 l 5.02931,-2.72558 5.029264,2.72558 c 0.129563,0.0702 0.271441,0.10374 0.41197,0.10417 0.485556,-5.6e-4 0.87893,-0.40667 0.87893,-0.90733 0,-0.0697 -0.0073,-0.13764 -0.02204,-0.20276 l -0.952511,-5.72397 4.068646,-4.08802 c 0.239985,-0.24104 0.326301,-0.60161 0.222795,-0.93006 z"
       style="fill:#ffbb00;fill-opacity:1;stroke-width:0.0595762" />
    <path
       id="XMLID_16_-0-2-3"
       d="m 43.760327,119.10167 c -0.103562,-0.32852 -0.378992,-0.56793 -0.710515,-0.61753 l -5.622598,-0.84212 -2.514576,-5.25265 c -0.148275,-0.30971 -0.454279,-0.50581 -0.789265,-0.50581 -0.33505,0 -0.641051,0.1961 -0.78928,0.50581 l -2.514383,5.25258 -5.62278,0.84214 c -0.331529,0.0496 -0.607021,0.28906 -0.710528,0.61752 -0.103506,0.32851 -0.01718,0.68908 0.22274,0.93013 l 4.06864,4.08794 -0.960844,5.7734 c -0.05662,0.34043 0.0791,0.68444 0.350128,0.88744 0.153329,0.11486 0.334933,0.17329 0.517419,0.17329 0.140066,0 0.280714,-0.0345 0.409509,-0.10418 l 5.02931,-2.72558 5.029264,2.72558 c 0.129564,0.0702 0.27144,0.10376 0.41197,0.10418 0.485556,-5.6e-4 0.87893,-0.40667 0.87893,-0.90733 0,-0.0697 -0.0073,-0.13764 -0.02204,-0.20275 l -0.952511,-5.72398 4.068646,-4.08801 c 0.239986,-0.24105 0.326301,-0.60162 0.222794,-0.93007 z"
       style="fill:#ffbb00;fill-opacity:1;stroke-width:0.0595762" />
    <path
       id="XMLID_16_-0-2-3-5"
       d="m 43.760327,95.060913 c -0.103562,-0.32852 -0.378992,-0.56793 -0.710515,-0.61753 l -5.622598,-0.84212 -2.514576,-5.25265 c -0.148275,-0.30971 -0.454279,-0.5058 -0.789265,-0.5058 -0.33505,0 -0.641051,0.19609 -0.78928,0.5058 l -2.514383,5.25258 -5.62278,0.84214 c -0.331529,0.0496 -0.607021,0.28906 -0.710528,0.61752 -0.103506,0.32852 -0.01718,0.68908 0.22274,0.93013 l 4.06864,4.087927 -0.960844,5.7734 c -0.05662,0.34043 0.0791,0.68444 0.350128,0.88744 0.153329,0.11486 0.334933,0.17329 0.517419,0.17329 0.140066,0 0.280714,-0.0345 0.409509,-0.10417 l 5.02931,-2.72558 5.029264,2.72558 c 0.129564,0.0702 0.27144,0.10375 0.41197,0.10417 0.485556,-5.6e-4 0.87893,-0.40667 0.87893,-0.90733 0,-0.0697 -0.0073,-0.13764 -0.02204,-0.20275 l -0.952511,-5.72398 4.068646,-4.087997 c 0.239986,-0.24105 0.326301,-0.60161 0.222794,-0.93007 z"
       style="fill:#ffbb00;fill-opacity:1;stroke-width:0.0595762" />
    <path
       id="XMLID_16_-0-2-3-5-3"
       d="m 43.760327,71.788716 c -0.103562,-0.328519 -0.378992,-0.56793 -0.710515,-0.617531 L 37.427214,70.32906 34.912638,65.076406 c -0.148275,-0.309707 -0.454279,-0.505803 -0.789265,-0.505803 -0.33505,0 -0.641051,0.196096 -0.78928,0.505803 l -2.514383,5.252584 -5.62278,0.842139 c -0.331529,0.04963 -0.607021,0.289068 -0.710528,0.617517 -0.103506,0.328518 -0.01718,0.689091 0.22274,0.930134 l 4.06864,4.087944 -0.960844,5.773409 c -0.05662,0.34042 0.0791,0.68443 0.350128,0.88743 0.153329,0.11486 0.334933,0.17329 0.517419,0.17329 0.140066,0 0.280714,-0.0345 0.409509,-0.10417 l 5.02931,-2.72558 5.029264,2.72558 c 0.129564,0.0702 0.27144,0.10375 0.41197,0.10417 0.485556,-5.6e-4 0.87893,-0.40667 0.87893,-0.90733 0,-0.0697 -0.0073,-0.13763 -0.02204,-0.20276 l -0.952511,-5.723969 4.068646,-4.088014 c 0.239986,-0.241043 0.326301,-0.601616 0.222794,-0.930064 z"
       style="fill:#ffbb00;fill-opacity:1;stroke-width:0.0595762" />
    <path
       id="XMLID_16_-0-2-3-5-3-4"
       d="M 43.760092,47.82066 C 43.65653,47.492142 43.3811,47.25273 43.049577,47.203129 l -5.622598,-0.842124 -2.514576,-5.252668 c -0.148274,-0.309708 -0.454279,-0.505803 -0.789266,-0.505803 -0.335049,0 -0.64105,0.196095 -0.789279,0.505803 l -2.514382,5.252597 -5.622782,0.842139 c -0.331528,0.04963 -0.60702,0.289069 -0.710527,0.617517 -0.103505,0.328519 -0.01718,0.689091 0.222739,0.930135 l 4.068641,4.087944 -0.960844,5.773402 c -0.05662,0.340426 0.0791,0.684438 0.350129,0.887437 0.153329,0.114863 0.334932,0.173292 0.517419,0.173292 0.140066,0 0.280714,-0.03444 0.409507,-0.104178 l 5.029311,-2.725577 5.029265,2.725577 c 0.129562,0.07015 0.271439,0.103756 0.411968,0.104178 0.485557,-5.63e-4 0.878932,-0.406673 0.878932,-0.907331 0,-0.06973 -0.0073,-0.137638 -0.02205,-0.20276 l -0.952511,-5.72397 4.068646,-4.088014 c 0.239985,-0.241044 0.326301,-0.601616 0.222793,-0.930065 z"
       style="fill:#ffbb00;fill-opacity:1;stroke-width:0.0595762" />
    <path
       id="XMLID_16_-0-2-3-5-3-4-8"
       d="m 42.430724,48.256098 c -0.08911,-0.280296 -0.326135,-0.48456 -0.611422,-0.526878 l -4.83844,-0.718545 -2.163879,-4.48188 c -0.127604,-0.264254 -0.390928,-0.431571 -0.679193,-0.431571 -0.288319,0 -0.551646,0.167317 -0.679201,0.431571 l -2.163717,4.481823 -4.838598,0.718545 c -0.28529,0.04232 -0.522361,0.246639 -0.611433,0.526879 -0.08905,0.280352 -0.01477,0.587979 0.191675,0.793649 l 3.501207,3.488056 -0.82684,4.926189 c -0.04873,0.290461 0.06805,0.584 0.301298,0.757208 0.131953,0.09813 0.288221,0.147859 0.445255,0.147859 0.120543,0 0.241566,-0.02924 0.3524,-0.08885 l 4.327896,-2.325611 4.327857,2.325611 c 0.111489,0.06003 0.233584,0.08858 0.354513,0.08885 0.41784,-4.78e-4 0.75635,-0.347006 0.75635,-0.774191 0,-0.05948 -0.0063,-0.117393 -0.01897,-0.173011 l -0.81967,-4.883997 3.501213,-3.488113 c 0.206517,-0.20567 0.280792,-0.513297 0.191722,-0.793593 z"
       style="fill:#ffffff;fill-opacity:1;stroke-width:0.0510501" />
  </g>
  <g
     inkscape:groupmode="layer"
     id="layer10"
     inkscape:label="Capa 9" />
  <g
     inkscape:groupmode="layer"
     id="layer6"
     inkscape:label="Capa 6"
     style="display:inline">
    <path
       style="fill:#3f3d56;fill-opacity:1;stroke:none;stroke-width:2.44878;paint-order:stroke fill markers"
       d="m 146.39005,61.516887 c 0,0 2.24562,7.356004 2.37583,11.148497 0.13621,3.966908 -1.67979,11.795495 -1.67979,11.795495 0.0634,1.658409 8.96652,-10.055249 6.33223,-19.556233 -1.83679,-6.624595 -11.41211,-7.641605 -11.41211,-7.641605 z"
       id="path4867"
       sodipodi:nodetypes="cacscc" />
  </g>
  <path
     style="fill:#3f3d56;fill-opacity:1;stroke:none;stroke-width:2.09679;paint-order:stroke fill markers"
     d="m 122.18866,62.490984 c -0.82679,2.185906 -1.35424,4.347362 -1.02869,6.488433 l 4.27528,-0.04513 c 0.22401,-1.376932 0.44578,-2.889533 1.22058,-3.987899 -0.27841,1.256234 -0.0325,2.633054 0.17096,4.010984 l 3.90395,-0.07058 c -0.44225,-0.298236 1.481,-4.078651 1.19442,-4.049408 -0.2104,0.02151 0.16382,4.176755 0.37232,4.264624 h 4.23159 c -0.1148,-1.738264 0.63582,-3.392385 1.22582,-5.086096 -0.3128,1.61865 -4.6e-4,3.092364 0.0465,4.872763 l 4.79296,-0.02446 c 0.32687,-1.312879 -0.10471,-2.094901 0.89571,-4.144025 0.27883,1.645292 0.34825,3.75189 0.78032,4.137755 l 4.81243,0.148956 -1.59861,-7.657248 c 0,0 -8.55723,-11.366973 -15.32778,-8.13286 -6.77056,3.234124 -9.96778,9.274317 -9.96778,9.274317 z"
     id="path4442"
     sodipodi:nodetypes="ccccccscccccccccscc" />
  <g
     inkscape:groupmode="layer"
     id="layer2"
     inkscape:label="Capa 2">
    <g
       inkscape:groupmode="layer"
       id="layer4-2"
       inkscape:label="Capa 4"
       transform="translate(62.792785,4.2232572)">
      <path
         style="fill:#ffd5bb;fill-opacity:1;stroke:none;stroke-width:2.09679;paint-order:stroke fill markers"
         d="m 62.014547,135.75761 -4.340909,2.1024 c -3.21657,-0.75781 -11.5193,-0.94586 -8.63733,5.98624 3.101603,7.46039 9.253342,-0.51328 10.169705,-1.13074 l 5.292554,-2.59172 z"
         id="path4028-9"
         sodipodi:nodetypes="ccsccc" />
    </g>
    <path
       style="fill:#d1d1d1;fill-opacity:1;stroke:none;stroke-width:2.09679;paint-order:stroke fill markers"
       d="m 157.90614,96.482219 c -2.71399,-2.415335 -5.97348,-2.469265 -9.49759,0.856086 -4.11311,3.881145 -2.63301,13.697425 -2.63301,13.697425 l 1.72492,15.69101 -23.04601,13.29784 1.75388,5.78605 c -0.22941,-0.17405 26.89327,-8.72916 30.31564,-14.02778 2.54836,-3.94548 4.03573,-21.56172 3.52054,-29.60328 -0.20827,-3.25086 0.0468,-3.752587 -2.13837,-5.697351 z"
       id="path3652"
       sodipodi:nodetypes="ssccccsss" />
    <path
       style="fill:#e2e2e2;fill-opacity:1;stroke:none;stroke-width:2.09679;paint-order:stroke fill markers"
       d="m 158.36493,96.763999 c -2.71399,-2.41534 -5.94064,-1.799489 -9.46475,1.525861 -4.11311,3.88115 -2.09175,13.69743 -2.09175,13.69743 l 1.72492,15.69101 -23.8463,13.2616 1.80993,6.02526 c -0.22941,-0.17405 27.63751,-8.93213 31.05988,-14.23075 2.54836,-3.94548 4.03573,-21.56172 3.52054,-29.60328 -0.20827,-3.25086 -0.5273,-4.422371 -2.71247,-6.367131 z"
       id="path3652-5"
       sodipodi:nodetypes="ssccccsss" />
  </g>
  <path
     style="fill:none;fill-opacity:1;stroke:none;stroke-width:0.499999;stroke-linecap:round;stroke-linejoin:round;stroke-dasharray:none;stroke-dashoffset:0;stroke-opacity:1;paint-order:normal"
     d="m 4.8037244,32.171423 c 0,0 -4.36394682,-1.589966 -4.43160491,2.029743 -0.0676581,3.619706 -0.0676581,3.619706 -0.0676581,3.619706"
     id="path32315" />
</svg>
