<?xml version="1.0" encoding="UTF-8" standalone="no"?>
<!-- Created with Inkscape (http://www.inkscape.org/) -->

<svg
   width="40px"
   height="40px"
   viewBox="0 0 210 210"
   version="1.1"
   id="svg5"
   xml:space="preserve"
   inkscape:version="1.2.2 (732a01da63, 2022-12-09)"
   sodipodi:docname="indicador.svg"
   inkscape:export-filename="indicador.svg"
   inkscape:export-xdpi="96"
   inkscape:export-ydpi="96"
   xmlns:inkscape="http://www.inkscape.org/namespaces/inkscape"
   xmlns:sodipodi="http://sodipodi.sourceforge.net/DTD/sodipodi-0.dtd"
   xmlns="http://www.w3.org/2000/svg"
   xmlns:svg="http://www.w3.org/2000/svg"><sodipodi:namedview
     id="namedview7"
     pagecolor="#ffffff"
     bordercolor="#000000"
     borderopacity="0.25"
     inkscape:showpageshadow="2"
     inkscape:pageopacity="0.0"
     inkscape:pagecheckerboard="0"
     inkscape:deskcolor="#d1d1d1"
     inkscape:document-units="mm"
     showgrid="false"
     inkscape:zoom="0.69130191"
     inkscape:cx="493.27218"
     inkscape:cy="431.0707"
     inkscape:window-width="1920"
     inkscape:window-height="974"
     inkscape:window-x="-11"
     inkscape:window-y="-11"
     inkscape:window-maximized="1"
     inkscape:current-layer="layer2" /><defs
     id="defs2" /><g
     inkscape:groupmode="layer"
     id="layer2"
     inkscape:label="Capa 2"
     transform="translate(-6.7658091,-5.6832796)"
     style="display:none"><path
       style="display:inline;fill:#bc3d44;fill-opacity:1;stroke:none;stroke-width:0.899999;stroke-opacity:1;paint-order:stroke fill markers"
       d="m 114.42263,180.8023 c -0.46654,-0.0212 -1.89037,0.011 -2.75178,-0.32198 -0.71601,-0.27674 -1.56648,-0.94639 -1.87272,-1.3402 -2.59539,-3.33748 -33.774894,-45.88627 -49.268544,-69.13544 -3.74785,-5.62388 -6.68731,-14.169316 -7.463271,-21.815717 -1.064822,-10.492864 -0.236489,-21.733758 4.018691,-31.384019 4.65623,-10.559821 12.71785,-20.112205 22.38981,-26.408506 10.21288,-6.648422 19.77586,-9.832641 35.067824,-10.333762"
       id="path986-7"
       sodipodi:nodetypes="cassaasc" /></g><g
     inkscape:groupmode="layer"
     id="g1174"
     inkscape:label="Capa 2 copia"
     transform="translate(-6.7658091,-5.6832796)"
     style="display:inline;fill:#bc3d44;fill-opacity:1;stroke:none"><path
       style="display:inline;fill:#bc3d44;fill-opacity:1;stroke:none;stroke-width:0.899999;stroke-opacity:1;paint-order:stroke fill markers"
       d="m 113.78839,180.8023 c 0.46654,-0.0212 1.89037,0.011 2.75178,-0.32198 0.71601,-0.27674 1.56648,-0.94639 1.87272,-1.3402 2.59539,-3.33748 33.77488,-45.88627 49.26853,-69.13544 3.74785,-5.62388 6.68731,-14.169313 7.46327,-21.815717 C 176.20951,77.696099 175.38118,66.455205 171.126,56.804944 166.46977,46.245123 158.40815,36.692739 148.73619,30.396438 138.52331,23.748016 128.96034,20.563797 113.66838,20.062676 l -0.003,34.266771 c 0,0 16.24423,-1.570136 24.2816,14.600289 8.03737,16.170425 -3.82732,28.226482 -3.82732,28.226482 -6.06411,6.352052 -12.74681,7.721742 -20.18911,8.611472"
       id="path1172"
       sodipodi:nodetypes="cassaasccscc" /></g><g
     inkscape:groupmode="layer"
     id="g1456"
     inkscape:label="Capa 2 copia copia"
     transform="translate(-6.7658091,-5.6832796)"
     style="display:inline;fill:#bc3d44;fill-opacity:1;stroke:none"><path
       style="display:inline;fill:#bc3d44;fill-opacity:1;stroke:none;stroke-width:0.899999;stroke-opacity:1;paint-order:stroke fill markers"
       d="m 114.68866,180.8023 c -0.46654,-0.0212 -1.89037,0.011 -2.75178,-0.32198 -0.71601,-0.27674 -1.56648,-0.94639 -1.87272,-1.3402 -2.59539,-3.33748 -33.774891,-45.88627 -49.268538,-69.13544 -3.74785,-5.62388 -6.68731,-14.169313 -7.46327,-21.815717 -1.06482,-10.492864 -0.23649,-21.733758 4.01869,-31.384019 4.65623,-10.559821 12.717847,-20.112205 22.389807,-26.408506 10.21288,-6.648422 19.77585,-9.832641 35.067821,-10.333762 l 0.003,34.266771 c 0,0 -16.244241,-1.570136 -24.281611,14.600289 -8.03737,16.170425 3.82732,28.226482 3.82732,28.226482 5.916571,5.553842 12.599001,8.841112 20.189121,8.611472"
       id="path1454"
       sodipodi:nodetypes="cassaasccscc" /><ellipse
       style="opacity:0.579104;fill:#ffffff;fill-opacity:1;stroke:none;stroke-width:0.997754;stroke-opacity:1;paint-order:stroke fill markers"
       id="path1574"
       cx="114.20687"
       cy="79.971863"
       rx="26.657286"
       ry="26.251337" /><ellipse
       style="display:inline;opacity:0.579104;fill:#ffffff;fill-opacity:1;stroke:none;stroke-width:0.997754;stroke-opacity:1;paint-order:stroke fill markers"
       id="path1574-5"
       cx="114.20686"
       cy="79.971863"
       rx="26.657286"
       ry="26.251337" /><ellipse
       style="display:inline;opacity:0.579104;fill:#ffffff;fill-opacity:1;stroke:none;stroke-width:0.997754;stroke-opacity:1;paint-order:stroke fill markers"
       id="path1574-4"
       cx="114.2629"
       cy="80.059334"
       rx="26.657286"
       ry="26.251337" /><ellipse
       style="display:inline;opacity:0.579104;fill:#ffffff;fill-opacity:1;stroke:none;stroke-width:0.997754;stroke-opacity:1;paint-order:stroke fill markers"
       id="path1574-7"
       cx="114.26565"
       cy="79.933273"
       rx="26.657286"
       ry="26.251337" /><ellipse
       style="display:inline;opacity:0.579104;fill:#ffffff;fill-opacity:1;stroke:none;stroke-width:0.997754;stroke-opacity:1;paint-order:stroke fill markers"
       id="path1574-54"
       cx="114.31348"
       cy="79.981117"
       rx="26.657286"
       ry="26.251337" /></g></svg>
