<?xml version="1.0" encoding="UTF-8" standalone="no"?>
<!-- Creator: CorelDRAW -->

<svg
   xml:space="preserve"
   width="50px"
   height="50px"
   style="shape-rendering:geometricPrecision; text-rendering:geometricPrecision; image-rendering:optimizeQuality; fill-rule:evenodd; clip-rule:evenodd"
   viewBox="0 0 58.282 58.282"
   version="1.1"
   id="svg4281"
   sodipodi:docname="phone-seeklogo.com.svg"
   inkscape:export-filename="phone-seeklogo.com.svg"
   inkscape:export-xdpi="96"
   inkscape:export-ydpi="96"
   inkscape:version="1.2.2 (732a01da63, 2022-12-09)"
   xmlns:inkscape="http://www.inkscape.org/namespaces/inkscape"
   xmlns:sodipodi="http://sodipodi.sourceforge.net/DTD/sodipodi-0.dtd"
   xmlns="http://www.w3.org/2000/svg"
   xmlns:svg="http://www.w3.org/2000/svg"><sodipodi:namedview
   id="namedview4283"
   pagecolor="#ffffff"
   bordercolor="#000000"
   borderopacity="0.25"
   inkscape:showpageshadow="2"
   inkscape:pageopacity="0.0"
   inkscape:pagecheckerboard="0"
   inkscape:deskcolor="#d1d1d1"
   inkscape:document-units="mm"
   showgrid="false"
   inkscape:zoom="2.1735693"
   inkscape:cx="156.42473"
   inkscape:cy="178.50822"
   inkscape:window-width="1920"
   inkscape:window-height="974"
   inkscape:window-x="-11"
   inkscape:window-y="-11"
   inkscape:window-maximized="1"
   inkscape:current-layer="Layer_x0020_1" />
 <defs
   id="defs4271">
  <style
   type="text/css"
   id="style4269">
   <![CDATA[
    .fil0 {fill:#1B1C1F}
    .fil1 {fill:#1B1C1F;fill-rule:nonzero}
   ]]>
  </style>
 </defs>
 <g
   id="Layer_x0020_1"
   inkscape:label="Layer 1"
   style="fill:#bc3d44;fill-opacity:1">
  <metadata
   id="CorelCorpID_0Corel-Layer" />
  <g
   id="_152222920"
   style="fill:#bc3d44;fill-opacity:1">
   <path
   id="_152222248"
   class="fil0"
   d="M24.1857 22.4995c-5.44655,3.14453 2.86367,18.724 8.82368,15.283 1.0584,1.83322 4.46756,7.73807 5.52595,9.57124 -2.51464,1.45186 -4.64315,2.36711 -7.55853,0.700539 -8.09458,-4.6273 -17.0046,-20.0543 -16.7511,-29.2558 0.0880456,-3.19599 1.971,-4.44824 4.43399,-5.87024 1.0584,1.83316 4.46756,7.73801 5.52595,9.57124z"
   style="fill:#bc3d44;fill-opacity:1" />
   <path
   id="_150519168"
   class="fil0"
   d="M26.4704 22.2399c-0.588492,0.339781 -1.3458,0.136973 -1.68564,-0.451581l-5.2095 -9.02316c-0.339842,-0.588616 -0.137035,-1.34586 0.451519,-1.6857l2.73799 -1.58075c0.588554,-0.339842 1.34598,-0.13685 1.68576,0.451704l5.2095 9.0231c0.339781,0.588492 0.136912,1.3458 -0.451581,1.68558l-2.73805 1.58081z"
   style="fill:#bc3d44;fill-opacity:1" />
   <path
   id="_226148072"
   class="fil0"
   d="M40.7023 46.8904c-0.588492,0.339781 -1.3458,0.136973 -1.68564,-0.451642l-5.2095 -9.02316c-0.339842,-0.588554 -0.137035,-1.34586 0.451519,-1.68564l2.73799 -1.58081c0.588554,-0.339781 1.34598,-0.136788 1.68576,0.451704l5.2095 9.0231c0.339781,0.588554 0.136912,1.34586 -0.451581,1.68564l-2.73805 1.58081z"
   style="fill:#bc3d44;fill-opacity:1" />
  </g>
  
 </g>
</svg>
