<?xml version="1.0" encoding="UTF-8" standalone="no"?>
<svg
   data-name="Layer 1"
   width="480.548"
   height="636.42297"
   viewBox="0 0 480.548 636.423"
   version="1.1"
   id="svg569"
   sodipodi:docname="undraw_right_places_re_3sve.svg"
   xml:space="preserve"
   inkscape:version="1.2.2 (732a01da63, 2022-12-09)"
   xmlns:inkscape="http://www.inkscape.org/namespaces/inkscape"
   xmlns:sodipodi="http://sodipodi.sourceforge.net/DTD/sodipodi-0.dtd"
   xmlns="http://www.w3.org/2000/svg"
   xmlns:svg="http://www.w3.org/2000/svg"><defs
     id="defs573"><inkscape:perspective
       sodipodi:type="inkscape:persp3d"
       inkscape:vp_x="0 : 354.21156 : 1"
       inkscape:vp_y="0 : 1000 : 0"
       inkscape:vp_z="561.54772 : 354.21156 : 1"
       inkscape:persp3d-origin="280.77386 : 248.14104 : 1"
       id="perspective1704" /></defs><sodipodi:namedview
     id="namedview571"
     pagecolor="#ffffff"
     bordercolor="#000000"
     borderopacity="0.25"
     inkscape:showpageshadow="2"
     inkscape:pageopacity="0.0"
     inkscape:pagecheckerboard="0"
     inkscape:deskcolor="#d1d1d1"
     showgrid="false"
     inkscape:zoom="0.86218565"
     inkscape:cx="57.99215"
     inkscape:cy="317.79698"
     inkscape:window-width="1920"
     inkscape:window-height="974"
     inkscape:window-x="-11"
     inkscape:window-y="-11"
     inkscape:window-maximized="1"
     inkscape:current-layer="svg569" /><path
     d="m 299.64768,266.84836 h 81.43311 a 1,1 0 0 0 0,-2 h -81.43311 a 1,1 0 0 0 0,2 z"
     fill="#3f3d56"
     id="path491" /><path
     style="opacity:1;fill:none;fill-opacity:1;stroke:#2f2e41;stroke-width:2.5;stroke-dasharray:none;stroke-opacity:1;paint-order:stroke fill markers"
     d="m 334.20414,146.80378 v 25.21909"
     id="path15323"
     sodipodi:nodetypes="cc" /><path
     d="m 319.58115,201.45081 a 7.74429,7.74429 0 0 0 -5.68285,9.18583 7.42941,7.42941 0 0 0 0.38194,1.16731 l -19.91744,18.25464 5.70691,13.36552 24.58082,-27.95648 a 7.72278,7.72278 0 0 0 3.99879,-8.53837 7.39068,7.39068 0 0 0 -8.87109,-5.52708 q -0.0989,0.023 -0.19708,0.0486 z"
     fill="#ffb6b6"
     id="path521" /><path
     style="fill:#dedede;stroke:none;stroke-width:3.81934;paint-order:stroke fill markers"
     d="m 309.08396,170.87208 9.52917,43.50165 h 32.27215 l 9.148,-43.58612 z"
     id="path1790-0-8"
     sodipodi:nodetypes="ccccc" /><path
     style="fill:#ffae5e;fill-opacity:1;stroke:none;stroke-width:1.56532;stroke-dasharray:none;stroke-opacity:1;paint-order:stroke fill markers"
     d="m 409.78151,51.364148 c 4.19129,-0.429043 7.7448,-1.133778 11.6759,-0.438978 2.55341,0.451286 5.53719,0.983417 7.36991,2.928088 1.33702,1.418738 2.25205,3.706533 1.7055,5.378638 -0.4311,1.318767 -2.68431,2.621761 -3.58467,2.449477"
     id="path8604-4-9-3-5"
     sodipodi:nodetypes="caasc"
     inkscape:transform-center-x="0.34779333"
     inkscape:transform-center-y="-1.7803374" /><path
     style="fill:#ffae5e;fill-opacity:1;stroke:none;stroke-width:1.56532;stroke-dasharray:none;stroke-opacity:1;paint-order:stroke fill markers"
     d="m 409.81964,51.281266 c 1.76211,4.00706 2.97512,7.57646 5.53193,10.780942 1.66076,2.081431 3.60534,4.511286 6.13287,5.187124 1.84393,0.493055 4.19097,0.165761 5.29291,-1.172576 0.8691,-1.055534 0.80542,-3.750998 0.20895,-4.478268"
     id="path8604-5-3-1-1-6"
     sodipodi:nodetypes="caasc"
     inkscape:transform-center-x="1.9591857"
     inkscape:transform-center-y="1.4290133" /><path
     style="fill:#ffae5e;fill-opacity:1;stroke:none;stroke-width:1.56532;stroke-dasharray:none;stroke-opacity:1;paint-order:stroke fill markers"
     d="m 465.72807,51.687258 c -4.19129,-0.429043 -7.7448,-1.133778 -11.6759,-0.438978 -2.55341,0.451286 -5.53719,0.983417 -7.36991,2.928088 -1.33702,1.418738 -2.25205,3.706533 -1.7055,5.378638 0.4311,1.318767 2.68431,2.621761 3.58467,2.449477"
     id="path8604-4-9-3"
     sodipodi:nodetypes="caasc"
     inkscape:transform-center-x="-0.34779224"
     inkscape:transform-center-y="-1.7803374" /><path
     style="fill:#ffae5e;fill-opacity:1;stroke:none;stroke-width:1.56532;stroke-dasharray:none;stroke-opacity:1;paint-order:stroke fill markers"
     d="m 465.68994,51.604376 c -1.76211,4.00706 -2.97512,7.57646 -5.53193,10.780942 -1.66076,2.081431 -3.60534,4.511286 -6.13287,5.187124 -1.84393,0.493055 -4.19097,0.165761 -5.29291,-1.172576 -0.8691,-1.055534 -0.80542,-3.750998 -0.20895,-4.478268"
     id="path8604-5-3-1-1"
     sodipodi:nodetypes="caasc"
     inkscape:transform-center-x="-1.9591846"
     inkscape:transform-center-y="1.4290133" /><path
     d="m 311.1638,171.67005 a 7.74427,7.74427 0 0 0 -3.48552,10.22377 7.42858,7.42858 0 0 0 0.63322,1.05238 l -15.33253,22.24522 8.55036,11.75148 17.709,-32.744 a 7.72281,7.72281 0 0 0 1.98883,-9.21623 7.3907,7.3907 0 0 0 -9.88217,-3.40406 q -0.0912,0.0445 -0.18119,0.0914 z"
     fill="#ffb6b6"
     id="path493" /><path
     d="m 220.20487,176.15399 v 0 a 13.37258,13.37258 0 0 0 -3.88835,19.86063 l 19.03209,24.27643 42.13954,31.149 c 0,0 29.67783,-25.92733 29.91566,-33.98608 0.23783,-8.05875 -2.93811,-9.76563 0.23782,-8.05875 3.17593,1.70688 6.06774,0.42724 4.97753,-0.47355 -1.09021,-0.90079 -0.70564,-1.00066 -0.0445,-2.5387 0.66115,-1.53804 2.9847,-8.7907 2.9847,-8.7907 l -11.57268,-9.44641 c 0,0 -10.802,6.55251 -11.51336,9.63373 -0.71136,3.08122 3.17594,1.70688 -0.71137,3.08123 -3.88731,1.37435 -9.63622,-2.63463 -5.03173,1.71655 4.60449,4.35118 4.45878,6.44526 0.64432,6.77257 -3.81446,0.32731 -9.83589,10.94532 -9.83589,10.94532 l -41.158,-41.90195 a 13.37259,13.37259 0 0 0 -16.17578,-2.23932 z"
     fill="#e6e6e6"
     id="path495" /><path
     style="opacity:1;fill:none;fill-opacity:1;stroke:#2f2e41;stroke-width:2.5;stroke-dasharray:none;stroke-opacity:1;paint-order:stroke fill markers"
     d="M 455.8183,56.252386 439.14556,67.270894"
     id="path19510" /><path
     style="fill:none;fill-opacity:1;stroke:#2f2e41;stroke-width:2.5;stroke-dasharray:none;stroke-opacity:1;paint-order:stroke fill markers"
     d="m 420.95052,56.252387 16.67274,11.018508"
     id="path19510-9" /><path
     style="fill:#fa9541;fill-opacity:1;stroke:none;stroke-width:1.90225;stroke-dasharray:none;stroke-opacity:1;paint-order:stroke fill markers"
     d="m 437.86387,28.69483 c -2.96456,4.380854 -5.83587,7.911981 -7.46476,12.609964 -1.05805,3.051534 -2.28941,6.619957 -1.34767,9.680388 0.68707,2.232694 2.53943,4.467742 4.62234,4.764184 1.64277,0.233777 4.36203,-1.545595 4.72129,-2.628649"
     id="path8604-4-9"
     sodipodi:nodetypes="caasc" /><path
     style="fill:#fa9541;fill-opacity:1;stroke:none;stroke-width:1.90225;stroke-dasharray:none;stroke-opacity:1;paint-order:stroke fill markers"
     d="m 437.75399,28.692301 c 3.14877,4.090062 6.16757,7.341022 7.99723,11.874504 1.18843,2.944675 2.5723,6.388694 1.76548,9.532297 -0.58861,2.293395 -2.34005,4.699842 -4.40578,5.193612 -1.62923,0.389441 -4.42018,-1.127838 -4.82573,-2.174527"
     id="path8604-5-3-1"
     sodipodi:nodetypes="caasc" /><path
     style="fill:none;fill-opacity:1;stroke:#2f2e41;stroke-width:3.03268;stroke-dasharray:none;stroke-opacity:1;paint-order:stroke fill markers"
     d="M 438.36101,43.159489 V 80.270505"
     id="path15323-3"
     sodipodi:nodetypes="cc" /><path
     d="M 216.06895,635.45073 H 89.69102 a 9.82225,9.82225 0 0 1 -9.811,-9.81055 V 519.26127 a 9.82224,9.82224 0 0 1 9.811,-9.81054 h 126.37793 a 9.82223,9.82223 0 0 1 9.811,9.81054 v 106.37891 a 9.82224,9.82224 0 0 1 -9.811,9.81055 z"
     fill="#f2f2f2"
     id="path497" /><polygon
     points="66.314,487.929 22.874,487.734 22.824,498.75 66.241,504.189 "
     fill="#ffb6b6"
     id="polygon499" /><path
     d="m 27.99055,484.88153 1.01461,18.40311 -7.88255,-0.0358 -12.15974,17.43678 A 4.9238,4.9238 0 0 1 4e-5,517.84705 l 0.0994,-21.90366 7.81419,-3.74 -7.79036,-1.5095 0.0375,-8.25856 z"
     fill="#2f2e41"
     id="path501" /><path
     d="m 248.37998,303.95073 c 0,0 -4.38,67.54 -8,78 -3.93,11.32 -3.42,28.5 -9.32,44.95 -1.82,5.07995 -3.68,10.23 -5.54,15.34 -0.37,1.03 -0.75,2.06 -1.12,3.09 -2.43,6.65 -4.86,13.19 -7.18,19.37 -0.33,0.87 -0.66,1.73 -0.98,2.57995 -0.01,0.02 -0.01,0.04 -0.02,0.0501 -7.66,20.15 -14.22,36 -16.84,38.62 -2.8,2.8 -21.72,3.96 -45.1,4.28 -43.33,0.58 -101.99,-1.71 -101.99,-1.71 l 0.09,-23.57 c 0,0 0.52,-0.15 1.49,-0.44 1.79,-0.52 5.12,-1.49 9.47,-2.78 18.17,-5.36 54.18,-16.15 70.67,-22.11 4.66,-1.68 7.76,-2.98 8.46,-3.67 4.1,-4 5.91,0 8.51,4 2.6,4 3.4,0 6.8,-2.94 3.4,-2.94 11.06,1.1 11.06,1.1 0,0 0.07,-2.66 0.18,-6.9 0.16,-6.26 0.4,-16 0.64,-25.75 -0.01,-0.01 -0.01,-0.01 0,-0.01 0.09,-3.67005 0.18,-7.34 0.26,-10.82 0.07,-2.7 0.13,-5.29 0.19,-7.69 0.16,-7.19 0.27,-12.63 0.27,-13.99 0,-4.44 0,-0.99 3.51,-3.67005 a 15.67285,15.67285 0 0 0 1.49,-1.32995 17.32066,17.32066 0 0 0 2.06,-2.2 c 0.26,-0.56 -1.35,0.2 -3.44,-0.22 a 6.3166,6.3166 0 0 1 -3.03,-1.55 c -4.41,-3.97 0.35,-16.15 0.35,-16.15 -10.02,-20.04 -9.3,-36.48 -4.61,-49.14 a 63.00711,63.00711 0 0 1 16.26,-23.83 59.50548,59.50548 0 0 1 8.9,-6.98 l 0.31,-1.65 3.39,-18.32995 a 38.51174,38.51174 0 0 1 24.38,-4.43006 56.3,56.3 0 0 1 17.99,5.83 66.76979,66.76979 0 0 1 12.85,8.44 z"
     fill="#2f2e41"
     id="path511" /><polygon
     points="160.264,566.695 156.242,609.949 167.212,610.969 176.454,568.2 "
     fill="#ffb6b6"
     id="polygon513" /><path
     d="m 187.84001,626.71074 -16.3,-13.65 0.73,-7.85 -3.79,-0.13 -11.75,-0.38 -2.88,-0.1 -4.88995,27.51 8.23,0.76 2.19,-7.63 3.03,8.12 21.81,2.03 a 4.9262,4.9262 0 0 0 3.62,-8.68 z"
     fill="#2f2e41"
     id="path515" /><path
     d="m 217.22001,464.70073 c -4.17,22.72 -21.84,75.97 -32.52,107.14 -4.87,14.24 -8.27,23.87994 -8.27,23.87994 l -5.55,-1.75 -9.36,-2.96 -3.42005,-1.08 -4.13995,-1.31 c 0,0 0.97,-51.22 0.32,-78.39 -0.22,-8.76 -0.6,-15.01995 -1.23,-16.26 -2.6,-5.1 1.75,-5.63995 6.34,-6.93 4.6,-1.29 1.01,-3.23 -0.78,-7.37 -1.21,-2.76 1.17005,-6.43 2.86005,-8.53 a 20.69953,20.69953 0 0 1 1.49,-1.69 c 0,0 -11.7,-3.98005 -24.93,-8.47 -0.01,0.01 -0.01,0 -0.01,0 -1.33,-0.45 -2.67005,-0.9 -4.01,-1.36 4.66,-1.68 7.76,-2.98 8.46,-3.67 4.1,-4 5.91,0 8.51,4 2.6,4 3.4,0 6.8,-2.94 3.4,-2.94 11.06,1.1 11.06,1.1 0,0 0.07,-2.66 0.18,-6.9 0.16,-6.26 0.4,-16 0.64,-25.75 -0.01,-0.01 -0.01,-0.01 0,-0.01 0.09,-3.67005 0.18,-7.34 0.26,-10.82 7.05,5.4 13.89,10.7 20.09,15.6 0.01,0.01 0.03,0.02 0.03,0.04 14.91,11.78 26.1,21.24 27.67,24.24 0.7099,1.36004 0.46991,4.97002 -0.49005,10.19006 z"
     fill="#2f2e41"
     id="path517" /><path
     d="m 176.28106,292.82224 c -4.688,-1.43009 -9.61695,3.398 -9.47423,8.29717 0.14272,4.89917 4.05481,9.04669 8.56137,10.97369 4.50656,1.927 75.94495,13.95811 81.23128,11.23991 5.28633,-2.7182 9.12727,-9.238 6.793,-14.70476 -1.50322,-3.52041 -4.744,-19.88885 -7.6186,-22.41669 -9.67617,-8.50906 -0.79647,-19.608 5.17825,-31.02442 5.28468,-10.09792 16.67872,-17.8219 16.56534,-29.21852 -0.0815,-8.1913 -6.2772,-14.8653 -12.07846,-20.64885 l -18.44468,-18.38841 -17.51011,-17.45667 c -3.74175,-3.73034 -19.79406,-5.70364 -22.66812,-3.97019 -6.00633,3.62263 -20.86818,63.98136 -22.99181,69.48638 -0.68188,1.76763 3.74927,24.3886 5.55569,24.95982 4.99161,15.81755 -3.78642,18.87019 -13.32841,32.43712"
     fill="#e6e6e6"
     id="path519" /><path
     d="m 229.92179,185.48736 v 0 a 13.37258,13.37258 0 0 0 -8.22982,18.48875 l 13.1234,27.91665 34.1097,39.781 c 0,0 34.72283,-18.63666 36.75618,-26.43829 2.03335,-7.80163 -0.68064,-10.1753 2.03334,-7.80164 2.71398,2.37366 5.81867,1.77288 4.95742,0.65117 -0.86125,-1.12171 -0.46408,-1.13308 0.52417,-2.48439 0.98825,-1.35131 4.87433,-7.901 4.87433,-7.901 l -9.168,-11.79443 c 0,0 -11.99343,3.97189 -13.37561,6.81611 -1.38218,2.84422 2.714,2.37366 -1.38219,2.84421 -4.09619,0.47055 -8.80337,-4.72214 -5.28812,0.54827 3.51525,5.27041 2.9051,7.27891 -0.886,6.74521 -3.7911,-0.5337 -12.03381,8.4695 -12.03381,8.4695 l -30.74913,-50.04242 a 13.37257,13.37257 0 0 0 -15.26586,-5.7987 z"
     fill="#e6e6e6"
     id="path523" /><circle
     cx="218.48235"
     cy="128.05389"
     r="29.897631"
     fill="#ffb6b6"
     id="circle525" /><path
     d="m 195.37998,105.95073 c 0.30768,-2.69066 2.15182,-6.01618 3.43459,-8.40131 1.28277,-2.38513 3.75986,-4.33293 6.46294,-4.16671 a 6.89389,6.89389 0 0 1 5.28144,3.58917 14.45722,14.45722 0 0 1 1.64289,6.38285 33.42934,33.42934 0 0 1 -10.87013,26.61787 c -2.0954,1.87931 -4.61715,3.5518 -7.43113,3.61545 a 9.58515,9.58515 0 0 1 -6.78842,-3.05324 c -4.55482,-4.5616 -5.24355,-12.06085 -2.811,-18.03054 2.43255,-5.96969 3.51812,-8.29263 9.07879,-11.55354"
     fill="#2f2e41"
     id="path527" /><path
     d="m 237.37998,148.95073 c -0.5,2.66 4.1,15.31 2.63,17.59 0,0 -15.22142,5.28689 -21.04143,5.66689 -7.11,0.46 -12.82857,-2.45687 -19.47859,-6.84688 a 14.93,14.93 0 0 0 -2.01,-6.76 9.04542,9.04542 0 0 1 -0.94,4.62 c -9.74,-7.75994 -13.3961,-29.09914 -3.7661,-39.00912 l 10,-23 c -3,1 6.05614,-14.45084 15.60612,-3.26083 11.95,-12.17005 35.09981,5.34987 38.0002,21 -2.791,-3.53247 -4.24463,-3.116 -4.96045,-0.67993 a 13.77522,13.77522 0 0 0 -3.79976,-5.31007 11.5133,11.5133 0 0 1 1.24,5.31 c -18.85,1.17 -15.34159,13.8868 0.1086,32.93685 -5.71338,-3.55664 -1.85791,11.76978 -4.90869,15.43311 -0.14991,-2.56012 -6.13992,-15.20003 -6.6799,-17.69002 z"
     fill="#2f2e41"
     id="path529" /><path
     d="m 396.94687,119.95073 h 81.4331 a 1,1 0 0 0 0,-2 h -81.4331 a 1,1 0 0 0 0,2 z"
     fill="#3f3d56"
     id="path533" /><path
     d="m 210.1776,124.45773 a 1.00011,1.00011 0 0 1 -0.273,-1.96191 c 0.26221,-0.43262 0.15479,-2.25342 0.0684,-3.72461 -0.32519,-5.52393 -0.86963,-14.769 8.106,-21.00977 a 0.99976261,0.99976261 0 0 1 1.1416,1.6416 c -8.05469,5.60108 -7.57129,13.81543 -7.251,19.25049 0.18262,3.10742 0.31494,5.352 -1.56982,5.7793 a 0.99351,0.99351 0 0 1 -0.22214,0.0249 z"
     fill="#ffae5e"
     id="path563" /><path
     d="m 14.26131,635.23312 a 1.18647,1.18647 0 0 0 1.19006,1.19 h 253.29 a 1.19,1.19 0 0 0 0,-2.38 h -253.29 a 1.1865,1.1865 0 0 0 -1.19006,1.19 z"
     fill="#cccccc"
     id="path565" /><path
     d="m 210.64366,102.60171 a 56.40248,56.40248 0 0 0 -19.20647,-4.25648 c -5.2367,-0.22192 -11.48451,0.94577 -13.6133,5.7354 -1.29144,2.90564 -0.60343,6.31148 0.57791,9.26361 1.18134,2.95213 2.83917,5.74133 3.52323,8.84659 1.47365,6.68966 -2.00452,13.77909 -7.34264,18.07184 -5.33812,4.29275 -12.2271,6.18709 -19.02279,7.04834 5.10568,1.89432 10.28959,3.80662 15.71637,4.261 5.42678,0.45438 11.22244,-0.72533 15.27427,-4.36389 4.3847,-3.93747 6.0695,-10.053 6.81534,-15.89878 0.74584,-5.84578 0.78443,-11.86628 2.766,-17.41629 1.98157,-5.55001 6.53338,-10.71869 12.40595,-11.21089"
     fill="#2f2e41"
     id="path567" /><path
     style="fill:#dedede;stroke:none;stroke-width:3.6537;paint-order:stroke fill markers"
     d="m 411.28611,79.153028 9.78888,38.753882 h 33.1517 l 9.39733,-38.829132 z"
     id="path1790-0"
     sodipodi:nodetypes="ccccc" /><path
     style="opacity:1;fill:#2f2e41;fill-opacity:1;stroke:none;stroke-width:2.97024;stroke-dasharray:none;stroke-opacity:1;paint-order:stroke fill markers"
     d="m 333.99782,166.3781 c -10.53108,0.47884 -15.61465,-3.13165 -17.83661,-17.72901 0,0 18.28315,1.06566 17.83661,17.72901 z"
     id="path15421"
     sodipodi:nodetypes="ccc" /><path
     style="fill:#2f2e41;fill-opacity:1;stroke:none;stroke-width:2.97024;stroke-dasharray:none;stroke-opacity:1;paint-order:stroke fill markers"
     d="m 334.31132,166.1046 c 10.53108,0.47884 15.61465,-3.13165 17.83661,-17.72901 0,0 -18.28315,1.06566 -17.83661,17.72901 z"
     id="path15421-2"
     sodipodi:nodetypes="ccc" /><path
     style="opacity:1;fill:#ffae5e;fill-opacity:1;stroke:#ffae5e;stroke-width:2.5;stroke-dasharray:none;stroke-opacity:1;paint-order:stroke fill markers"
     d="m 334.61471,145.99524 c -3.80856,0.30276 -8.10848,-0.98799 -10.87354,-3.62451 -2.32527,-2.21719 -2.8916,-5.83012 -3.4795,-8.98878 -0.83836,-4.50434 0.0178,-13.74507 0.0178,-13.74507 l 7.6111,9.23378 c 0.48998,-0.85299 6.43418,-9.26185 6.43418,-9.26185 l 6.66909,9.27874 6.08918,-8.26388 v 11.30847 c 0,0 -0.3241,6.35181 -2.17471,8.69883 -2.39566,3.03828 -6.43661,5.05766 -10.2936,5.36427 z"
     id="path16761"
     sodipodi:nodetypes="aasccccccaa" /><path
     style="opacity:1;fill:#ffa24d;fill-opacity:1;stroke:none;stroke-width:2.691;stroke-dasharray:none;stroke-opacity:1;paint-order:stroke fill markers"
     d="m 443.6997,355.39385 c 0,0 4.82984,-4.19715 3.52502,-12.02609 -1.30483,-7.82894 -6.93721,-24.46525 -6.93721,-24.46525 0,0 -2.4501,14.02667 -5.34971,18.2311 -2.8996,4.20443 -6.42159,10.17652 -4.97179,14.96087 1.4498,4.78435 4.74491,9.67851 4.74491,9.67851 l 7.24902,-1.15984 z"
     id="path20063"
     sodipodi:nodetypes="cscssccc" /><path
     style="opacity:1;fill:#ffae5e;fill-opacity:1;stroke:none;stroke-width:2.691;stroke-dasharray:none;stroke-opacity:1;paint-order:stroke fill markers"
     d="m 438.62538,359.99183 c 0,0 -9.01365,-7.20034 -13.0731,-10.38991 -4.05945,-3.18957 -9.82651,-12.66908 -9.82651,-12.66908 0,0 -0.148,14.4586 2.02671,18.95299 2.1747,4.49439 5.41403,11.70095 5.41403,11.70095 l 11.68939,4.47982 z"
     id="path19853"
     sodipodi:nodetypes="cscsccc" /><path
     style="opacity:1;fill:#fa9541;fill-opacity:1;stroke:none;stroke-width:2.691;stroke-dasharray:none;stroke-opacity:1;paint-order:stroke fill markers"
     d="m 433.84104,371.34169 c 0,0 0,-6.66909 4.78435,-12.17835 4.78435,-5.50925 6.73213,-6.65424 10.58356,-8.98878 4.06611,-2.46467 12.23378,-13.04823 12.17836,-13.04823 0,0.57992 -0.14499,12.61328 -1.88475,17.25266 -1.73977,4.63937 -5.21929,13.33819 -5.21929,13.33819 z"
     id="path19850"
     sodipodi:nodetypes="csscscc" /><path
     style="opacity:1;fill:#fa9541;fill-opacity:1;stroke:none;stroke-width:2.5;stroke-dasharray:none;stroke-opacity:1;paint-order:stroke fill markers"
     d="m 436.01574,370.61679 c 0,0 -10.8984,-3.88959 -17.13255,-7.65908 -6.23416,-3.76949 -15.60814,-15.32546 -15.60814,-15.32546 0,0 1.5699,17.18533 9.83379,23.70944 3.26541,2.57796 6.57126,5.58222 9.90189,7.04567 5.09829,2.24016 11.41022,0.78328 11.41022,0.78328 z"
     id="path19793"
     sodipodi:nodetypes="cscsscc" /><path
     style="opacity:1;fill:#ffae5e;fill-opacity:1;stroke:none;stroke-width:2.691;stroke-dasharray:none;stroke-opacity:1;paint-order:stroke fill markers"
     d="m 455.95944,378.73569 c 0,0 8.03497,-4.39984 12.98719,-10.24317 4.95222,-5.84334 6.79373,-20.92761 6.79373,-20.92761 0,0 -6.85223,8.86429 -14.20552,14.05837 -7.35331,5.19407 -15.59175,4.43451 -23.39526,7.35618 -7.80351,2.92167 -6.43764,9.36226 -7.48811,9.36226 z"
     id="path19733"
     sodipodi:nodetypes="cscsscc" /><path
     style="fill:#dedede;stroke:none;stroke-width:4.46347;paint-order:stroke fill markers"
     d="m 409.04939,378.1375 10.87353,52.06623 h 36.82501 l 10.43859,-52.16733 z"
     id="path1790"
     sodipodi:nodetypes="ccccc" /><path
     d="m 397.50129,431.88635 h 81.4331 a 1,1 0 0 0 0,-2 h -81.4331 a 1,1 0 0 0 0,2 z"
     fill="#3f3d56"
     id="path531" /></svg>
