<?xml version="1.0" encoding="UTF-8" standalone="no"?>
<svg
   data-name="Layer 1"
   width="580"
   height="576.89838"
   viewBox="0 0 580 576.89838"
   version="1.1"
   id="svg182"
   sodipodi:docname="undraw_complete_design_re_h75h.svg"
   inkscape:version="1.2.2 (732a01da63, 2022-12-09)"
   xmlns:inkscape="http://www.inkscape.org/namespaces/inkscape"
   xmlns:sodipodi="http://sodipodi.sourceforge.net/DTD/sodipodi-0.dtd"
   xmlns="http://www.w3.org/2000/svg"
   xmlns:svg="http://www.w3.org/2000/svg">
  <defs
     id="defs186" />
  <sodipodi:namedview
     id="namedview184"
     pagecolor="#ffffff"
     bordercolor="#000000"
     borderopacity="0.25"
     inkscape:showpageshadow="2"
     inkscape:pageopacity="0.0"
     inkscape:pagecheckerboard="0"
     inkscape:deskcolor="#d1d1d1"
     showgrid="false"
     inkscape:zoom="0.95114648"
     inkscape:cx="216.58073"
     inkscape:cy="351.15516"
     inkscape:window-width="1920"
     inkscape:window-height="974"
     inkscape:window-x="-11"
     inkscape:window-y="-11"
     inkscape:window-maximized="1"
     inkscape:current-layer="svg182" />
  <path
     d="m 116.93,443.97207 h 442.97878 a 19.316601,21.68883 0 0 0 19.31763,-21.69 v -287.62 a 19.014244,21.34934 0 0 0 -0.67688,-5.69 19.311115,21.68267 0 0 0 -18.64075,-16 H 386.88717 a 53.775973,60.38008 0 0 0 -7.28532,25.01 c -2.1464,25.69 10.9725,49.44 22.71093,71.63 11.73843,22.18994 22.93357,47.99 16.71702,72.84 -4.20374,16.76 -15.59484,28.89 -29.72904,36.16 a 83.420024,93.66465 0 0 1 -43.27545,7.4 135.47986,152.11784 0 0 1 -26.05966,-6.68 c -11.10609,-4.05 -21.95389,-9.3 -32.78389,-14.61 -0.009,0 -0.009,0 -0.0178,-0.01 -0.18704,-0.09 -0.38298,-0.19 -0.57001,-0.28 -8.38077,-4.11 -16.75263,-8.23 -25.2492,-11.86 a 154.20202,173.13923 0 0 0 -30.83341,-9.54 c -16.02233,-2.82 -32.17826,-1.8 -46.47278,6.36 -23.29874,13.29 -35.78529,42.01 -45.55544,69.23 -9.86812,27.51998 -18.71202,55.95998 -21.55311,85.35 z"
     fill="#ffae5e"
     id="path132"
     style="stroke-width:0.943729" />
  <path
     d="m 2.824952,333.94204 v 88.34 a 12.996024,21.68883 0 0 0 12.996726,21.69 H 65.36383 c 0.85686,-13.33 0.13781,-26.61 -3.008,-39 -6.85489,-27.02 -23.440847,-43 -39.253799,-55.83 -6.645196,-5.39001 -13.404213,-10.59002 -20.277079,-15.2 z"
     fill="#ffae5e"
     id="path134"
     style="stroke-width:0.774083" />
  <path
     d="m 50.57153,423.57214 v 1.1e-4 a 17.778027,21.69 0 0 0 17.77803,21.69 h 67.76796 c 1.17209,-13.33 0.18852,-26.61 -4.1146,-39 -2.20454,-6.35263 -7.35399,-13.38957 -14.06394,-20.49782 -26.32554,-27.88824 -67.36745,-4.72871 -67.36745,37.80771 z"
     fill="#ffae5e"
     id="path136"
     style="stroke-width:0.905341" />
  <path
     d="M 0.773589,422.28164 V 134.66201 A 18.959299,22.7157 0 0 1 19.711388,111.97207 H 560.23725 a 18.959299,22.7157 0 0 1 18.9378,22.68994 v 287.61963 a 18.959382,22.7158 0 0 1 -18.9378,22.69043 H 19.711388 A 18.959382,22.7158 0 0 1 0.773589,422.28164 Z M 19.711388,113.97207 a 17.287852,20.71309 0 0 0 -17.26853,20.68994 v 287.61963 a 17.287944,20.7132 0 0 0 17.26853,20.69043 H 560.23725 a 17.287944,20.7132 0 0 0 17.26852,-20.69043 V 134.66201 a 17.287852,20.71309 0 0 0 -17.26852,-20.68994 z"
     fill="#3f3d56"
     id="path138"
     style="stroke-width:0.913583" />
  <path
     d="m 158.31,443.26226 h 27.69988 c 4.73751,-16.93645 11.57536,-34.889 17.81984,-51.249 11.98036,-31.36814 27.28546,-64.4657 55.85184,-79.782 12.19699,-6.54 25.49595,-9.09434 39.07746,-8.95524 18.76169,0.18885 38.05083,5.53615 55.71056,12.62281 7.22401,2.89234 14.38209,6.07284 21.51191,9.323 26.86163,12.25506 53.43128,25.60342 82.31789,29.21135 36.55329,4.56207 79.53001,-12.8017 89.51364,-50.20295 7.61959,-28.63486 -6.1032,-58.363 -20.4947,-83.93664 -14.39151,-25.57357 -30.47834,-52.93624 -27.85053,-82.54513 0.009,-0.0994 0.0188,-0.20874 0.0377,-0.30811 0.98895,-10.635 6.96971,-18.278 15.32394,-23.178 h -36.37438 c -0.48035,27.621 14.57045,52.00174 28.11429,76.07448 14.3915,25.56367 28.11429,55.30177 20.49471,83.93663 -9.98364,37.39131 -92.65284,-6.439 -129.20613,-11.01111 -10.3227,-1.28214 6.07495,3.27992 -3.76741,0 -15.43696,-5.13862 -17.1483,41.99167 -32.17085,35.074 -9.35259,-4.31364 -18.7146,-8.59744 -28.19906,-12.40411 -3.92752,-1.58036 -7.93981,-3.0613 -11.99919,-4.43291 -0.009,0 -0.009,0 -0.0188,-0.01 -27.25721,-9.16392 -57.06683,-12.73213 -82.25196,0.51686 -0.16954,0.0894 -0.34849,0.1789 -0.51802,0.26832 -28.56638,15.3064 -43.87148,48.404 -55.85184,79.7721 -9.89887,25.93135 -19.89193,53.86292 -24.77072,81.21565 z"
     fill="#3f3d56"
     id="path140"
     style="stroke-width:0.970491" />
  <path
     d="M 160.5263,237.11019 H 30.625799 a 4.0133071,5.91 0 1 0 0,11.82 H 160.5263 a 4.0133071,5.91 0 1 0 0,-11.82 z"
     fill="#3f3d56"
     id="path142"
     style="stroke-width:0.824058" />
  <path
     d="M 63.04567,203.97207 H 30.034851 a 3.2893846,5.910025 0 1 0 0,11.82005 H 63.04568 a 3.2893846,5.910025 0 0 0 0,-11.82005 z"
     fill="#3f3d56"
     id="path144"
     style="stroke-width:0.74604" />
  <polygon
     points="299.374,549.823 294.008,501.972 311.9,502.123 311.498,549.925 "
     fill="#ffb6b6"
     id="polygon146"
     transform="translate(-56)" />
  <path
     d="m 216.66536,569.20309 a 5.42722,5.42722 0 0 0 5.3737,5.46759 l 24.10363,0.20114 4.21967,-8.55322 1.54975,8.59689 9.09483,0.0825 -2.29656,-30.66186 -3.16422,-0.21051 -12.90631,-0.88967 -4.16389,-0.27885 -0.073,8.6754 -19.36243,13.133 a 5.41826,5.41826 0 0 0 -2.37517,4.4376 z"
     fill="#2f2e41"
     id="path148" />
  <polygon
     points="422.374,549.823 417.008,501.972 434.9,502.123 434.498,549.925 "
     fill="#ffb6b6"
     id="polygon150"
     transform="translate(-56)" />
  <path
     d="m 339.66536,569.20309 a 5.42722,5.42722 0 0 0 5.3737,5.46759 l 24.10363,0.20114 4.21967,-8.55322 1.54975,8.59689 9.09483,0.0825 -2.29656,-30.66186 -3.16422,-0.21051 -12.90631,-0.88967 -4.16389,-0.27885 -0.073,8.6754 -19.36243,13.133 a 5.41826,5.41826 0 0 0 -2.37517,4.4376 z"
     fill="#2f2e41"
     id="path152" />
  <path
     d="m 240.54218,166.72052 54.56257,-41.99115 a 11.113,11.113 0 0 0 2.08936,-15.451 v 0 a 11.11305,11.11305 0 0 0 -16.01957,-1.86316 l -55.33993,45.35608 -34.78838,26.14255 a 9.69772,9.69772 0 1 0 4.238,11.70239 z"
     fill="#ffb6b6"
     id="path154" />
  <path
     d="m 285.01312,176.37353 -2.405,53.71423 81.68593,9.88431 c -6.42764,-21.58352 -16.96811,-51.56194 -12.13817,-66.58267 z"
     fill="#a0616a"
     id="path156" />
  <path
     d="m 331.44613,77.90049 h -25.16231 l -10.80585,18.491 -5.14897,-0.2843 c -10.035,3.86488 -14.035,7.86488 -19.57275,18.522 v 0 l -19.46221,16.34289 15,18 c 10.3606,-1.69748 14.09619,-9.73972 10.8064,-24.50989 0,0 -11.346,19.77327 4.99761,29.50105 0,0 -2.915,18.32813 0,18.13112 2.915,-0.19701 9.62931,-3.92716 2.915,-0.197 -6.71431,3.73016 -5.56414,3.89107 -5.34476,5.09967 3.62572,19.97506 6.62572,34.97506 6.62572,34.97506 l 71,7 c 0,0 -4.09121,-42.93822 -3.86866,-45.37949 0.22255,-2.44127 -1.26951,3.527 0.22255,-2.44127 1.49206,-5.96827 3.73016,-3.73015 1.49207,-5.96825 -2.23809,-2.2381 15.38473,-4.16554 8.507,-14.9208 l 23,-6 -12.85623,-30.55536 c 0,-10.31684 -16.56979,-18.68029 -26.88663,-18.68029 h -1.32157 z"
     fill="#e6e6e6"
     id="path158" />
  <path
     d="m 358.22255,210.85869 c -27.77686,9.55472 -52.78369,7.45679 -73.92847,-10.88662 0,0 -5.95062,21.99987 -11.97531,18.99987 -6.02469,-3 -3.04714,5.39467 -4.702,8.47239 -1.75706,3.26775 0.28282,8.77982 -5.51992,10.65378 -5.80274,1.87396 -3.623,7.38147 -5.5015,11.43467 -13.14593,28.36453 -28.15894,68.51467 -38.30125,119.43929 -10.422,52.329 15,140 15,140 l 24,-2 6,-114 27.4426,-48.18613 c 0,0 13.48173,-7.8498 5.01957,-11.83183 -8.46216,-3.98203 -2.79293,-8.91669 3.37245,-7.94936 6.16538,0.96733 13.16538,-31.03268 13.16538,-31.03268 -8.79053,22.09156 46,217 46,217 l 23,-2 -13,-272 z"
     fill="#2f2e41"
     id="path160" />
  <path
     d="m 346.37921,31.47832 c 2.72768,6.79328 10.42287,20.15255 11.46517,27.44032 l -0.46913,-0.46134 a 32.90146,32.90146 0 0 1 -3.0409,4.3478 21.133,21.133 0 0 0 -7.17646,-4.93446 25.29665,25.29665 0 0 1 2.51952,9.70681 c -5.00953,4.3623 -17.80333,1.73039 -24.19538,4.05524 -10.28669,3.73213 -21.20775,5.06075 -31.99106,6.16412 -3.82745,0.394 -8.112,0.63322 -10.79413,-1.62844 -2.68213,-2.26166 -1.08479,-6.44993 -2.52779,-9.61778 -10.27859,-22.56452 -0.79282,-30.70565 7.26657,-40.93726 1.77357,-2.2516 1.76615,-5.61169 3.92425,-7.76 2.99438,-2.97778 7.58443,-3.8937 11.81627,-4.62739 a 6.413,6.413 0 0 1 -5.63344,-2.78774 5.78522,5.78522 0 0 1 0.0767,-6.03836 c 1.51349,-2.50916 4.65851,-3.96827 7.69266,-4.33278 a 29.21087,29.21087 0 0 1 8.90273,0.76529 15.93019,15.93019 0 0 1 5.39115,1.72317 4.4118,4.4118 0 0 1 2.29689,4.47155 5.71537,5.71537 0 0 1 -3.37953,3.64257 14.96007,14.96007 0 0 1 -3.82071,1.04591 29.97248,29.97248 0 0 1 17.58073,3.07719 c 6.7823,3.61783 11.35894,9.89592 14.09594,16.68558 z"
     fill="#2f2e41"
     id="path162" />
  <circle
     cx="309.65488"
     cy="45.319988"
     r="24.244089"
     fill="#ffb6b6"
     id="circle164" />
  <path
     d="m 332.98373,32.32071 c -1.40575,4.24839 -5.42275,5.61739 -9.13571,6.4712 -1.17071,0.27286 -2.34865,0.52712 -3.53742,0.75336 -0.43858,-0.54833 -0.90509,-1.08578 -1.39228,-1.59373 a 21.133,21.133 0 0 0 -7.17645,-4.93444 24.90466,24.90466 0 0 1 2.30568,7.61189 q -3.36681,0.48849 -6.771,0.79841 a 7.65518,7.65518 0 0 1 -8.99073,-5.51644 c -2.066,3.37852 -4.50886,6.56027 -7.84955,7.90235 a 9.49977,9.49977 0 0 1 -10.80661,-3.233 c -2.00068,-2.44082 -3.115,-5.71992 -3.91647,-8.8846 -0.94807,-3.76219 -1.47463,-8.096 0.38677,-10.483 1.49124,-1.93184 4.06354,-1.96653 6.43707,-1.79514 a 76.60624,76.60624 0 0 1 15.46819,2.80431 l 0.42716,0.96049 c -0.86726,-5.20991 1.01385,-10.22255 4.49433,-12.00524 2.34761,-1.19192 5.1721,-0.99206 7.91637,-0.75026 a 36.07777,36.07777 0 0 1 10.33745,1.99917 19.85675,19.85675 0 0 1 9.36924,7.483 c 2.43603,3.69849 3.64658,8.74272 2.43396,12.41167 z"
     fill="#2f2e41"
     id="path166" />
  <path
     d="m 298.42156,9.66093 c 0.2392,-0.0706 -0.3806,0.0201 -0.16565,0.0259 a 1.97524,1.97524 0 0 1 -0.31728,-0.0444 c -0.0177,-0.004 -0.2591,-0.0806 -0.0988,-0.024 a 1.94632,1.94632 0 0 1 -0.92482,-0.60354 8.063,8.063 0 0 1 -1.32151,-2.3521 8.44655,8.44655 0 0 0 -1.81725,-3.03 2.07886,2.07886 0 0 0 -3.31693,0.5063 c -0.47188,1.04446 -0.0409,2.33135 0.29594,3.35718 a 10.4232,10.4232 0 0 0 1.53166,2.96979 9.532,9.532 0 0 0 4.38051,3.21392 9.9705,9.9705 0 0 0 6.26657,0.17907 1.5144,1.5144 0 0 0 0.0605,-2.771 L 299.5693,9.686 a 1.50003,1.50003 0 1 0 -1.20824,2.746 l 3.4252,1.402 0.0605,-2.771 a 5.96624,5.96624 0 0 1 -1.31112,0.22419 5.02287,5.02287 0 0 1 -1.42015,-0.0599 6.22675,6.22675 0 0 1 -1.31407,-0.32044 8.56836,8.56836 0 0 1 -0.80012,-0.33913 q -0.14207,-0.069 -0.28159,-0.14326 c 0.007,0.004 -0.39187,-0.2285 -0.217,-0.11946 a 8.45879,8.45879 0 0 1 -1.24152,-0.96712 3.41477,3.41477 0 0 1 -0.37241,-0.41436 7.94024,7.94024 0 0 1 -0.54182,-0.75149 7.7918,7.7918 0 0 1 -0.79571,-1.763 7.89851,7.89851 0 0 1 -0.22014,-0.79175 3.25067,3.25067 0 0 0 -0.0795,-0.43568 c -0.1271,-0.34132 0.0241,0.19931 -0.12208,0.3472 l -0.63138,0.46526 a 0.82441,0.82441 0 0 1 -0.7057,-0.113 q -0.11218,-0.15789 0.0491,0.0524 a 4.89556,4.89556 0 0 1 0.34278,0.5172 14.16063,14.16063 0 0 1 0.6133,1.29953 14.26035,14.26035 0 0 0 1.42122,2.68412 4.82951,4.82951 0 0 0 5.29011,2.02276 1.51211,1.51211 0 0 0 0.85434,-1.94168 1.53069,1.53069 0 0 0 -1.94162,-0.8544 z"
     fill="#2f2e41"
     id="path168" />
  <circle
     cx="260.60904"
     cy="201.38152"
     r="71.685028"
     fill="#ffffff"
     id="circle170" />
  <path
     d="m 260.609,274.06679 a 72.68506,72.68506 0 1 1 72.68506,-72.68554 72.76755,72.76755 0 0 1 -72.68506,72.68554 z m 0,-143.37011 a 70.68506,70.68506 0 1 0 70.68506,70.68457 70.76474,70.76474 0 0 0 -70.68506,-70.68457 z"
     fill="#3f3d56"
     id="path172" />
  <path
     d="m 250.82972,238.69019 a 7.97167,7.97167 0 0 1 -6.37853,-3.19024 l -19.55677,-26.07613 a 7.973783,7.973783 0 1 1 12.75836,-9.56813 l 12.79471,17.05831 32.86156,-49.29168 a 7.9741204,7.9741204 0 1 1 13.26974,8.84649 l -39.11355,58.67038 a 7.97735,7.97735 0 0 1 -6.41358,3.54846 c -0.074,0.001 -0.14796,0.003 -0.22194,0.003 z"
     fill="#ffae5e"
     id="path174" />
  <path
     d="m 181.64785,575.70838 a 1.18647,1.18647 0 0 0 1.19006,1.19 h 253.29 a 1.19,1.19 0 1 0 0,-2.38 h -253.29 a 1.1865,1.1865 0 0 0 -1.19006,1.19 z"
     fill="#cccccc"
     id="path176" />
  <path
     d="m 405.91111,203.8334 -23.43325,-64.73958 a 11.113,11.113 0 0 0 -14.08624,-6.684 v 0 a 11.11305,11.11305 0 0 0 -6.64118,14.69669 l 26.403,66.50233 14.34006,41.08561 a 9.69773,9.69773 0 1 0 12.43677,-0.48307 z"
     fill="#ffb6b6"
     id="path178" />
  <path
     d="m 370.647,110.26226 19,34 c 0,0 -43.78731,14.99212 -43.89365,12.49606 -0.10634,-2.49606 2.17565,-37.13386 2.17565,-37.13386 z"
     fill="#e6e6e6"
     id="path180" />
</svg>
