<?xml version="1.0" encoding="UTF-8" standalone="no"?>
<svg
   width="300.67001"
   height="465.12918"
   viewBox="0 0 300.67001 465.12918"
   version="1.1"
   id="svg60"
   sodipodi:docname="undraw_coolness_re_sllr.svg"
   inkscape:version="1.2.2 (732a01da63, 2022-12-09)"
   xmlns:inkscape="http://www.inkscape.org/namespaces/inkscape"
   xmlns:sodipodi="http://sodipodi.sourceforge.net/DTD/sodipodi-0.dtd"
   xmlns="http://www.w3.org/2000/svg"
   xmlns:svg="http://www.w3.org/2000/svg">
  <defs
     id="defs64" />
  <sodipodi:namedview
     id="namedview62"
     pagecolor="#ffffff"
     bordercolor="#000000"
     borderopacity="0.25"
     inkscape:showpageshadow="2"
     inkscape:pageopacity="0.0"
     inkscape:pagecheckerboard="0"
     inkscape:deskcolor="#d1d1d1"
     showgrid="false"
     inkscape:zoom="1.1797042"
     inkscape:cx="122.06449"
     inkscape:cy="276.34045"
     inkscape:window-width="1920"
     inkscape:window-height="974"
     inkscape:window-x="-11"
     inkscape:window-y="-11"
     inkscape:window-maximized="1"
     inkscape:current-layer="svg60" />
  <path
     d="M 148.16577,72.31006 C 146.906,66.5 146.53589,70.78003 143.79565,65.51001 c 1.88086,6.81006 -1.58984,4.58008 -6.2002,9.91992 -32.39941,5.08008 -35.85938,-11.68994 -47.84961,-11.34985 -2.0498,0 1.91199,-11.09305 1.90222,-13.15287 C 87.01278,43.34981 88.74071,21.90207 93.57591,27.69995 93.57591,12.40015 105.97532,0 121.27611,0 c 14.09961,0 25.73926,10.54004 27.46973,24.16992 0.58008,4.56006 1.2998,9.09009 2.16016,13.6001 l 3.98926,13.54004 c 5.61139,10.81711 2.95734,19.22171 -6.72949,21 z"
     fill="#2f2e41"
     id="path2" />
  <circle
     id="b"
     cx="114.43549"
     cy="31.4713"
     r="20.308661"
     fill="#a0616a"
     style="fill:#eda7ab;fill-opacity:1" />
  <circle
     cx="50.967102"
     cy="436.71771"
     r="26.28336"
     fill="#e6e6e6"
     id="circle5" />
  <path
     d="M 148.57263,179.62323 H 75.98041 c 6.08456,-13.57729 9.82529,-26.50793 3.9776,-36.79333 l 65.0896,-3.82883 c -4,23 4,32 3.52502,40.62216 z"
     fill="#a0616a"
     id="path11"
     style="fill:#eda7ab;fill-opacity:1" />
  <g
     id="g17"
     transform="translate(-396)">
    <polygon
       points="535.11383,440.99283 529.69916,397.35184 544.03442,397.01264 544.82776,440.76361 "
       fill="#a0616a"
       id="polygon13"
       style="fill:#eda7ab;fill-opacity:1" />
    <path
       d="m 511.50055,461.02976 v 0 c 0,1.64099 1.16455,2.97131 2.60107,2.97131 h 19.28131 c 0,0 1.89746,-7.6272 9.63361,-10.90961 l 0.53394,10.90961 h 9.94653 l -1.20514,-17.54214 c 0,0 2.66077,-9.3851 -2.86505,-14.1825 -5.52588,-4.79739 -1.05011,-4.12958 -1.05011,-4.12958 l -2.17377,-10.85727 -15.03033,1.76746 -0.11053,17.04337 -7.29413,16.91711 -10.69867,5.28497 c -0.95221,0.47037 -1.56866,1.54214 -1.56866,2.72723 l -1.2e-4,3e-5 h 6e-5 z"
       fill="#2f2e41"
       id="path15" />
  </g>
  <g
     id="g23"
     transform="translate(-396)">
    <polygon
       points="444.89645,397.11237 436.13214,354.01898 450.39856,352.57517 454.56375,396.13465 "
       fill="#a0616a"
       id="polygon19"
       style="fill:#eda7ab;fill-opacity:1" />
    <path
       d="m 422.8988,418.91074 v 0 c 0.12656,1.63611 1.39023,2.87265 2.82251,2.76184 l 19.22388,-1.48703 c 0,0 1.30356,-7.75082 8.76349,-11.62009 l 1.37372,10.83594 9.91693,-0.76712 -2.55444,-17.39697 c 0,0 1.92902,-9.56235 -3.95035,-13.91931 -5.87943,-4.35693 -1.36548,-4.03629 -1.36548,-4.03629 l -3.00467,-10.65729 -14.84921,2.92139 1.20425,17.00113 -5.96765,17.42929 -10.25922,6.09436 c -0.91312,0.54242 -1.44504,1.65854 -1.35364,2.84009 l -1.2e-4,3e-5 z"
       fill="#2f2e41"
       id="path21" />
  </g>
  <path
     d="m 141.8197,172.17879 7.13507,2.37836 c 11.15564,20.60352 15.88538,47.964 15.25861,80.95695 l -12.67401,148.18494 h -20.73523 l -15.17444,-165.0836 -8.04889,6.75615 -46.70734,39.20563 -1.42349,78.12183 -19.57651,1.99591 -18.43024,-82.23004 55.46033,-108.6277 64.91614,-1.65843 v 2e-5 z"
     fill="#2f2e41"
     id="path25" />
  <path
     d="m 155.27264,74.65654 c -1.48889,-4.46667 -21.58887,-6.7 -21.58887,-6.7 L 127.7282,55.30098 105.39486,56.78987 92.73931,67.95654 c 0,0 -11.9111,2.23333 -13.39999,6.7 -1.48889,4.46667 -0.29166,66.34453 -0.29166,66.34453 l -1.19724,20.75549 67.00003,-1.48889 0.1972,-17.2666 c 0,0 11.71393,-63.87785 10.22504,-68.34452 h -6e-5 z"
     fill="#e6e6e6"
     id="path27"
     style="fill:#dedede;fill-opacity:1" />
  <circle
     cx="182.07263"
     cy="219.82326"
     r="48.388908"
     fill="#ffae5e"
     id="circle29" />
  <path
     d="m 182.07227,237.40856 c -0.75024,0 -1.45251,-0.3773 -1.86621,-1.00761 l -12.28333,-18.70163 c -0.67719,-1.03088 -0.39038,-2.41582 0.6405,-3.09264 1.03235,-0.67683 2.41583,-0.39003 3.09265,0.64047 l 10.28448,15.65842 15.68787,-27.45139 c 0.61212,-1.07123 1.97595,-1.44345 3.04681,-0.83096 1.07123,0.61177 1.44312,1.97598 0.83093,3.04684 l -17.49445,30.6131 c -0.38531,0.67465 -1.09338,1.09995 -1.86981,1.12466 -0.0229,7.3e-4 -0.0461,7.3e-4 -0.0695,7.3e-4 z"
     fill="#ffffff"
     id="path31" />
  <g
     id="g41"
     transform="translate(-396)">
    <g
       id="g37">
      <polygon
         points="603.54346,166.30713 607.49072,206.69528 598.18317,206.81241 588.8512,172.00629 570.86169,126.98146 596.04761,145.00105 "
         fill="#a0616a"
         id="polygon33"
         style="fill:#eda7ab;fill-opacity:1" />
      <ellipse
         cx="603.70111"
         cy="213.74278"
         rx="6.1416602"
         ry="10.34386"
         transform="rotate(-10.85847,603.70114,213.7428)"
         fill="#a0616a"
         id="ellipse35"
         style="fill:#eda7ab;fill-opacity:1" />
    </g>
    <path
       d="m 541.02826,71.73689 c 0,0 13.23016,-5.14356 19.20184,6.86805 5.97168,12.01161 38.10828,65.4744 38.10828,65.4744 l 2.36591,6.42085 -18.86786,8.30164 -2.91846,-7.92036 c 0,0 -10.47058,3.96432 -11.13269,-2.1387 -0.25439,-2.34494 -19.11627,-29.03937 -23.95715,-42.81952 C 536.07001,83.8386 541.0282,71.73692 541.0282,71.73692 Z"
       fill="#e6e6e6"
       id="path39"
       style="fill:#dedede;fill-opacity:1" />
  </g>
  <path
     d="m 237.34576,447.49387 c 2.06592,0.12936 3.2077,-2.43738 1.64465,-3.93332 l -0.15552,-0.61819 c 0.0204,-0.0495 0.0411,-0.099 0.0618,-0.14838 2.08923,-4.98181 9.16992,-4.94742 11.24139,0.0418 1.83856,4.42816 4.17944,8.86389 4.7558,13.54593 0.25836,2.0668 0.14215,4.17236 -0.31647,6.20047 4.30804,-9.41058 6.57513,-19.68661 6.57513,-30.02078 0,-2.59653 -0.14215,-5.19302 -0.43274,-7.78296 -0.23901,-2.11853 -0.56842,-4.22409 -0.99469,-6.31033 -2.30573,-11.27719 -7.29852,-22.01825 -14.50012,-30.98962 -3.46198,-1.89249 -6.34906,-4.85065 -8.09296,-8.39651 -0.62646,-1.2789 -1.11737,-2.65463 -1.34991,-4.05618 0.39398,0.0517 1.48553,-5.94867 1.18842,-6.3168 0.54907,-0.83316 1.5318,-1.24734 2.13147,-2.06033 2.9823,-4.0434 7.09119,-3.3374 9.23621,2.15726 4.58221,2.31265 4.62659,6.14807 1.81494,9.83682 -1.78876,2.34683 -2.03455,5.52234 -3.60406,8.03479 0.1615,0.2067 0.32947,0.40695 0.49091,0.61365 2.96106,3.79788 5.52209,7.88 7.68103,12.16858 -0.61017,-4.7662 0.29065,-10.50821 1.82642,-14.20959 1.74817,-4.21732 5.0249,-7.76917 7.91046,-11.41501 3.466,-4.37924 10.57336,-2.46805 11.18402,3.08331 0.006,0.0537 0.0117,0.10745 0.0173,0.16119 -0.42859,0.24179 -0.84851,0.49866 -1.25867,0.76993 -2.33948,1.54724 -1.53094,5.17386 1.24109,5.60175 l 0.0627,0.01 c -0.15503,1.54367 -0.41986,3.07443 -0.80731,4.57938 3.70178,14.3158 -4.2901,19.52991 -15.70148,19.76413 -0.25189,0.12915 -0.49738,0.25833 -0.74927,0.3811 1.15619,3.25525 2.07983,6.59448 2.7644,9.97891 0.61359,2.99042 1.03992,6.01318 1.27887,9.04889 0.29718,3.83005 0.2713,7.6796 -0.0517,11.50323 l 0.0194,-0.13562 c 0.82025,-4.21115 3.10669,-8.14462 6.42657,-10.87027 4.94562,-4.06265 11.9328,-5.55869 17.26825,-8.82425 2.56836,-1.57196 5.85944,0.45944 5.41119,3.43707 l -0.0218,0.14261 c -0.79443,0.32288 -1.56946,0.69754 -2.31873,1.11734 -0.42859,0.24185 -0.84845,0.49866 -1.25867,0.76993 -2.33948,1.5473 -1.53094,5.17392 1.24109,5.60181 l 0.0628,0.01 c 0.0452,0.006 0.084,0.0129 0.12909,0.0194 -1.36279,3.23581 -3.26166,6.23923 -5.63855,8.82922 -2.31464,12.49713 -12.25604,13.68283 -22.8902,10.04355 h -0.006 c -1.1626,5.06378 -2.86127,10.01126 -5.04437,14.7262 h -18.0202 c -0.0646,-0.20023 -0.12274,-0.40692 -0.18091,-0.60718 1.66638,0.10342 3.3457,0.006 4.98627,-0.29703 -1.33704,-1.64059 -2.67395,-3.2941 -4.01099,-4.93463 -0.0323,-0.0323 -0.0582,-0.0646 -0.084,-0.0969 -0.67816,-0.8396 -1.36279,-1.67282 -2.04102,-2.51245 l -3.7e-4,-10e-4 c -0.0425,-2.57755 0.26654,-5.14661 0.87878,-7.63983 l 5.5e-4,-3.4e-4 6e-5,-6e-5 z"
     fill="#f2f2f2"
     id="path43" />
  <path
     d="m 0.07492416,463.93918 c 0,0.66003 0.22565083,1.19 0.50664686,1.19 H 299.99476 c 0.28097,0 0.50662,-0.52997 0.50662,-1.19 0,-0.65997 -0.22565,-1.19 -0.50662,-1.19 H 0.58157102 c -0.28099603,0 -0.50664686,0.53003 -0.50664686,1.19 z"
     fill="#cccccc"
     id="path47"
     style="stroke-width:0.652482" />
  <g
     id="g57"
     transform="translate(-396)">
    <g
       id="g53">
      <polygon
         points="451.80389,177.25109 458.93808,217.19965 467.92975,214.79262 467.49036,178.75986 472.61874,130.54621 452.04761,157.00105 "
         fill="#a0616a"
         id="polygon49"
         style="fill:#eda7ab;fill-opacity:1" />
      <ellipse
         cx="464.49414"
         cy="222.95801"
         rx="6.1416602"
         ry="10.34386"
         transform="rotate(-4.84896,464.49418,222.95798)"
         fill="#a0616a"
         id="ellipse51"
         style="fill:#eda7ab;fill-opacity:1" />
    </g>
    <path
       d="m 486.38196,69.28799 c 0,0 -14.12857,-1.36975 -16.6254,11.80999 -2.49683,13.17975 -18.95959,73.34624 -18.95959,73.34624 l -0.53928,6.82158 20.41071,2.88364 0.66522,-8.41469 c 0,0 11.15283,0.98163 10.13794,-5.07274 -1.01489,-6.05437 4.9104,-81.374 4.9104,-81.374 z"
       fill="#e6e6e6"
       id="path55"
       style="fill:#dedede;fill-opacity:1" />
  </g>
  <path
     id="c-314"
     d="M 87.01871,29.354 C 86.74192,14.82946 96.22003,2.31829 108.93018,7.44254 h 4.13452 c 12.0957,0.01365 32.77032,17.12205 24.77032,29.12205 -11,-9 -7.50714,36.28123 -18.91339,38.81102 -0.0947,1.15601 -3.5123,-0.42951 -3.56894,-1.58792 l 11.71909,-35.19901 c -0.55322,-5.85794 -1.83411,-11.62415 -3.81293,-17.16544 v 0 l -0.33728,12.95238 -4.77484,-4.60808 c -3.88931,0.10085 -5.0713,-6.43277 -11.45602,-1.72023 -6.38472,4.71254 -13.18933,0.15323 -19.67209,1.72023 V 29.354 Z"
     fill="#2f2e41" />
</svg>
