<?xml version="1.0" encoding="UTF-8" standalone="no"?>
<svg
   data-name="Layer 1"
   width="270"
   height="270"
   viewBox="0 0 270 270"
   version="1.1"
   id="svg2110"
   sodipodi:docname="vidrios.svg"
   xml:space="preserve"
   inkscape:version="1.2.2 (732a01da63, 2022-12-09)"
   xmlns:inkscape="http://www.inkscape.org/namespaces/inkscape"
   xmlns:sodipodi="http://sodipodi.sourceforge.net/DTD/sodipodi-0.dtd"
   xmlns="http://www.w3.org/2000/svg"
   xmlns:svg="http://www.w3.org/2000/svg"><defs
     id="defs2114" /><sodipodi:namedview
     id="namedview2112"
     pagecolor="#ffffff"
     bordercolor="#000000"
     borderopacity="0.25"
     inkscape:showpageshadow="2"
     inkscape:pageopacity="0.0"
     inkscape:pagecheckerboard="0"
     inkscape:deskcolor="#d1d1d1"
     showgrid="false"
     inkscape:zoom="3.5900901"
     inkscape:cx="133.70138"
     inkscape:cy="140.66499"
     inkscape:window-width="1920"
     inkscape:window-height="974"
     inkscape:window-x="-11"
     inkscape:window-y="-11"
     inkscape:window-maximized="1"
     inkscape:current-layer="svg2110" /><path
     style="opacity:1;fill:#ffffff;fill-opacity:1;stroke:none;stroke-width:3.77953;paint-order:stroke fill markers"
     id="path13784"
     sodipodi:type="arc"
     sodipodi:cx="135.31203"
     sodipodi:cy="135.11507"
     sodipodi:rx="134.91811"
     sodipodi:ry="134.72115"
     sodipodi:start="0"
     sodipodi:end="6.2716583"
     sodipodi:open="true"
     sodipodi:arc-type="arc"
     d="M 270.23013,135.11507 A 134.91811,134.72115 0 0 1 135.70083,269.83565 134.91811,134.72115 0 0 1 0.39616175,135.89153 134.91811,134.72115 0 0 1 134.14564,0.39895543 134.91811,134.72115 0 0 1 270.22117,133.56217"
     sodipodi:insensitive="true" /><rect
     x="64.209793"
     width="141.28122"
     height="193.84271"
     fill="#e6e6e6"
     id="rect2018"
     y="38.998226"
     style="stroke-width:0.445867" /><rect
     x="73.587822"
     y="50.686787"
     width="122.23186"
     height="82.919746"
     fill="#ffffff"
     id="rect2020"
     style="stroke-width:0.445867" /><rect
     x="73.586914"
     y="130.20583"
     width="122.23409"
     height="88.872269"
     fill="#ffffff"
     id="rect2022"
     style="stroke-width:0.445867" /><rect
     x="131.5289"
     y="50.261555"
     width="6.3497086"
     height="83.344971"
     fill="#3f3d56"
     id="rect2024"
     style="fill:#5886b6;fill-opacity:1;stroke-width:0.445867" /><rect
     x="189.46999"
     y="50.261555"
     width="6.3497086"
     height="168.62897"
     fill="#3f3d56"
     id="rect2026"
     style="fill:#5886b6;fill-opacity:1;stroke-width:0.634208" /><rect
     x="73.587791"
     y="126.80286"
     width="122.23188"
     height="6.8036714"
     fill="#3f3d56"
     id="rect2028"
     style="fill:#5886b6;fill-opacity:1;stroke-width:0.445867" /><rect
     x="73.802162"
     y="212.27017"
     width="122.03492"
     height="6.8036714"
     fill="#3f3d56"
     id="rect2028-7"
     style="fill:#5886b6;fill-opacity:1;stroke-width:0.445508" /><polygon
     points="87.935,122.067 74.876,122.067 49.514,139.115 49.514,153.219 "
     fill="#ffffff"
     id="polygon2030"
     transform="matrix(0.43073544,0,0,0.46153026,58.610231,38.998225)" /><polygon
     points="137.034,122.067 116.663,122.067 49.514,174.634 49.514,186.649 "
     fill="#e6e6e6"
     id="polygon2032"
     transform="matrix(0.43073544,0,0,0.46153026,58.610231,38.998225)"
     style="fill:#e8f5fe;fill-opacity:1" /><rect
     x="73.587822"
     y="50.261555"
     width="6.3497086"
     height="168.82593"
     fill="#3f3d56"
     id="rect2034"
     style="fill:#5886b6;fill-opacity:1;stroke-width:0.634578" /><polygon
     points="287.221,36.382 277.543,39.146 220.884,111.011 238.39,112.853 "
     fill="#e6e6e6"
     id="polygon2036"
     transform="matrix(0.43073544,0,0,0.46153026,58.610231,38.998225)"
     style="fill:#e8f5fe;fill-opacity:1" /><rect
     x="73.587822"
     y="50.261555"
     width="122.23186"
     height="6.8036714"
     fill="#3f3d56"
     id="rect2038"
     style="fill:#5886b6;fill-opacity:1;stroke-width:0.445867" /><rect
     x="73.587807"
     y="88.532204"
     width="122.23186"
     height="6.8036714"
     fill="#3f3d56"
     id="rect2040"
     style="fill:#5886b6;fill-opacity:1;stroke-width:0.445867" /><rect
     style="opacity:1;fill:#d6d6d6;fill-opacity:1;stroke:none;stroke-width:3.41611;paint-order:stroke fill markers"
     id="rect10943"
     width="58.79353"
     height="4.4077005"
     x="122.89682"
     y="178.06677" /><rect
     style="fill:#5886b6;fill-opacity:1;stroke:none;stroke-width:4.43195;paint-order:stroke fill markers"
     id="rect10943-3"
     width="61.849323"
     height="7.0523214"
     x="121.00222"
     y="181.84483" /><path
     style="opacity:1;fill:#5886b6;fill-opacity:1;stroke:none;stroke-width:3.36696;paint-order:stroke fill markers"
     d="m 145.75418,188.77119 c 0,0 3.66696,6.29672 4.64481,12.4675 0.97786,6.17079 0.97786,6.17079 0.97786,6.17079 l 3.30027,-0.12594 c 0,0 0.36669,-10.32662 2.44462,-14.48245 2.07795,-4.15583 2.07795,-4.0299 2.07795,-4.0299 z"
     id="path11541" /><rect
     style="opacity:1;fill:#a2a2a2;fill-opacity:1;stroke:none;stroke-width:3.36696;paint-order:stroke fill markers"
     id="rect11543"
     width="7.0894489"
     height="29.090824"
     x="149.29892"
     y="207.03168" /></svg>
